<svg xmlns="http://www.w3.org/2000/svg" xmlns:xlink="http://www.w3.org/1999/xlink" width="454" height="3225" fill="none" viewBox="0 0 454 3225">
  <path fill="#959494" d="m51.98 143.546 35.997.398.166-15-35.998-.397z"/>
  <ellipse fill="#959494" rx="30" ry="36.5" transform="matrix(1 0 0 -1 32 133.5)"/>
  <path fill="#C4C4C4" d="m61.136 141.67 24.838.275.165-15-24.837-.274z"/>
  <path stroke="#C4C4C4" stroke-width=".8" d="M61.5 127c-1.332 5.826-.994 8.59 0 14.5"/>
  <ellipse fill="#C4C4C4" rx="29.5" ry="36.5" transform="matrix(1 0 0 -1 29.5 131.5)"/>
  <path fill="#C4C4C4" d="M61 127h2v8h-2z"/>
  <path fill="#959494" d="m57.977 232.51 35.998.398.166-14.999-35.998-.398z"/>
  <ellipse fill="#959494" rx="30" ry="36.5" transform="matrix(1 0 0 -1 38 222.5)"/>
  <path fill="#C4C4C4" d="m67.134 230.635 24.838.275.165-15-24.837-.274z"/>
  <path stroke="#C4C4C4" stroke-width=".8" d="M67.5 216c-1.332 5.826-.994 8.59 0 14.5"/>
  <ellipse fill="#C4C4C4" rx="29.5" ry="36.5" transform="matrix(1 0 0 -1 35.5 220.5)"/>
  <path fill="#C4C4C4" d="M67 227h2v-8h-2z"/>
  <path fill="#959494" d="m61.976 323.474 35.998.398.166-15-35.998-.397z"/>
  <ellipse fill="#959494" rx="30" ry="36.5" transform="matrix(1 0 0 -1 42 313.5)"/>
  <path fill="#C4C4C4" d="m71.133 321.599 24.837.274.166-14.999-24.838-.274z"/>
  <path stroke="#C4C4C4" stroke-width=".8" d="M71.5 307c-1.332 5.826-.994 8.59 0 14.5"/>
  <ellipse fill="#C4C4C4" rx="29.5" ry="36.5" transform="matrix(1 0 0 -1 39.5 311.5)"/>
  <path fill="#C4C4C4" d="M71 318h2v-8h-2z"/>
  <path fill="#959494" d="m63.975 414.438 35.998.398.166-15-35.998-.397z"/>
  <ellipse fill="#959494" rx="30" ry="36.5" transform="matrix(1 0 0 -1 44 404.5)"/>
  <path fill="#C4C4C4" d="m73.132 412.563 24.838.274.165-14.999-24.837-.274z"/>
  <path stroke="#C4C4C4" stroke-width=".8" d="M73.5 398c-1.332 5.826-.994 8.59 0 14.5"/>
  <ellipse fill="#C4C4C4" rx="29.5" ry="36.5" transform="matrix(1 0 0 -1 41.5 402.5)"/>
  <path fill="#C4C4C4" d="M73 409h2v-8h-2z"/>
  <path fill="#959494" d="m67.974 505.402 35.998.398.166-15-35.998-.397z"/>
  <ellipse fill="#959494" rx="30" ry="36.5" transform="matrix(1 0 0 -1 48 495.5)"/>
  <path fill="#C4C4C4" d="m77.13 503.527 24.838.274.166-14.999-24.838-.274z"/>
  <path stroke="#C4C4C4" stroke-width=".8" d="M77.5 489c-1.332 5.826-.994 8.59 0 14.5"/>
  <ellipse fill="#C4C4C4" rx="29.5" ry="36.5" transform="matrix(1 0 0 -1 45.5 493.5)"/>
  <path fill="#C4C4C4" d="M77 500h2v-8h-2z"/>
  <path fill="#959494" d="m72.972 593.367 35.998.398.166-15-35.998-.397z"/>
  <ellipse fill="#959494" rx="30" ry="36.5" transform="matrix(1 0 0 -1 53 583.5)"/>
  <path fill="#C4C4C4" d="m82.129 591.492 24.837.274.166-14.999-24.837-.274z"/>
  <path stroke="#C4C4C4" stroke-width=".8" d="M82.5 577c-1.332 5.826-.994 8.59 0 14.5"/>
  <ellipse fill="#C4C4C4" rx="29.5" ry="36.5" transform="matrix(1 0 0 -1 50.5 581.5)"/>
  <path fill="#C4C4C4" d="M82 588h2v-8h-2z"/>
  <ellipse cx="108.702" cy="33.754" fill="#873B20" rx="23.5" ry="26.754"/>
  <ellipse cx="360.702" cy="33.754" fill="#873B20" rx="23.5" ry="26.754"/>
  <path fill="#873B20" d="M108.202 7.207h251.999v15.854H108.202zM252.414 657.077l18.172-624.763 113.184 3.232-18.172 624.763zM222.77 655.241 198.148 30.314 85.003 34.69l24.622 624.927z"/>
  <ellipse cx="120.702" cy="658.023" fill="#873B20" rx="10.5" ry="25.764"/>
  <ellipse fill="#873B20" rx="10.488" ry="40.09" transform="matrix(.93537 -.35368 .35937 .9332 130.396 695.031)"/>
  <path stroke="#873B20" d="M127.702 713.514c2.559 2.799 5.011 14.271 4.5 23.286m214.5-19.818c-2.035 3.401-3.785 9.16-4 17.341"/>
  <ellipse fill="#873B20" rx="10.486" ry="40.097" transform="matrix(-.92478 -.3805 -.38647 .9223 346.395 695.031)"/>
  <ellipse cx="354.702" cy="666.942" fill="#873B20" rx="10.5" ry="25.764"/>
  <path fill="#873B20" d="m131.244 711.36 211.61-2.523.29 23.927-211.609 2.522z"/>
  <path fill="#873B20" d="m342.672 719.459 2.608 1.468-2.47 4.308-2.608-1.468zM133.085 717.478l-2.883.82 1.38 4.763 2.883-.821zM129.202 14.927h218v698.587h-218z"/>
  <path fill="#959494" d="m391.988 590.214-22.342.266-.149-14.607 22.341-.267z"/>
  <ellipse cx="410.522" cy="580.5" fill="#959494" rx="27.789" ry="36.5" transform="rotate(180 410.522 580.5)"/>
  <path fill="#C4C4C4" d="m383.509 588.728-12.39.148-.152-15 12.389-.147z"/>
  <path stroke="#C4C4C4" stroke-width=".8" d="M383.196 574c1.234 5.826.922 8.59 0 14.5"/>
  <path stroke="#C4C4C4" stroke-width="1.5" d="M369.378 574c-1.32 5.826-1.107 9.09-.121 15"/>
  <ellipse cx="412.837" cy="578.5" fill="#C4C4C4" rx="27.326" ry="36.5" transform="rotate(180 412.837 578.5)"/>
  <path fill="#C4C4C4" d="M383.659 585h-1.853v-8h1.853zM371.171 589h-1.853v-15h1.853zM369.318 584h-.926v-8h.926z"/>
  <path fill="#959494" d="m394.595 501.214-22.341.266-.15-14.607 22.342-.266z"/>
  <ellipse cx="413.129" cy="491.5" fill="#959494" rx="27.789" ry="36.5" transform="rotate(180 413.129 491.5)"/>
  <path fill="#C4C4C4" d="m386.115 499.729-12.39.147-.153-14.999 12.39-.148z"/>
  <path stroke="#C4C4C4" stroke-width=".8" d="M385.803 485c1.235 5.826.922 8.59 0 14.5"/>
  <path stroke="#C4C4C4" stroke-width="1.5" d="M371.986 485c-1.321 5.826-1.108 9.09-.122 15"/>
  <ellipse cx="415.445" cy="489.5" fill="#C4C4C4" rx="27.326" ry="36.5" transform="rotate(180 415.445 489.5)"/>
  <path fill="#C4C4C4" d="M386.267 496h-1.853v-8h1.853zM373.778 500h-1.853v-15h1.853z"/>
  <path fill="#C4C4C4" d="M371.926 495H371v-8h.926z"/>
  <path fill="#959494" d="m396.597 409.214-22.341.266-.15-14.607 22.342-.266z"/>
  <ellipse cx="415.129" cy="399.5" fill="#959494" rx="27.789" ry="36.5" transform="rotate(180 415.129 399.5)"/>
  <path fill="#C4C4C4" d="m388.116 407.729-12.389.147-.153-14.999 12.389-.148z"/>
  <path stroke="#C4C4C4" stroke-width=".8" d="M387.803 393c1.235 5.826.922 8.59 0 14.5"/>
  <path stroke="#C4C4C4" stroke-width="1.5" d="M373.986 393c-1.321 5.826-1.108 9.09-.122 15"/>
  <ellipse cx="417.445" cy="397.5" fill="#C4C4C4" rx="27.326" ry="36.5" transform="rotate(180 417.445 397.5)"/>
  <path fill="#C4C4C4" d="M388.267 404h-1.853v-8h1.853zM375.778 408h-1.853v-15h1.853z"/>
  <path fill="#C4C4C4" d="M373.926 403H373v-8h.926z"/>
  <path fill="#959494" d="m399.597 321.212-22.342.267-.15-14.608 22.342-.266z"/>
  <ellipse cx="418.129" cy="311.5" fill="#959494" rx="27.789" ry="36.5" transform="rotate(180 418.129 311.5)"/>
  <path fill="#C4C4C4" d="m391.116 319.729-12.39.147-.153-14.999 12.39-.147z"/>
  <path stroke="#C4C4C4" stroke-width=".8" d="M390.803 305c1.235 5.826.922 8.59 0 14.5"/>
  <path stroke="#C4C4C4" stroke-width="1.5" d="M376.986 305c-1.321 5.826-1.108 9.09-.122 15"/>
  <ellipse cx="420.445" cy="309.5" fill="#C4C4C4" rx="27.326" ry="36.5" transform="rotate(180 420.445 309.5)"/>
  <path fill="#C4C4C4" d="M391.267 316h-1.853v-8h1.853zM378.778 320h-1.853v-15h1.853z"/>
  <path fill="#C4C4C4" d="M376.926 315H376v-8h.926z"/>
  <path fill="#959494" d="m402.598 229.212-22.341.267-.15-14.608 22.342-.266z"/>
  <ellipse cx="421.129" cy="219.5" fill="#959494" rx="27.789" ry="36.5" transform="rotate(180 421.129 219.5)"/>
  <path fill="#C4C4C4" d="m394.117 227.73-12.389.149-.153-15 12.389-.147z"/>
  <path stroke="#C4C4C4" stroke-width=".8" d="M393.803 213c1.235 5.826.922 8.59 0 14.5"/>
  <path stroke="#C4C4C4" stroke-width="1.5" d="M379.986 213c-1.321 5.826-1.108 9.09-.122 15"/>
  <ellipse cx="423.445" cy="217.5" fill="#C4C4C4" rx="27.326" ry="36.5" transform="rotate(180 423.445 217.5)"/>
  <path fill="#C4C4C4" d="M394.267 224h-1.853v-8h1.853zM381.778 228h-1.853v-15h1.853z"/>
  <path fill="#C4C4C4" d="M379.926 223H379v-8h.926z"/>
  <path fill="#959494" d="m405.597 148.212-22.341.267-.15-14.607 22.342-.267z"/>
  <ellipse cx="424.129" cy="138.5" fill="#959494" rx="27.789" ry="36.5" transform="rotate(180 424.129 138.5)"/>
  <path fill="#C4C4C4" d="m397.117 146.729-12.39.148-.153-15 12.39-.147z"/>
  <path stroke="#C4C4C4" stroke-width=".8" d="M396.803 132c1.235 5.826.922 8.59 0 14.5"/>
  <path stroke="#C4C4C4" stroke-width="1.5" d="M382.986 132c-1.321 5.826-1.108 9.09-.122 15"/>
  <ellipse cx="426.445" cy="136.5" fill="#C4C4C4" rx="27.326" ry="36.5" transform="rotate(180 426.445 136.5)"/>
  <path fill="#C4C4C4" d="M397.267 143h-1.853v-8h1.853zM384.778 147h-1.853v-15h1.853z"/>
  <path fill="#C4C4C4" d="M382.926 142H382v-8h.926z"/>
  <ellipse cx="104.702" cy="27" fill="#BA512D" rx="23.5" ry="27"/>
  <ellipse cx="356.702" cy="27" fill="#BA512D" rx="23.5" ry="27"/>
  <path fill="#BA512D" d="M104.202.209 356.201.002l.013 16-251.999.207zM248.418 656.045 266.58 25.547l113.184 3.26-18.162 630.498zM218.77 654.192l-24.625-630.66L81 27.948l24.625 630.66z"/>
  <ellipse cx="116.702" cy="657" fill="#BA512D" rx="10.5" ry="26"/>
  <ellipse cx="126.396" cy="694.347" fill="#BA512D" rx="10.5" ry="40.41" transform="rotate(-20.886 126.396 694.347)"/>
  <path stroke="#BA512D" d="M123.702 713c2.559 2.825 5.011 14.402 4.5 23.5m214.5-20c-2.035 3.432-3.785 9.244-4 17.5"/>
  <ellipse fill="#BA512D" rx="10.5" ry="40.41" transform="scale(-1 1) rotate(-22.549 1570.276 1205.926)"/>
  <ellipse cx="350.702" cy="666" fill="#BA512D" rx="10.5" ry="26"/>
  <path fill="#BA512D" d="m127.547 712.556 211.61-2.548.29 24.146-211.61 2.548z"/>
  <path fill="#BA512D" d="m338.672 719 2.608 1.482-2.47 4.347-2.608-1.482zM129.08 716.987l-2.883.828 1.38 4.806 2.884-.828zM125.202 8h218v705h-218z"/>
  <ellipse fill="#959494" rx="21.76" ry="24.48" transform="matrix(1 0 0 -1 128.68 125.2)"/>
  <ellipse fill="#C4C4C4" rx="21.76" ry="24.48" transform="matrix(1 0 0 -1 126.76 124.479)"/>
  <path fill="#959494" d="m122.23 129.301 3.624 1.345 3.272-11.155-3.624-1.345z"/>
  <ellipse fill="#959494" rx="5.222" ry="5.875" transform="matrix(1 0 0 -1 127.503 125.084)"/>
  <path fill="#AEADAD" stroke="#AEADAD" stroke-width=".3" d="M128.734 123.644c0-3.179-2.287-5.725-5.072-5.725s-5.073 2.546-5.073 5.725 2.288 5.726 5.073 5.726c2.785 0 5.072-2.547 5.072-5.726Z"/>
  <ellipse fill="#959494" rx="21.76" ry="24.48" transform="matrix(1 0 0 -1 131.68 216.2)"/>
  <ellipse fill="#C4C4C4" rx="21.76" ry="24.48" transform="matrix(1 0 0 -1 129.76 215.479)"/>
  <path fill="#959494" d="m125.23 220.301 3.624 1.345 3.272-11.155-3.624-1.345z"/>
  <ellipse fill="#959494" rx="5.222" ry="5.875" transform="matrix(1 0 0 -1 130.503 216.084)"/>
  <path fill="#AEADAD" stroke="#AEADAD" stroke-width=".3" d="M131.734 214.644c0-3.179-2.287-5.725-5.072-5.725s-5.073 2.546-5.073 5.725 2.288 5.726 5.073 5.726c2.785 0 5.072-2.547 5.072-5.726Z"/>
  <ellipse fill="#959494" rx="21.76" ry="24.48" transform="matrix(1 0 0 -1 135.68 305.2)"/>
  <ellipse fill="#C4C4C4" rx="21.76" ry="24.48" transform="matrix(1 0 0 -1 133.76 304.479)"/>
  <path fill="#959494" d="m129.23 309.301 3.624 1.345 3.272-11.155-3.624-1.345z"/>
  <ellipse fill="#959494" rx="5.222" ry="5.875" transform="matrix(1 0 0 -1 134.503 305.084)"/>
  <path fill="#AEADAD" stroke="#AEADAD" stroke-width=".3" d="M135.734 303.644c0-3.179-2.287-5.725-5.072-5.725s-5.073 2.546-5.073 5.725 2.288 5.726 5.073 5.726c2.785 0 5.072-2.547 5.072-5.726Z"/>
  <ellipse fill="#959494" rx="21.76" ry="24.48" transform="matrix(1 0 0 -1 140.68 395.2)"/>
  <ellipse fill="#C4C4C4" rx="21.76" ry="24.48" transform="matrix(1 0 0 -1 138.76 394.479)"/>
  <path fill="#959494" d="m134.23 399.301 3.624 1.345 3.272-11.155-3.624-1.345z"/>
  <ellipse fill="#959494" rx="5.222" ry="5.875" transform="matrix(1 0 0 -1 139.503 395.084)"/>
  <path fill="#AEADAD" stroke="#AEADAD" stroke-width=".3" d="M140.734 393.644c0-3.179-2.287-5.725-5.072-5.725s-5.073 2.546-5.073 5.725 2.288 5.726 5.073 5.726c2.785 0 5.072-2.547 5.072-5.726Z"/>
  <ellipse fill="#959494" rx="21.76" ry="24.48" transform="matrix(1 0 0 -1 146.68 486.2)"/>
  <ellipse fill="#C4C4C4" rx="21.76" ry="24.48" transform="matrix(1 0 0 -1 144.76 485.479)"/>
  <path fill="#959494" d="m140.23 490.301 3.624 1.345 3.272-11.155-3.624-1.345z"/>
  <ellipse fill="#959494" rx="5.222" ry="5.875" transform="matrix(1 0 0 -1 145.503 486.084)"/>
  <path fill="#AEADAD" stroke="#AEADAD" stroke-width=".3" d="M146.734 484.644c0-3.179-2.287-5.725-5.072-5.725s-5.073 2.546-5.073 5.725 2.288 5.726 5.073 5.726c2.785 0 5.072-2.547 5.072-5.726Z"/>
  <ellipse fill="#959494" rx="21.76" ry="24.48" transform="matrix(1 0 0 -1 151.68 575.2)"/>
  <ellipse fill="#C4C4C4" rx="21.76" ry="24.48" transform="matrix(1 0 0 -1 149.76 574.479)"/>
  <path fill="#959494" d="m145.23 579.301 3.624 1.345 3.272-11.155-3.624-1.345z"/>
  <ellipse fill="#959494" rx="5.222" ry="5.875" transform="matrix(1 0 0 -1 150.503 575.084)"/>
  <path fill="#AEADAD" stroke="#AEADAD" stroke-width=".3" d="M151.734 573.644c0-3.179-2.287-5.725-5.072-5.725s-5.073 2.546-5.073 5.725 2.288 5.726 5.073 5.726c2.785 0 5.072-2.547 5.072-5.726Z"/>
  <ellipse fill="#959494" rx="21.76" ry="24.48" transform="matrix(1 0 0 -1 336.68 125.2)"/>
  <ellipse fill="#C4C4C4" rx="21.76" ry="24.48" transform="matrix(1 0 0 -1 334.76 124.479)"/>
  <path fill="#959494" d="m330.23 129.301 3.624 1.345 3.272-11.155-3.624-1.345z"/>
  <ellipse fill="#959494" rx="5.222" ry="5.875" transform="matrix(1 0 0 -1 335.503 125.084)"/>
  <path fill="#AEADAD" stroke="#AEADAD" stroke-width=".3" d="M336.734 123.644c0-3.179-2.287-5.725-5.072-5.725s-5.073 2.546-5.073 5.725 2.288 5.726 5.073 5.726c2.785 0 5.072-2.547 5.072-5.726Z"/>
  <ellipse fill="#959494" rx="21.76" ry="24.48" transform="matrix(1 0 0 -1 331.68 211.2)"/>
  <ellipse fill="#C4C4C4" rx="21.76" ry="24.48" transform="matrix(1 0 0 -1 329.76 210.479)"/>
  <path fill="#959494" d="m325.23 215.301 3.624 1.345 3.272-11.155-3.624-1.345z"/>
  <ellipse fill="#959494" rx="5.222" ry="5.875" transform="matrix(1 0 0 -1 330.503 211.084)"/>
  <path fill="#AEADAD" stroke="#AEADAD" stroke-width=".3" d="M331.734 209.644c0-3.179-2.287-5.725-5.072-5.725s-5.073 2.546-5.073 5.725 2.288 5.726 5.073 5.726c2.785 0 5.072-2.547 5.072-5.726Z"/>
  <ellipse fill="#959494" rx="21.76" ry="24.48" transform="matrix(1 0 0 -1 328.68 303.2)"/>
  <ellipse fill="#C4C4C4" rx="21.76" ry="24.48" transform="matrix(1 0 0 -1 326.76 302.479)"/>
  <path fill="#959494" d="m322.23 307.301 3.624 1.345 3.272-11.155-3.624-1.345z"/>
  <ellipse fill="#959494" rx="5.222" ry="5.875" transform="matrix(1 0 0 -1 327.503 303.084)"/>
  <path fill="#AEADAD" stroke="#AEADAD" stroke-width=".3" d="M328.734 301.644c0-3.179-2.287-5.725-5.072-5.725s-5.073 2.546-5.073 5.725 2.288 5.726 5.073 5.726c2.785 0 5.072-2.547 5.072-5.726Z"/>
  <ellipse fill="#959494" rx="21.76" ry="24.48" transform="matrix(1 0 0 -1 323.68 391.2)"/>
  <ellipse fill="#C4C4C4" rx="21.76" ry="24.48" transform="matrix(1 0 0 -1 321.76 390.479)"/>
  <path fill="#959494" d="m317.23 395.301 3.624 1.345 3.272-11.155-3.624-1.345z"/>
  <ellipse fill="#959494" rx="5.222" ry="5.875" transform="matrix(1 0 0 -1 322.503 391.084)"/>
  <path fill="#AEADAD" stroke="#AEADAD" stroke-width=".3" d="M323.734 389.644c0-3.179-2.287-5.725-5.072-5.725s-5.073 2.546-5.073 5.725 2.288 5.726 5.073 5.726c2.785 0 5.072-2.547 5.072-5.726Z"/>
  <ellipse fill="#959494" rx="21.76" ry="24.48" transform="matrix(1 0 0 -1 321.68 481.2)"/>
  <ellipse fill="#C4C4C4" rx="21.76" ry="24.48" transform="matrix(1 0 0 -1 319.76 480.479)"/>
  <path fill="#959494" d="m315.23 485.301 3.624 1.345 3.272-11.155-3.624-1.345z"/>
  <ellipse fill="#959494" rx="5.222" ry="5.875" transform="matrix(1 0 0 -1 320.503 481.084)"/>
  <path fill="#AEADAD" stroke="#AEADAD" stroke-width=".3" d="M321.734 479.644c0-3.179-2.287-5.725-5.072-5.725s-5.073 2.546-5.073 5.725 2.288 5.726 5.073 5.726c2.785 0 5.072-2.547 5.072-5.726Z"/>
  <ellipse fill="#959494" rx="21.76" ry="24.48" transform="matrix(1 0 0 -1 317.68 570.2)"/>
  <ellipse fill="#C4C4C4" rx="21.76" ry="24.48" transform="matrix(1 0 0 -1 315.76 569.479)"/>
  <path fill="#959494" d="m311.23 574.301 3.624 1.345 3.272-11.155-3.624-1.345z"/>
  <ellipse fill="#959494" rx="5.222" ry="5.875" transform="matrix(1 0 0 -1 316.503 570.084)"/>
  <path fill="#AEADAD" stroke="#AEADAD" stroke-width=".3" d="M317.734 568.644c0-3.179-2.287-5.725-5.072-5.725s-5.073 2.546-5.073 5.725 2.288 5.726 5.073 5.726c2.785 0 5.072-2.547 5.072-5.726Z"/>
  <path fill="url(#a)" d="M134 12h198.996v74.955H134z"/>
  <path fill="#864925" d="M369.927 2605.8c0 13.81-59.517 25-132.934 25s-132.933-11.19-132.933-25 59.516-25 132.933-25 132.934 11.19 132.934 25Z"/>
  <path fill="#FFF2DB" d="m128.64 733.504 211.834-1.556.135 17.86-211.833 1.557z"/>
  <path fill="#864925" d="M129.836 2612.33V747.92h210.462v1864.41z"/>
  <path fill="#864925" d="m340.326 748.439 30.029 1857.271h-60.057l30.028-1857.271ZM129.835 747.802 103.997 2605.55h51.677L129.835 747.802Z"/>
  <path fill="url(#b)" d="M128 898h215v9H128z"/>
  <path fill="url(#c)" d="M126 1034h219v9H126z"/>
  <path fill="url(#d)" d="M124 1165h223v9H124z"/>
  <path fill="url(#e)" d="M122 1289h227v9H122z"/>
  <path fill="url(#f)" d="M121 1404h230v9H121z"/>
  <path fill="url(#g)" d="M119 1515h234v9H119z"/>
  <path fill="url(#h)" d="M118 1619h236v9H118z"/>
  <path fill="url(#i)" d="M116 1717h240v9H116z"/>
  <path fill="url(#j)" d="M115 1809h242v9H115z"/>
  <path fill="url(#k)" d="M114 1896h245v9H114z"/>
  <path fill="url(#l)" d="M113 1980h247v9H113z"/>
  <path fill="url(#m)" d="M112 2059h249v9H112z"/>
  <path fill="url(#n)" d="M111 2134h252v9H111z"/>
  <path fill="url(#o)" d="M110 2202h254v9H110z"/>
  <path fill="url(#p)" d="M109 2268h256v9H109z"/>
  <path fill="url(#q)" d="M108 2331h258v9H108z"/>
  <path fill="url(#r)" d="M107 2390h260v9H107z"/>
  <path fill="url(#s)" d="M106 2447h262v9H106z"/>
  <path fill="url(#t)" d="M105 2499h264v9H105z"/>
  <path fill="url(#u)" d="M105 2549h264v9H105z"/>
  <circle cx="239.5" cy="2364.5" r="10.5" fill="#FFFFFE"/>
  <circle cx="239.5" cy="2241.5" r="10.5" fill="#FFFFFE"/>
  <circle cx="239.5" cy="1773.5" r="12.5" fill="#FFFFFE"/>
  <circle cx="241" cy="1355" r="14" fill="#FFFFFE"/>
  <circle cx="308.5" cy="1573.5" r="12.5" fill="#FFFFFE"/>
  <circle cx="168.5" cy="1573.5" r="12.5" fill="#FFFFFE"/>
  <circle cx="302.5" cy="2026.5" r="10.5" fill="#FFFFFE"/>
  <circle cx="169.5" cy="2026.5" r="10.5" fill="#FFFFFE"/>
  <path fill="#393737" d="m314.205 574.998-2-.002-.13 157.221 2 .002z" opacity=".5"/>
  <path fill="#393737" d="m314.608 574.84-1.997.11 8.665 157.352 1.997-.11zM324.862 211.453l-2.98-.352-61.538 521.421 2.979.352zM330.06 128.383l-1.985-.245-74.639 604.92 1.985.246zM322.914 305.068l-1.991-.186-39.895 427.782 1.991.186zM318.726 393.83l-2.99-.239-26.995 338.83 2.991.238z" opacity=".5"/>
  <path fill="#393737" d="m137.002 304.492 2.978-.364 52.359 428.596-2.978.364z" opacity=".6"/>
  <path fill="#393737" d="m129.968 123.771 2.963-.468L229.007 732.1l-2.964.468zM142.282 392.402l1.987-.223 38.28 340.74-1.987.223zM133.16 215.881l1.976-.312 81.624 517.052-1.975.312zM152.733 576.081l2.999-.089 4.664 157.338-2.999.089z" opacity=".5"/>
  <path fill="#393737" d="m152.152 575.95 3 .07-3.635 157.697-2.999-.069z" opacity=".5"/>
  <path fill="#DE8D65" d="m152.458 575.922 2.995.165-8.673 157.501-2.995-.165zM311.608 574.84l-1.997.11 8.665 157.352 1.997-.11z"/>
  <path fill="#DE8D65" d="m153.072 575.998 3-.002.13 157.406-3 .003zM311.205 574.998l-2-.002-.13 157.221 2 .002z"/>
  <path fill="#DE8D65" d="m148.1 485.181 2.996-.147 4.472 91.2-2.996.147zM317.564 485.174l-2.997-.147-3.845 78.423 2.997.147zM142.197 392.187l1.99-.2 34.442 341.149-1.99.2zM318.55 394.02l-2.987-.27-30.611 338.522 2.987.27zM136.931 304.252l2.981-.337 48.497 429.05-2.98.337zM323.031 305.298l-1.99-.205-44.118 427.367 1.99.205zM132.889 214.607l1.978-.299 78.32 518.544-1.977.299zM324.758 211.683l-2.976-.373-65.36 520.956 2.977.373zM130.326 123.396l2.967-.445 91.355 609.522-2.967.445zM331.04 128.777l-1.982-.264-80.622 604.152 1.982.265z"/>
  <path fill="#393737" d="m148.172 747.884 3 .04-24.545 1874.989-3-.04zM157.543 747.987l3 .04L136 2622.875l-3-.04zM189.346 747.936l3 .026-16.363 1874.989-3-.026zM226 748h3v1875h-3zM261.141 748.114l3-.026 16.32 1873.839-3 .026zM289.256 747.876l3-.042 26.168 1874.027-3 .042zM180.346 748.036l2 .017-16.362 1874.9-2-.018zM215 748h2v1875h-2zM253.131 748.112l2-.017 16.329 1874.828-2 .018zM281.258 748.015l2-.028 26.166 1873.877-2 .028zM312.016 748.078l2-.035 32.706 1873.765-2 .035zM322.015 748.02l2-.035 32.707 1873.825-2 .035z" opacity=".5"/>
  <defs>
    <linearGradient id="b" x1="235.5" x2="235.5" y1="898" y2="907" gradientUnits="userSpaceOnUse">
      <stop stop-color="#EBE9E9"/>
      <stop offset=".631" stop-color="#908F8F"/>
    </linearGradient>
    <linearGradient id="c" x1="235.5" x2="235.5" y1="1034" y2="1043" gradientUnits="userSpaceOnUse">
      <stop stop-color="#EBE9E9"/>
      <stop offset=".631" stop-color="#908F8F"/>
    </linearGradient>
    <linearGradient id="d" x1="235.5" x2="235.5" y1="1165" y2="1174" gradientUnits="userSpaceOnUse">
      <stop stop-color="#EBE9E9"/>
      <stop offset=".631" stop-color="#908F8F"/>
    </linearGradient>
    <linearGradient id="e" x1="235.5" x2="235.5" y1="1289" y2="1298" gradientUnits="userSpaceOnUse">
      <stop stop-color="#EBE9E9"/>
      <stop offset=".631" stop-color="#908F8F"/>
    </linearGradient>
    <linearGradient id="f" x1="236" x2="236" y1="1404" y2="1413" gradientUnits="userSpaceOnUse">
      <stop stop-color="#EBE9E9"/>
      <stop offset=".631" stop-color="#908F8F"/>
    </linearGradient>
    <linearGradient id="g" x1="236" x2="236" y1="1515" y2="1524" gradientUnits="userSpaceOnUse">
      <stop stop-color="#EBE9E9"/>
      <stop offset=".631" stop-color="#908F8F"/>
    </linearGradient>
    <linearGradient id="h" x1="236" x2="236" y1="1619" y2="1628" gradientUnits="userSpaceOnUse">
      <stop stop-color="#EBE9E9"/>
      <stop offset=".631" stop-color="#908F8F"/>
    </linearGradient>
    <linearGradient id="i" x1="236" x2="236" y1="1717" y2="1726" gradientUnits="userSpaceOnUse">
      <stop stop-color="#EBE9E9"/>
      <stop offset=".631" stop-color="#908F8F"/>
    </linearGradient>
    <linearGradient id="j" x1="236" x2="236" y1="1809" y2="1818" gradientUnits="userSpaceOnUse">
      <stop stop-color="#EBE9E9"/>
      <stop offset=".631" stop-color="#908F8F"/>
    </linearGradient>
    <linearGradient id="k" x1="236.5" x2="236.5" y1="1896" y2="1905" gradientUnits="userSpaceOnUse">
      <stop stop-color="#EBE9E9"/>
      <stop offset=".631" stop-color="#908F8F"/>
    </linearGradient>
    <linearGradient id="l" x1="236.5" x2="236.5" y1="1980" y2="1989" gradientUnits="userSpaceOnUse">
      <stop stop-color="#EBE9E9"/>
      <stop offset=".631" stop-color="#908F8F"/>
    </linearGradient>
    <linearGradient id="m" x1="236.5" x2="236.5" y1="2059" y2="2068" gradientUnits="userSpaceOnUse">
      <stop stop-color="#EBE9E9"/>
      <stop offset=".631" stop-color="#908F8F"/>
    </linearGradient>
    <linearGradient id="n" x1="237" x2="237" y1="2134" y2="2143" gradientUnits="userSpaceOnUse">
      <stop stop-color="#EBE9E9"/>
      <stop offset=".631" stop-color="#908F8F"/>
    </linearGradient>
    <linearGradient id="o" x1="237" x2="237" y1="2202" y2="2211" gradientUnits="userSpaceOnUse">
      <stop stop-color="#EBE9E9"/>
      <stop offset=".631" stop-color="#908F8F"/>
    </linearGradient>
    <linearGradient id="p" x1="237" x2="237" y1="2268" y2="2277" gradientUnits="userSpaceOnUse">
      <stop stop-color="#EBE9E9"/>
      <stop offset=".631" stop-color="#908F8F"/>
    </linearGradient>
    <linearGradient id="q" x1="237" x2="237" y1="2331" y2="2340" gradientUnits="userSpaceOnUse">
      <stop stop-color="#EBE9E9"/>
      <stop offset=".631" stop-color="#908F8F"/>
    </linearGradient>
    <linearGradient id="r" x1="237" x2="237" y1="2390" y2="2399" gradientUnits="userSpaceOnUse">
      <stop stop-color="#EBE9E9"/>
      <stop offset=".631" stop-color="#908F8F"/>
    </linearGradient>
    <linearGradient id="s" x1="237" x2="237" y1="2447" y2="2456" gradientUnits="userSpaceOnUse">
      <stop stop-color="#EBE9E9"/>
      <stop offset=".631" stop-color="#908F8F"/>
    </linearGradient>
    <linearGradient id="t" x1="237" x2="237" y1="2499" y2="2508" gradientUnits="userSpaceOnUse">
      <stop stop-color="#EBE9E9"/>
      <stop offset=".631" stop-color="#908F8F"/>
    </linearGradient>
    <linearGradient id="u" x1="237" x2="237" y1="2549" y2="2558" gradientUnits="userSpaceOnUse">
      <stop stop-color="#EBE9E9"/>
      <stop offset=".631" stop-color="#908F8F"/>
    </linearGradient>
    <pattern id="a" width="1" height="1" patternContentUnits="objectBoundingBox">
      <use xlink:href="#v" transform="scale(.00333 .00885)"/>
    </pattern>
  </defs>
</svg>
