<svg xmlns="http://www.w3.org/2000/svg" xmlns:xlink="http://www.w3.org/1999/xlink" width="1512" height="864" fill="none" viewBox="0 0 1512 864">
  <g clip-path="url(#a)">
    <path fill="#FFF8F3" d="M0 0h1512v864H0z"/>
    <path fill="#FD5D5D" d="M1057 463c0 828.43-671.573 1500-1500 1500-828.43 0-1500-671.57-1500-1500 0-828.427 671.57-1500 1500-1500 828.427 0 1500 671.573 1500 1500Z" opacity=".1"/>
    <ellipse fill="#959494" rx="23.364" ry="39.887" transform="matrix(.97039 .24154 -.19298 .9812 1249.91 -31.539)"/>
    <ellipse fill="#C4C4C4" rx="23.364" ry="39.887" transform="matrix(.97039 .24154 -.19298 .9812 1246.77 -31.539)"/>
    <ellipse fill="#959494" rx="23.364" ry="39.887" transform="matrix(.97039 .24154 -.19298 .9812 1194.87 172.221)"/>
    <ellipse fill="#C4C4C4" rx="23.364" ry="39.887" transform="matrix(.97039 .24154 -.19298 .9812 1191.73 172.221)"/>
    <path fill="#959494" d="m1216.66 176.4 25.828 10.29-4.741 15.06-25.828-10.29z"/>
    <path fill="#C4C4C4" d="m1216.73 178.375 24.484 9.754-4.741 15.06-24.484-9.754z"/>
    <ellipse fill="#C4C4C4" rx=".65" ry="7.892" transform="matrix(.9279 .3728 -.30257 .95313 1214.35 185.907)"/>
    <ellipse fill="#959494" rx="23.364" ry="39.887" transform="matrix(.97039 .24154 -.19298 .9812 1166.71 285.261)"/>
    <ellipse fill="#C4C4C4" rx="23.364" ry="39.887" transform="matrix(.97039 .24154 -.19298 .9812 1163.57 285.261)"/>
    <path fill="#959494" d="m1188.5 289.44 25.828 10.29-4.741 15.06-25.828-10.29z"/>
    <path fill="#C4C4C4" d="m1188.57 291.416 24.484 9.754-4.741 15.06-24.484-9.754z"/>
    <ellipse fill="#C4C4C4" rx=".65" ry="7.892" transform="matrix(.9279 .3728 -.30257 .95313 1186.19 298.947)"/>
    <ellipse fill="#959494" rx="23.364" ry="39.887" transform="matrix(.97039 .24154 -.19298 .9812 1141.11 386.061)"/>
    <ellipse fill="#C4C4C4" rx="23.364" ry="39.887" transform="matrix(.97039 .24154 -.19298 .9812 1137.97 386.061)"/>
    <path fill="#959494" d="m1162.9 390.24 25.828 10.29-4.741 15.06-25.828-10.29z"/>
    <path fill="#C4C4C4" d="m1162.97 392.216 24.484 9.754-4.741 15.06-24.484-9.754z"/>
    <ellipse fill="#C4C4C4" rx=".65" ry="7.892" transform="matrix(.9279 .3728 -.30257 .95313 1160.59 399.747)"/>
    <ellipse fill="#959494" rx="23.364" ry="39.887" transform="matrix(.97039 .24154 -.19298 .9812 1115.51 486.861)"/>
    <ellipse fill="#C4C4C4" rx="23.364" ry="39.887" transform="matrix(.97039 .24154 -.19298 .9812 1112.37 486.861)"/>
    <path fill="#959494" d="m1137.3 491.04 25.828 10.29-4.741 15.06-25.828-10.29z"/>
    <path fill="#C4C4C4" d="m1137.37 493.016 24.484 9.754-4.741 15.06-24.484-9.754z"/>
    <ellipse fill="#C4C4C4" rx=".65" ry="7.892" transform="matrix(.9279 .3728 -.30257 .95313 1135 500.547)"/>
    <ellipse fill="#959494" rx="23.364" ry="39.887" transform="matrix(.97039 .24154 -.19298 .9812 1221.75 72.14)"/>
    <ellipse fill="#C4C4C4" rx="23.364" ry="39.887" transform="matrix(.97039 .24154 -.19298 .9812 1218.61 72.14)"/>
    <path fill="#959494" d="m1243.54 76.32 25.828 10.29-4.741 15.06-25.828-10.29z"/>
    <path fill="#C4C4C4" d="m1243.6 78.296 24.484 9.754-4.741 15.06-24.484-9.754z"/>
    <ellipse fill="#C4C4C4" rx=".65" ry="7.892" transform="matrix(.9279 .3728 -.30257 .95313 1241.23 85.827)"/>
    <ellipse cx="1396.56" cy="25.834" fill="#CE8F53" rx="102.72" ry="123.754"/>
    <ellipse cx="1176.08" cy="607.765" fill="#CE8F53" rx="37.76" ry="36.84"/>
    <path fill="#CE8F53" d="m1297.24-5.72 34.22 11.16-157.885 604.843-34.219-11.16z"/>
    <path stroke="#CE8F53" stroke-width="10" d="M1417.12 143.866c-16.92 21.237-4.56 119.104 13.36 177.405M1454.48 515.486c4.48-53.651-4.8-130.192-24-194.573"/>
    <path stroke="#CE8F53" stroke-width="10" d="M1357.2 676.08c0-72.407 28.99-126.239 99.2-162.74M1164.56 639.24c17.6 9.658 29.44 18.956 32 34.694M1357.81 672.508l-164.13-1.435"/>
    <path fill="#CE8F53" d="m1316 60.947 108.661 35.447-150.63 576.88-108.66-35.447z"/>
    <path fill="#CE8F53" d="M1363.09 321.799 1434.214 345l-85.502 327.455-71.124-23.202z"/>
    <path fill="#CE8F53" d="M1197.2 637.452h160v31.475h-160zM1366.54 520.924l-8.371-115.11 88.94-8.08 8.37 115.11z"/>
    <path fill="#CE8F53" d="m1340.55 576.124 65.52-89.302 27.036 24.782-65.52 89.302z"/>
    <path fill="#CE8F53" d="m1345.68 542.25 87.48-61.459 18.607 33.089-87.48 61.459zM1378.91 421.332l-52.063-190.862 70.644-24.075 52.063 190.863z"/>
    <path fill="#CE8F53" d="m1382.57 277.596-7.452-125.787 33.042-2.446 7.453 125.787zM1203.16 673.018l-44.996-47.805 19.4-22.813 44.997 47.805z"/>
    <ellipse cx="1391.44" cy="17.366" fill="#FEB978" rx="102.72" ry="125.366"/>
    <ellipse cx="1170.96" cy="606.875" fill="#FEB978" rx="37.76" ry="37.32"/>
    <path fill="#FEB978" d="m1292.12-14.599 34.22 11.304-157.887 612.722-34.22-11.304z"/>
    <path stroke="#FEB978" stroke-width="10" d="M1412 136.934c-16.92 21.514-4.56 120.656 13.36 179.716M1449.36 513.395c4.48-54.35-4.8-131.888-24-197.107"/>
    <path stroke="#FEB978" stroke-width="10" d="M1352.08 676.08c0-73.35 28.99-127.884 99.2-164.86M1159.44 638.761c17.6 9.783 29.44 19.203 32 35.145M1352.69 672.461l-164.13-1.454"/>
    <path fill="#FEB978" d="m1310.88 52.936 108.66 35.908-150.631 584.392-108.66-35.908z"/>
    <path fill="#FEB978" d="m1357.97 317.185 71.123 23.503-85.503 331.72-71.123-23.504z"/>
    <path fill="#FEB978" d="M1192.08 636.948h160v31.885h-160zM1361.42 518.903l-8.37-116.609 88.94-8.185 8.37 116.608z"/>
    <path fill="#FEB978" d="m1335.43 574.822 65.52-90.465 27.036 25.105-65.52 90.465z"/>
    <path fill="#FEB978" d="m1340.56 540.507 87.48-62.258 18.607 33.52-87.48 62.258zM1373.79 418.014l-52.063-193.347 70.644-24.387 52.063 193.346z"/>
    <path fill="#FEB978" d="m1377.45 272.406-7.452-127.426 33.042-2.478 7.452 127.426zM1198.04 672.979l-44.996-48.428 19.401-23.11 44.996 48.428z"/>
    <path fill="#864925" d="M1189.8 2778.03V674.78h168.982v2103.25z"/>
    <path fill="#864925" d="m1358.8 675.36 24.11 2095.2h-48.22l24.11-2095.2ZM1189.8 674.64l-20.75 2095.74h41.49L1189.8 674.64Z"/>
    <ellipse cx="1307.92" cy="112.32" fill="#959494" rx="21.76" ry="24.48"/>
    <ellipse cx="1306" cy="113.04" fill="#C4C4C4" rx="21.76" ry="24.48"/>
    <path fill="#959494" d="m1301.47 108.219 3.624-1.345 3.272 11.155-3.624 1.345z"/>
    <ellipse cx="1306.74" cy="112.435" fill="#959494" rx="5.222" ry="5.875"/>
    <path fill="#AEADAD" stroke="#AEADAD" stroke-width=".3" d="M1307.97 113.875c0 3.179-2.28 5.725-5.07 5.725-2.78 0-5.07-2.546-5.07-5.725s2.29-5.725 5.07-5.725c2.79 0 5.07 2.546 5.07 5.725Z"/>
    <ellipse cx="1288.08" cy="213.84" fill="#959494" rx="21.76" ry="24.48"/>
    <ellipse cx="1286.16" cy="214.56" fill="#C4C4C4" rx="21.76" ry="24.48"/>
    <path fill="#959494" d="m1281.63 209.739 3.624-1.345 3.272 11.155-3.624 1.345z"/>
    <ellipse cx="1286.9" cy="213.955" fill="#959494" rx="5.222" ry="5.875"/>
    <path fill="#AEADAD" stroke="#AEADAD" stroke-width=".3" d="M1288.13 215.395c0 3.179-2.28 5.725-5.07 5.725-2.78 0-5.07-2.546-5.07-5.725s2.29-5.725 5.07-5.725c2.79 0 5.07 2.546 5.07 5.725Z"/>
    <ellipse cx="1249.68" cy="326.16" fill="#959494" rx="21.76" ry="24.48"/>
    <ellipse cx="1247.76" cy="326.88" fill="#C4C4C4" rx="21.76" ry="24.48"/>
    <path fill="#959494" d="m1243.23 322.059 3.624-1.345 3.272 11.155-3.624 1.345z"/>
    <ellipse cx="1248.5" cy="326.275" fill="#959494" rx="5.222" ry="5.875"/>
    <path fill="#AEADAD" stroke="#AEADAD" stroke-width=".3" d="M1249.73 327.715c0 3.179-2.28 5.725-5.07 5.725-2.78 0-5.07-2.546-5.07-5.725s2.29-5.725 5.07-5.725c2.79 0 5.07 2.546 5.07 5.725Z"/>
    <ellipse cx="1226" cy="424.08" fill="#959494" rx="21.76" ry="24.48"/>
    <ellipse cx="1224.08" cy="424.8" fill="#C4C4C4" rx="21.76" ry="24.48"/>
    <path fill="#959494" d="m1219.55 419.979 3.624-1.345 3.272 11.155-3.624 1.345z"/>
    <ellipse cx="1224.82" cy="424.195" fill="#959494" rx="5.222" ry="5.875"/>
    <path fill="#AEADAD" stroke="#AEADAD" stroke-width=".3" d="M1226.06 425.635c0 3.179-2.29 5.725-5.08 5.725-2.78 0-5.07-2.546-5.07-5.725s2.29-5.725 5.07-5.725c2.79 0 5.08 2.546 5.08 5.725Z"/>
    <path fill="#959494" d="M1362.32 6.48c0 13.52-9.74 24.48-21.76 24.48-12.02 0-21.76-10.96-21.76-24.48S1328.54-18 1340.56-18c12.02 0 21.76 10.96 21.76 24.48Z"/>
    <ellipse cx="1339.28" cy="7.2" fill="#C4C4C4" rx="21.76" ry="24.48"/>
    <path fill="#959494" d="m1335.39 2.379 3.624-1.345 3.272 11.155-3.624 1.345z"/>
    <ellipse cx="1340.66" cy="6.595" fill="#959494" rx="5.222" ry="5.875"/>
    <path fill="#AEADAD" stroke="#AEADAD" stroke-width=".3" d="M1341.89 8.035c0 3.18-2.28 5.725-5.07 5.725-2.78 0-5.07-2.546-5.07-5.725s2.29-5.725 5.07-5.725c2.79 0 5.07 2.546 5.07 5.725Z"/>
    <path fill="#FFF2DB" d="M1189.52 702.72h169.6v15.12h-169.6z"/>
    <ellipse cx="1201.04" cy="525.6" fill="#959494" rx="21.76" ry="24.48"/>
    <ellipse cx="1199.12" cy="526.32" fill="#C4C4C4" rx="21.76" ry="24.48"/>
    <path fill="#959494" d="m1194.59 521.499 3.624-1.345 3.272 11.155-3.624 1.345z"/>
    <ellipse cx="1199.86" cy="525.716" fill="#959494" rx="5.222" ry="5.875"/>
    <path fill="#AEADAD" stroke="#AEADAD" stroke-width=".3" d="M1201.09 527.155c0 3.18-2.28 5.726-5.07 5.726-2.78 0-5.07-2.546-5.07-5.726 0-3.179 2.29-5.725 5.07-5.725 2.79 0 5.07 2.546 5.07 5.725Z"/>
    <path stroke="#545252" stroke-width="5" d="M1202.96 525.959c5.44 108.36 11.2 131.76.96 148.678m105.6-563.757c13.44 528.84 15.36 538.561 3.52 563.76m-22.72-460.8c9.6 424.44 11.84 435.601 0 460.8m53.44-668.16c10.88 633.601 17.28 642.958 5.44 668.157m-97.28-349.921c6.72 320.762 11.84 324.722 0 349.921m-24-250.198c7.04 217.44 11.2 224.999-.64 250.198" opacity=".6"/>
    <path fill="#393737" d="M1254.16 717.84h3.2v2077.2h-3.2zM1292.56 717.84h3.2v2076.48h-3.2zM1318.47 719.44l3.2-.025 12.917 2072.942-3.2.025zM1232.45 717.854l-3.2-.025-12.851 2072.778 3.2.026zM1350.501 717.484l3.2-.032 15.956 2063.623-3.2.031zM1208.09 718.034l-3.2-.031-15.996 2066.598 3.2.031z" opacity=".6"/>
    <path fill="url(#b)" d="M0 0h206.996v70.659H0z" transform="matrix(-.1151 -.99335 .98942 -.1451 1382.95 521.153)"/>
    <path fill="#000" d="M1417.08 288.383c.16 1.394.09 2.768-.21 4.12-.3 1.334-.78 2.403-1.43 3.206l-1.61-.558c.6-.777 1.05-1.76 1.35-2.949.28-1.186.35-2.378.21-3.576-.19-1.681-.64-2.898-1.34-3.651-.72-.75-1.57-1.055-2.55-.913-.75.108-1.32.427-1.71.956a4.525 4.525 0 0 0-.82 1.811c-.18.697-.34 1.657-.49 2.878-.19 1.465-.4 2.64-.63 3.527a6.12 6.12 0 0 1-1.27 2.393c-.61.689-1.5 1.116-2.65 1.284-.95.136-1.83.01-2.66-.38-.84-.388-1.55-1.066-2.13-2.037-.58-.97-.96-2.224-1.14-3.762-.12-1.073-.09-2.141.1-3.204.17-1.079.47-2.031.9-2.857l1.65.443a9.272 9.272 0 0 0-.86 2.688c-.17.932-.2 1.828-.1 2.686.19 1.646.65 2.842 1.39 3.59.71.732 1.57 1.027 2.57.882.75-.108 1.33-.419 1.74-.933.39-.53.67-1.152.85-1.868.15-.731.3-1.698.45-2.902.18-1.426.39-2.583.64-3.473.22-.905.64-1.701 1.24-2.389.6-.686 1.46-1.111 2.6-1.276a4.544 4.544 0 0 1 2.68.403c.83.39 1.53 1.079 2.11 2.067.57.991.94 2.256 1.12 3.794Zm-18.84-12.232.75 6.599-1.71.247-1.73-15.183 1.71-.247.75 6.599 17-2.458.22 1.985-16.99 2.458Zm14.19-27.036-5.53 5.162c.11.475.2.972.26 1.49l.57 5.043 5.93-.858.23 1.985-18.7 2.706-.81-7.028c-.27-2.397.08-4.357 1.07-5.881.98-1.524 2.47-2.431 4.47-2.719 1.46-.211 2.74-.015 3.84.589 1.08.589 1.93 1.54 2.53 2.853l5.89-5.515.25 2.173Zm-6.95 6.949c-.21-1.86-.79-3.222-1.72-4.087-.93-.865-2.14-1.191-3.61-.977-1.52.219-2.62.878-3.31 1.978-.71 1.102-.95 2.583-.74 4.443l.57 4.989 9.38-1.356-.57-4.99Zm-.15-24.566 1.2 10.462 5.25 1.531.24 2.065-19.69-5.878-.22-1.959 17.72-11.289.24 2.092-4.74 2.976Zm-1.52.956-9.53 5.96 10.56 3.054-1.03-9.014Zm-11.64-9.378.76 6.599-1.71.248-1.74-15.183 1.71-.248.76 6.599 16.99-2.458.23 1.985-17 2.458Zm14.91-22.183c.21 1.86-.01 3.609-.65 5.248-.67 1.623-1.67 2.968-3.02 4.036-1.34 1.049-2.92 1.704-4.72 1.964-1.8.26-3.46.074-5-.558a8.798 8.798 0 0 1-3.8-3.05c-1.01-1.399-1.62-3.028-1.84-4.888-.21-1.86.01-3.591.66-5.194a9.572 9.572 0 0 1 3.01-4.036c1.35-1.067 2.92-1.731 4.72-1.991 1.8-.26 3.48-.067 5.04.58 1.54.65 2.8 1.667 3.8 3.051.99 1.365 1.59 2.978 1.8 4.838Zm-1.77.255c-.16-1.484-.65-2.778-1.44-3.881a7.181 7.181 0 0 0-3.1-2.414c-1.28-.507-2.64-.655-4.1-.444-1.46.211-2.74.742-3.84 1.592a7.485 7.485 0 0 0-2.46 3.218c-.54 1.296-.72 2.686-.55 4.171.17 1.484.66 2.785 1.47 3.904a7.142 7.142 0 0 0 3.11 2.441c1.25.51 2.61.659 4.07.447 1.46-.211 2.75-.743 3.86-1.595a7.968 7.968 0 0 0 2.46-3.245c.52-1.312.69-2.709.52-4.194Zm-.8-22.704c.22 1.86 0 3.6-.65 5.221a9.696 9.696 0 0 1-2.99 4.005c-1.37 1.052-2.95 1.708-4.75 1.968-1.8.26-3.47.074-5.01-.558a8.772 8.772 0 0 1-3.82-3.046c-.99-1.384-1.59-3.005-1.81-4.865-.16-1.395-.07-2.716.26-3.964a8.498 8.498 0 0 1 1.68-3.298l1.4 1.079c-1.31 1.681-1.83 3.639-1.58 5.874.17 1.484.66 2.786 1.48 3.904.82 1.118 1.85 1.941 3.11 2.468 1.25.51 2.61.659 4.07.448 1.46-.212 2.74-.742 3.84-1.592a7.997 7.997 0 0 0 2.45-3.272c.54-1.314.72-2.713.55-4.198-.26-2.253-1.22-3.996-2.88-5.228l1.11-1.442c.99.694 1.79 1.605 2.41 2.733.6 1.114.97 2.368 1.13 3.763Zm-7.72-21.685 1.2 10.462 5.25 1.531.24 2.065-19.69-5.879-.22-1.958 17.72-11.289.24 2.092-4.74 2.976Zm-1.52.956-9.53 5.96 10.56 3.054-1.03-9.014Zm5.24-14.331c.16 1.395.09 2.768-.21 4.12-.3 1.334-.78 2.403-1.43 3.206l-1.61-.557c.6-.778 1.05-1.761 1.35-2.949.28-1.186.35-2.378.21-3.577-.19-1.681-.64-2.898-1.34-3.651-.72-.75-1.57-1.054-2.55-.913-.74.109-1.32.427-1.71.957a4.52 4.52 0 0 0-.82 1.81c-.18.698-.34 1.657-.49 2.879-.19 1.464-.4 2.64-.63 3.527a6.135 6.135 0 0 1-1.27 2.393c-.61.688-1.5 1.116-2.65 1.283-.95.137-1.83.01-2.66-.38-.84-.387-1.55-1.066-2.13-2.036-.58-.971-.96-2.225-1.14-3.763-.12-1.073-.09-2.141.1-3.204.17-1.079.47-2.031.9-2.857l1.65.443a9.291 9.291 0 0 0-.86 2.688 9.07 9.07 0 0 0-.1 2.687c.19 1.645.65 2.842 1.39 3.589.71.733 1.57 1.027 2.57.883.75-.109 1.33-.42 1.74-.934.39-.529.67-1.152.85-1.867.15-.731.3-1.699.45-2.902.18-1.426.39-2.584.64-3.474a5.61 5.61 0 0 1 1.24-2.389c.6-.685 1.46-1.111 2.6-1.275a4.528 4.528 0 0 1 2.68.403c.83.39 1.53 1.079 2.11 2.067.57.991.94 2.255 1.12 3.793Zm-18.84-12.232.75 6.599-1.71.248-1.73-15.184 1.71-.247.75 6.599 17-2.458.22 1.985-16.99 2.458Zm12.42-27.244 1.71-.248 1.52 13.279-18.7 2.705-1.48-12.876 1.72-.247 1.24 10.891 6.65-.963-1.11-9.71 1.69-.244 1.11 9.711 6.94-1.005-1.29-11.293Zm-.28-17.737-5.53 5.162c.11.475.2.972.26 1.49l.57 5.044 5.93-.858.23 1.985-18.7 2.705-.81-7.028c-.27-2.396.08-4.357 1.07-5.88.98-1.525 2.47-2.43 4.47-2.72 1.46-.21 2.74-.014 3.84.59 1.08.589 1.93 1.54 2.53 2.852l5.89-5.514.25 2.172Zm-6.95 6.95c-.21-1.86-.79-3.222-1.72-4.088-.93-.865-2.14-1.19-3.61-.976-1.52.219-2.62.878-3.31 1.977-.71 1.102-.95 2.584-.74 4.443l.57 4.99 9.38-1.357-.57-4.99Z"/>
  </g>
  <defs>
    <clipPath id="a">
      <path fill="#fff" d="M0 0h1512v864H0z"/>
    </clipPath>
    <pattern id="b" width="1" height="1" patternContentUnits="objectBoundingBox">
      <use xlink:href="#c" transform="matrix(.00125 0 0 .00366 0 -.06)"/>
    </pattern>
  </defs>
</svg>
