<svg xmlns="http://www.w3.org/2000/svg" width="1512" height="31674" fill="none" viewBox="0 0 1512 31674">
  <g clip-path="url(#a)">
    <path fill="#FFF8F3" d="M0 0h1512v31674H0z"/>
    <g opacity=".4">
      <path fill="#D32724" d="m-195.959 719.692 1268.878 1269.055-36.504 36.5L-232.463 756.19z"/>
      <path fill="#D32724" d="m-195.959 719.692 1268.878 1269.055-36.504 36.5L-232.463 756.19z"/>
      <path fill="#DA821F" d="m-244.277 743.804 1268.878 1269.055-36.504 36.5L-280.78 780.302z"/>
      <path fill="#DA821F" d="m-244.277 743.804 1268.878 1269.055-36.504 36.5L-280.78 780.302z"/>
      <path fill="#D32724" d="M-292.596 767.915 976.282 2036.97l-36.504 36.5L-329.1 804.413z"/>
      <path fill="#E1D709" d="M-292.596 767.915 976.282 2036.97l-36.504 36.5L-329.1 804.413z"/>
      <path fill="#DA821F" d="M-340.914 792.027 927.964 2061.082l-36.504 36.5L-377.418 828.525z"/>
      <path fill="#0A9742" d="M-340.914 792.027 927.964 2061.082l-36.504 36.5L-377.418 828.525z"/>
      <path fill="#0B72B4" d="M-313.711 886.627 955.174 2148.979l-36.503 36.307L-350.215 922.933z"/>
      <path fill="#733888" d="M-360.238 909.723 908.647 2172.075l-36.503 36.307L-396.742 946.029z"/>
      <path fill="#D32724" d="m888.576 1804.59 1268.878 1269.055-36.504 36.5L852.072 1841.088z"/>
      <path fill="#D32724" d="m888.576 1804.59 1268.878 1269.055-36.504 36.5L852.072 1841.088z"/>
      <path fill="#DA821F" d="m840.258 1828.7 1268.878 1269.055-36.504 36.5L803.754 1865.198z"/>
      <path fill="#DA821F" d="m840.258 1828.7 1268.878 1269.055-36.504 36.5L803.754 1865.198z"/>
      <path fill="#D32724" d="m791.939 1852.81 1268.878 1269.055-36.504 36.5L755.435 1889.308z"/>
      <path fill="#E1D709" d="m791.939 1852.81 1268.878 1269.055-36.504 36.5L755.435 1889.308z"/>
      <path fill="#DA821F" d="m743.621 1876.93 1268.878 1269.055-36.504 36.5L707.117 1913.428z"/>
      <path fill="#0A9742" d="m743.621 1876.93 1268.878 1269.055-36.504 36.5L707.117 1913.428z"/>
      <path fill="#0B72B4" d="m770.824 1965.8 1268.885 1262.352-36.503 36.307L734.32 2002.106z"/>
      <path fill="#733888" d="m724.297 1988.9 1268.885 1262.352-36.503 36.307L687.793 2025.206z"/>
    </g>
    <g opacity=".3">
      <path fill="#D32724" d="M1812.082 2130.26 543.203 3399.315l36.504 36.5 1268.879-1269.056z"/>
      <path fill="#D32724" d="M1812.082 2130.26 543.203 3399.315l36.504 36.5 1268.879-1269.056z"/>
      <path fill="#DA821F" d="M1860.401 2154.37 591.523 3423.426l36.504 36.499 1268.878-1269.056z"/>
      <path fill="#DA821F" d="M1860.401 2154.37 591.523 3423.426l36.504 36.499 1268.878-1269.056z"/>
      <path fill="#D32724" d="M1908.722 2178.48 639.843 3447.537l36.505 36.499L1945.226 2214.98z"/>
      <path fill="#E1D709" d="M1908.722 2178.48 639.843 3447.537l36.505 36.499L1945.226 2214.98z"/>
      <path fill="#DA821F" d="M1957.041 2202.6 688.163 3471.656l36.504 36.499 1268.878-1269.056z"/>
      <path fill="#0A9742" d="M1957.041 2202.6 688.163 3471.656l36.504 36.499 1268.878-1269.056z"/>
      <path fill="#0B72B4" d="M1929.83 2289.75 660.945 3552.102l36.503 36.307 1268.886-1262.353z"/>
      <path fill="#733888" d="M1976.36 2312.85 707.475 3575.202l36.503 36.307 1268.886-1262.353z"/>
      <path fill="#D32724" d="M727.546 3215.16-541.332 4484.217l36.504 36.499L764.05 3251.66z"/>
      <path fill="#D32724" d="M727.546 3215.16-541.332 4484.217l36.504 36.499L764.05 3251.66z"/>
      <path fill="#DA821F" d="M775.864 3239.27-493.014 4508.327l36.504 36.5L812.368 3275.77z"/>
      <path fill="#DA821F" d="M775.864 3239.27-493.014 4508.327l36.504 36.5L812.368 3275.77z"/>
      <path fill="#D32724" d="M824.183 3263.381-444.695 4532.436l36.504 36.5L860.687 3299.88z"/>
      <path fill="#E1D709" d="M824.183 3263.381-444.695 4532.436l36.504 36.5L860.687 3299.88z"/>
      <path fill="#DA821F" d="M872.501 3287.49-396.377 4556.547l36.504 36.499L909.005 3323.99z"/>
      <path fill="#0A9742" d="M872.501 3287.49-396.377 4556.547l36.504 36.499L909.005 3323.99z"/>
      <path fill="#0B72B4" d="M845.297 3368.93-423.588 4631.282l36.503 36.307L881.801 3405.236z"/>
      <path fill="#733888" d="M891.824 3392.02-377.061 4654.372l36.503 36.307L928.328 3428.326z"/>
    </g>
    <g opacity=".2">
      <path fill="#D32724" d="M-428.951 3562.26 839.927 4831.315l-36.504 36.5-1268.878-1269.056z"/>
      <path fill="#D32724" d="M-428.951 3562.26 839.927 4831.315l-36.504 36.5-1268.878-1269.056z"/>
      <path fill="#DA821F" d="M-477.27 3586.37 791.608 4855.425l-36.504 36.5-1268.878-1269.056z"/>
      <path fill="#DA821F" d="M-477.27 3586.37 791.608 4855.425l-36.504 36.5-1268.878-1269.056z"/>
      <path fill="#D32724" d="M-525.588 3610.48 743.29 4879.535l-36.504 36.5-1268.878-1269.056z"/>
      <path fill="#E1D709" d="M-525.588 3610.48 743.29 4879.535l-36.504 36.5-1268.878-1269.056z"/>
      <path fill="#DA821F" d="M-573.906 3634.6 694.972 4903.655l-36.504 36.5L-610.41 3671.098z"/>
      <path fill="#0A9742" d="M-573.906 3634.6 694.972 4903.655l-36.504 36.5L-610.41 3671.098z"/>
      <path fill="#0B72B4" d="M-546.703 3714.2 722.182 4976.552l-36.503 36.307-1268.886-1262.353z"/>
      <path fill="#733888" d="M-593.23 3737.29 675.655 4999.642l-36.503 36.307-1268.886-1262.353z"/>
      <path fill="#D32724" d="m655.584 4647.16 1268.878 1269.055-36.504 36.5L619.08 4683.658z"/>
      <path fill="#D32724" d="m655.584 4647.16 1268.878 1269.055-36.504 36.5L619.08 4683.658z"/>
      <path fill="#DA821F" d="m607.266 4671.27 1268.878 1269.055-36.504 36.5L570.762 4707.768z"/>
      <path fill="#DA821F" d="m607.266 4671.27 1268.878 1269.055-36.504 36.5L570.762 4707.768z"/>
      <path fill="#D32724" d="m558.947 4695.38 1268.878 1269.055-36.504 36.5L522.443 4731.878z"/>
      <path fill="#E1D709" d="m558.947 4695.38 1268.878 1269.055-36.504 36.5L522.443 4731.878z"/>
      <path fill="#DA821F" d="m510.629 4719.49 1268.878 1269.055-36.504 36.5L474.125 4755.988z"/>
      <path fill="#0A9742" d="m510.629 4719.49 1268.878 1269.055-36.504 36.5L474.125 4755.988z"/>
      <path fill="#0B72B4" d="m537.832 4793.37 1268.885 1262.352-36.503 36.307L501.328 4829.676z"/>
      <path fill="#733888" d="M491.305 4816.47 1760.19 6078.822l-36.503 36.307L454.8 4852.776z"/>
    </g>
    <g opacity=".1">
      <path fill="#D32724" d="M1677.082 5291.262 408.203 6560.317l36.505 36.499L1713.586 5327.76z"/>
      <path fill="#D32724" d="M1677.082 5291.262 408.203 6560.317l36.505 36.499L1713.586 5327.76z"/>
      <path fill="#DA821F" d="M1725.402 5315.371 456.524 6584.426l36.504 36.5L1761.906 5351.87z"/>
      <path fill="#DA821F" d="M1725.402 5315.371 456.524 6584.426l36.504 36.5L1761.906 5351.87z"/>
      <path fill="#D32724" d="M1773.722 5339.481 504.844 6608.537l36.504 36.499L1810.226 5375.98z"/>
      <path fill="#E1D709" d="M1773.722 5339.481 504.844 6608.537l36.504 36.499L1810.226 5375.98z"/>
      <path fill="#DA821F" d="M1822.042 5363.601 553.163 6632.657l36.505 36.499L1858.546 5400.1z"/>
      <path fill="#0A9742" d="M1822.042 5363.601 553.163 6632.657l36.505 36.499L1858.546 5400.1z"/>
      <path fill="#0B72B4" d="M1794.83 5434.08 525.945 6696.432l36.503 36.307 1268.886-1262.353z"/>
      <path fill="#733888" d="M1841.36 5457.17 572.475 6719.522l36.503 36.307 1268.886-1262.353z"/>
      <path fill="#D32724" d="M592.547 6376.162-676.33 7645.217l36.504 36.5L629.051 6412.66z"/>
      <path fill="#D32724" d="M592.547 6376.162-676.33 7645.217l36.504 36.5L629.051 6412.66z"/>
      <path fill="#DA821F" d="M640.865 6400.272-628.013 7669.327l36.504 36.499L677.369 6436.771z"/>
      <path fill="#DA821F" d="M640.865 6400.272-628.013 7669.327l36.504 36.499L677.369 6436.771z"/>
      <path fill="#D32724" d="M689.183 6424.382-579.695 7693.437l36.504 36.5L725.688 6460.88z"/>
      <path fill="#E1D709" d="M689.183 6424.382-579.695 7693.437l36.504 36.5L725.688 6460.88z"/>
      <path fill="#DA821F" d="M737.502 6448.491-531.376 7717.547l36.504 36.499L774.006 6484.99z"/>
      <path fill="#0A9742" d="M737.502 6448.491-531.376 7717.547l36.504 36.499L774.006 6484.99z"/>
      <path fill="#0B72B4" d="M710.297 6513.25-558.588 7775.602l36.503 36.307L746.801 6549.556z"/>
      <path fill="#733888" d="M756.826 6536.35-512.059 7798.702l36.503 36.307L793.33 6572.656z"/>
    </g>
    <g opacity=".1">
      <path fill="#D32724" d="M-336.951 6604.26 931.927 7873.315l-36.504 36.5-1268.878-1269.056z"/>
      <path fill="#D32724" d="M-336.951 6604.26 931.927 7873.315l-36.504 36.5-1268.878-1269.056z"/>
      <path fill="#DA821F" d="M-385.27 6628.37 883.608 7897.425l-36.504 36.5-1268.878-1269.056z"/>
      <path fill="#DA821F" d="M-385.27 6628.37 883.608 7897.425l-36.504 36.5-1268.878-1269.056z"/>
      <path fill="#D32724" d="M-433.588 6652.48 835.29 7921.535l-36.504 36.5-1268.878-1269.056z"/>
      <path fill="#E1D709" d="M-433.588 6652.48 835.29 7921.535l-36.504 36.5-1268.878-1269.056z"/>
      <path fill="#DA821F" d="M-481.906 6676.6 786.972 7945.655l-36.504 36.5L-518.41 6713.098z"/>
      <path fill="#0A9742" d="M-481.906 6676.6 786.972 7945.655l-36.504 36.5L-518.41 6713.098z"/>
      <path fill="#0B72B4" d="M-454.703 6740.15 814.182 8002.502l-36.503 36.307-1268.886-1262.353z"/>
      <path fill="#733888" d="M-501.23 6763.24 767.655 8025.592l-36.503 36.307-1268.886-1262.353z"/>
      <path fill="#D32724" d="m747.584 7689.16 1268.878 1269.055-36.504 36.5L711.08 7725.658z"/>
      <path fill="#D32724" d="m747.584 7689.16 1268.878 1269.055-36.504 36.5L711.08 7725.658z"/>
      <path fill="#DA821F" d="m699.266 7713.27 1268.878 1269.055-36.504 36.5L662.762 7749.768z"/>
      <path fill="#DA821F" d="m699.266 7713.27 1268.878 1269.055-36.504 36.5L662.762 7749.768z"/>
      <path fill="#D32724" d="m650.947 7737.38 1268.878 1269.055-36.504 36.5L614.443 7773.878z"/>
      <path fill="#E1D709" d="m650.947 7737.38 1268.878 1269.055-36.504 36.5L614.443 7773.878z"/>
      <path fill="#DA821F" d="m602.629 7761.49 1268.878 1269.055-36.504 36.5L566.125 7797.988z"/>
      <path fill="#0A9742" d="m602.629 7761.49 1268.878 1269.055-36.504 36.5L566.125 7797.988z"/>
      <path fill="#0B72B4" d="m629.832 7819.32 1268.885 1262.352-36.503 36.307L593.328 7855.626z"/>
      <path fill="#733888" d="M583.305 7842.42 1852.19 9104.772l-36.503 36.307L546.8 7878.726z"/>
    </g>
    <g opacity=".1">
      <path fill="#D32724" d="M1824.082 8171.262 555.204 9440.317l36.504 36.5L1860.587 8207.76z"/>
      <path fill="#D32724" d="M1824.082 8171.262 555.204 9440.317l36.504 36.5L1860.587 8207.76z"/>
      <path fill="#DA821F" d="M1872.402 8195.372 603.524 9464.428l36.504 36.499L1908.906 8231.87z"/>
      <path fill="#DA821F" d="M1872.402 8195.372 603.524 9464.428l36.504 36.499L1908.906 8231.87z"/>
      <path fill="#D32724" d="M1920.723 8219.482 651.845 9488.537l36.504 36.499 1268.878-1269.055z"/>
      <path fill="#E1D709" d="M1920.723 8219.482 651.845 9488.537l36.504 36.499 1268.878-1269.055z"/>
      <path fill="#DA821F" d="M1969.043 8243.602 700.165 9512.657l36.504 36.5L2005.547 8280.1z"/>
      <path fill="#0A9742" d="M1969.043 8243.602 700.165 9512.657l36.504 36.5L2005.547 8280.1z"/>
      <path fill="#0B72B4" d="M1941.83 8298.88 672.945 9561.232l36.503 36.307 1268.886-1262.353z"/>
      <path fill="#733888" d="M1988.36 8321.98 719.475 9584.332l36.503 36.307 1268.886-1262.353z"/>
      <path fill="#D32724" d="m739.55 9256.163-1268.878 1269.055 36.504 36.5L776.054 9292.661z"/>
      <path fill="#D32724" d="m739.55 9256.163-1268.878 1269.055 36.504 36.5L776.054 9292.661z"/>
      <path fill="#DA821F" d="m787.868 9280.273-1268.879 1269.055 36.504 36.5L824.372 9316.771z"/>
      <path fill="#DA821F" d="m787.868 9280.273-1268.879 1269.055 36.504 36.5L824.372 9316.771z"/>
      <path fill="#D32724" d="m836.187 9304.383-1268.878 1269.055 36.504 36.499L872.69 9340.882z"/>
      <path fill="#E1D709" d="m836.187 9304.383-1268.878 1269.055 36.504 36.499L872.69 9340.882z"/>
      <path fill="#DA821F" d="m884.505 9328.492-1268.879 1269.056 36.505 36.499L921.009 9364.99z"/>
      <path fill="#0A9742" d="m884.505 9328.492-1268.879 1269.056 36.505 36.499L921.009 9364.99z"/>
      <path fill="#0B72B4" d="m857.299 9378.06-1268.885 1262.352 36.503 36.307L893.803 9414.366z"/>
      <path fill="#733888" d="m903.826 9401.15-1268.885 1262.352 36.503 36.307L940.33 9437.456z"/>
    </g>
    <g opacity=".1">
      <path fill="#D32724" d="m-194.951 9771.26 1268.878 1269.055-36.504 36.5-1268.878-1269.056z"/>
      <path fill="#D32724" d="m-194.951 9771.26 1268.878 1269.055-36.504 36.5-1268.878-1269.056z"/>
      <path fill="#DA821F" d="m-243.27 9795.37 1268.878 1269.055-36.504 36.5-1268.878-1269.056z"/>
      <path fill="#DA821F" d="m-243.27 9795.37 1268.878 1269.055-36.504 36.5-1268.878-1269.056z"/>
      <path fill="#D32724" d="M-291.588 9819.48 977.29 11088.535l-36.504 36.5-1268.878-1269.056z"/>
      <path fill="#E1D709" d="M-291.588 9819.48 977.29 11088.535l-36.504 36.5-1268.878-1269.056z"/>
      <path fill="#DA821F" d="m-339.906 9843.59 1268.878 1269.055-36.504 36.5L-376.41 9880.088z"/>
      <path fill="#0A9742" d="m-339.906 9843.59 1268.878 1269.055-36.504 36.5L-376.41 9880.088z"/>
      <path fill="#0B72B4" d="m-312.703 9890.44 1268.885 1262.352-36.503 36.307-1268.886-1262.353z"/>
      <path fill="#733888" d="m-359.23 9913.53 1268.885 1262.352-36.503 36.307-1268.886-1262.353z"/>
      <path fill="#D32724" d="m889.584 10856.2 1268.878 1269.055-36.504 36.5L853.08 10892.698z"/>
      <path fill="#D32724" d="m889.584 10856.2 1268.878 1269.055-36.504 36.5L853.08 10892.698z"/>
      <path fill="#DA821F" d="m841.266 10880.3 1268.878 1269.055-36.504 36.5-1268.878-1269.056z"/>
      <path fill="#DA821F" d="m841.266 10880.3 1268.878 1269.055-36.504 36.5-1268.878-1269.056z"/>
      <path fill="#D32724" d="m792.947 10904.4 1268.878 1269.055-36.504 36.5-1268.878-1269.056z"/>
      <path fill="#E1D709" d="m792.947 10904.4 1268.878 1269.055-36.504 36.5-1268.878-1269.056z"/>
      <path fill="#DA821F" d="m744.629 10928.5 1268.878 1269.055-36.504 36.5-1268.878-1269.056z"/>
      <path fill="#0A9742" d="m744.629 10928.5 1268.878 1269.055-36.504 36.5-1268.878-1269.056z"/>
      <path fill="#0B72B4" d="m771.832 10969.6 1268.885 1262.352-36.503 36.307-1268.886-1262.353z"/>
      <path fill="#733888" d="m725.305 10992.7 1268.885 1262.352-36.503 36.307L688.8 11029.006z"/>
    </g>
    <g opacity=".1">
      <path fill="#D32724" d="M1946.083 11081.303 677.205 12350.358l36.504 36.5 1268.878-1269.056z"/>
      <path fill="#D32724" d="M1946.083 11081.303 677.205 12350.358l36.504 36.5 1268.878-1269.056z"/>
      <path fill="#DA821F" d="M1994.404 11105.403 725.526 12374.46l36.504 36.499 1268.878-1269.056z"/>
      <path fill="#DA821F" d="M1994.404 11105.403 725.526 12374.46l36.504 36.499 1268.878-1269.056z"/>
      <path fill="#D32724" d="M2042.723 11129.503 773.845 12398.558l36.504 36.5 1268.878-1269.056z"/>
      <path fill="#E1D709" d="M2042.723 11129.503 773.845 12398.558l36.504 36.5 1268.878-1269.056z"/>
      <path fill="#DA821F" d="M2091.043 11153.603 822.165 12422.658l36.504 36.5 1268.878-1269.056z"/>
      <path fill="#0A9742" d="M2091.043 11153.603 822.165 12422.658l36.504 36.5 1268.878-1269.056z"/>
      <path fill="#0B72B4" d="M2063.83 11193.5 794.945 12455.852l36.503 36.307 1268.886-1262.353z"/>
      <path fill="#733888" d="M2110.36 11216.6 841.475 12478.952l36.503 36.307 1268.886-1262.353z"/>
      <path fill="#D32724" d="M861.548 12166.204-407.33 13435.259l36.504 36.499 1268.878-1269.055z"/>
      <path fill="#D32724" d="M861.548 12166.204-407.33 13435.259l36.504 36.499 1268.878-1269.055z"/>
      <path fill="#DA821F" d="m909.867 12190.304-1268.878 1269.055 36.504 36.5L946.37 12226.802z"/>
      <path fill="#DA821F" d="m909.867 12190.304-1268.878 1269.055 36.504 36.5L946.37 12226.802z"/>
      <path fill="#D32724" d="m958.185 12214.404-1268.878 1269.055 36.504 36.5L994.69 12250.902z"/>
      <path fill="#E1D709" d="m958.185 12214.404-1268.878 1269.055 36.504 36.5L994.69 12250.902z"/>
      <path fill="#DA821F" d="m1006.503 12238.504-1268.878 1269.055 36.504 36.5 1268.878-1269.056z"/>
      <path fill="#0A9742" d="m1006.503 12238.504-1268.878 1269.055 36.504 36.5 1268.878-1269.056z"/>
      <path fill="#0B72B4" d="m979.297 12272.7-1268.885 1262.352 36.503 36.307 1268.886-1262.353z"/>
      <path fill="#733888" d="m1025.82 12295.8-1268.885 1262.352 36.503 36.307 1268.886-1262.353z"/>
    </g>
    <g opacity=".1">
      <path fill="#D32724" d="m-45.951 12957.3 1268.878 1269.055-36.504 36.5-1268.878-1269.056z"/>
      <path fill="#D32724" d="m-45.951 12957.3 1268.878 1269.055-36.504 36.5-1268.878-1269.056z"/>
      <path fill="#DA821F" d="m-94.27 12981.4 1268.879 1269.056-36.504 36.5L-130.773 13017.9z"/>
      <path fill="#DA821F" d="m-94.27 12981.4 1268.879 1269.056-36.504 36.5L-130.773 13017.9z"/>
      <path fill="#D32724" d="m-142.588 13005.5 1268.878 1269.055-36.504 36.5-1268.878-1269.056z"/>
      <path fill="#E1D709" d="m-142.588 13005.5 1268.878 1269.055-36.504 36.5-1268.878-1269.056z"/>
      <path fill="#DA821F" d="m-190.906 13029.6 1268.878 1269.055-36.504 36.5-1268.878-1269.056z"/>
      <path fill="#0A9742" d="m-190.906 13029.6 1268.878 1269.055-36.504 36.5-1268.878-1269.056z"/>
      <path fill="#0B72B4" d="m-163.703 13059.6 1268.885 1262.352-36.503 36.307-1268.886-1262.353z"/>
      <path fill="#733888" d="m-210.23 13082.7 1268.885 1262.352-36.503 36.307-1268.886-1262.353z"/>
      <path fill="#D32724" d="m1038.58 14042.2 1268.878 1269.055-36.504 36.5-1268.878-1269.056z"/>
      <path fill="#D32724" d="m1038.58 14042.2 1268.878 1269.055-36.504 36.5-1268.878-1269.056z"/>
      <path fill="#DA821F" d="m990.266 14066.3 1268.878 1269.055-36.504 36.5-1268.878-1269.056z"/>
      <path fill="#DA821F" d="m990.266 14066.3 1268.878 1269.055-36.504 36.5-1268.878-1269.056z"/>
      <path fill="#D32724" d="m941.947 14090.4 1268.878 1269.055-36.504 36.5-1268.878-1269.056z"/>
      <path fill="#E1D709" d="m941.947 14090.4 1268.878 1269.055-36.504 36.5-1268.878-1269.056z"/>
      <path fill="#DA821F" d="m893.629 14114.5 1268.878 1269.055-36.504 36.5-1268.878-1269.056z"/>
      <path fill="#0A9742" d="m893.629 14114.5 1268.878 1269.055-36.504 36.5-1268.878-1269.056z"/>
      <path fill="#0B72B4" d="m920.832 14138.8 1268.885 1262.352-36.503 36.307-1268.886-1262.353z"/>
      <path fill="#733888" d="m874.305 14161.9 1268.885 1262.352-36.503 36.307L837.8 14198.206z"/>
    </g>
    <g opacity=".1">
      <path fill="#D32724" d="M1958.084 14111.304 689.206 15380.359l36.504 36.5 1268.878-1269.056z"/>
      <path fill="#D32724" d="M1958.084 14111.304 689.206 15380.359l36.504 36.5 1268.878-1269.056z"/>
      <path fill="#DA821F" d="M2006.404 14135.404 737.526 15404.46l36.504 36.499 1268.878-1269.056z"/>
      <path fill="#DA821F" d="M2006.404 14135.404 737.526 15404.46l36.504 36.499 1268.878-1269.056z"/>
      <path fill="#D32724" d="M2054.724 14159.504 785.846 15428.559l36.504 36.5 1268.879-1269.056z"/>
      <path fill="#E1D709" d="M2054.724 14159.504 785.846 15428.559l36.504 36.5 1268.879-1269.056z"/>
      <path fill="#DA821F" d="M2103.045 14183.603 834.166 15452.66l36.505 36.499 1268.878-1269.055z"/>
      <path fill="#0A9742" d="M2103.045 14183.603 834.166 15452.66l36.505 36.499 1268.878-1269.055z"/>
      <path fill="#0B72B4" d="M2075.83 14207.5 806.945 15469.852l36.503 36.307 1268.886-1262.353z"/>
      <path fill="#733888" d="M2122.36 14230.6 853.475 15492.952l36.503 36.307 1268.886-1262.353z"/>
      <path fill="#D32724" d="M873.549 15196.205-395.33 16465.26l36.505 36.499 1268.878-1269.055z"/>
      <path fill="#D32724" d="M873.549 15196.205-395.33 16465.26l36.505 36.499 1268.878-1269.055z"/>
      <path fill="#DA821F" d="M921.867 15220.305-347.01 16489.36l36.504 36.5 1268.878-1269.056z"/>
      <path fill="#DA821F" d="M921.867 15220.305-347.01 16489.36l36.504 36.5 1268.878-1269.056z"/>
      <path fill="#D32724" d="M970.186 15244.404-298.692 16513.46l36.504 36.499 1268.878-1269.056z"/>
      <path fill="#E1D709" d="M970.186 15244.404-298.692 16513.46l36.504 36.499 1268.878-1269.056z"/>
      <path fill="#DA821F" d="M1018.504 15268.504-250.374 16537.56l36.504 36.499 1268.879-1269.056z"/>
      <path fill="#0A9742" d="M1018.504 15268.504-250.374 16537.56l36.504 36.499 1268.879-1269.056z"/>
      <path fill="#0B72B4" d="m991.297 15286.7-1268.885 1262.352 36.503 36.307 1268.886-1262.353z"/>
      <path fill="#733888" d="m1037.82 15309.8-1268.885 1262.352 36.503 36.307 1268.886-1262.353z"/>
    </g>
    <g opacity=".1">
      <path fill="#D32724" d="m-49.951 15989.3 1268.878 1269.055-36.504 36.5-1268.878-1269.056z"/>
      <path fill="#D32724" d="m-49.951 15989.3 1268.878 1269.055-36.504 36.5-1268.878-1269.056z"/>
      <path fill="#DA821F" d="m-98.27 16013.4 1268.879 1269.056-36.504 36.5L-134.773 16049.9z"/>
      <path fill="#DA821F" d="m-98.27 16013.4 1268.879 1269.056-36.504 36.5L-134.773 16049.9z"/>
      <path fill="#D32724" d="m-146.588 16037.5 1268.878 1269.055-36.504 36.5-1268.878-1269.056z"/>
      <path fill="#E1D709" d="m-146.588 16037.5 1268.878 1269.055-36.504 36.5-1268.878-1269.056z"/>
      <path fill="#DA821F" d="m-194.906 16061.6 1268.878 1269.055-36.504 36.5-1268.878-1269.056z"/>
      <path fill="#0A9742" d="m-194.906 16061.6 1268.878 1269.055-36.504 36.5-1268.878-1269.056z"/>
      <path fill="#0B72B4" d="m-167.703 16075.6 1268.885 1262.352-36.503 36.307-1268.886-1262.353z"/>
      <path fill="#733888" d="m-214.23 16098.7 1268.885 1262.352-36.503 36.307-1268.886-1262.352z"/>
      <path fill="#D32724" d="m1034.58 17074.2 1268.878 1269.055-36.504 36.5-1268.878-1269.056z"/>
      <path fill="#D32724" d="m1034.58 17074.2 1268.878 1269.055-36.504 36.5-1268.878-1269.056z"/>
      <path fill="#DA821F" d="m986.266 17098.3 1268.878 1269.055-36.504 36.5-1268.878-1269.056z"/>
      <path fill="#DA821F" d="m986.266 17098.3 1268.878 1269.055-36.504 36.5-1268.878-1269.056z"/>
      <path fill="#D32724" d="m937.947 17122.4 1268.878 1269.055-36.504 36.5-1268.878-1269.056z"/>
      <path fill="#E1D709" d="m937.947 17122.4 1268.878 1269.055-36.504 36.5-1268.878-1269.056z"/>
      <path fill="#DA821F" d="m889.629 17146.5 1268.878 1269.055-36.504 36.5-1268.878-1269.056z"/>
      <path fill="#0A9742" d="m889.629 17146.5 1268.878 1269.055-36.504 36.5-1268.878-1269.056z"/>
      <path fill="#0B72B4" d="m916.832 17154.8 1268.885 1262.352-36.503 36.307-1268.886-1262.353z"/>
      <path fill="#733888" d="m870.305 17177.9 1268.885 1262.352-36.503 36.307L833.8 17214.206z"/>
    </g>
    <g opacity=".1">
      <path fill="#D32724" d="M1894.085 17168.705 625.207 18437.76l36.504 36.5 1268.878-1269.056z"/>
      <path fill="#D32724" d="M1894.085 17168.705 625.207 18437.76l36.504 36.5 1268.878-1269.056z"/>
      <path fill="#DA821F" d="M1942.405 17192.805 673.527 18461.86l36.504 36.5 1268.878-1269.056z"/>
      <path fill="#DA821F" d="M1942.405 17192.805 673.527 18461.86l36.504 36.5 1268.878-1269.056z"/>
      <path fill="#D32724" d="M1990.725 17216.905 721.847 18485.96l36.504 36.499 1268.878-1269.055z"/>
      <path fill="#E1D709" d="M1990.725 17216.905 721.847 18485.96l36.504 36.499 1268.878-1269.055z"/>
      <path fill="#DA821F" d="M2039.045 17241.005 770.167 18510.06l36.504 36.5 1268.878-1269.056z"/>
      <path fill="#0A9742" d="M2039.045 17241.005 770.167 18510.06l36.504 36.5 1268.878-1269.056z"/>
      <path fill="#0B72B4" d="M2011.83 17248.8 742.945 18511.152l36.503 36.307 1268.886-1262.353z"/>
      <path fill="#733888" d="M2058.36 17271.9 789.475 18534.252l36.503 36.307 1268.886-1262.353z"/>
      <path fill="#D32724" d="M809.55 18253.605-459.328 19522.66l36.504 36.5 1268.878-1269.056z"/>
      <path fill="#D32724" d="M809.55 18253.605-459.328 19522.66l36.504 36.5 1268.878-1269.056z"/>
      <path fill="#DA821F" d="M857.868 18277.705-411.01 19546.761l36.504 36.499 1268.878-1269.055z"/>
      <path fill="#DA821F" d="M857.868 18277.705-411.01 19546.761l36.504 36.499 1268.878-1269.055z"/>
      <path fill="#D32724" d="M906.187 18301.805-362.69 19570.861l36.504 36.499 1268.878-1269.056z"/>
      <path fill="#E1D709" d="M906.187 18301.805-362.69 19570.861l36.504 36.499 1268.878-1269.056z"/>
      <path fill="#DA821F" d="m954.505 18325.905-1268.878 1269.056 36.504 36.499 1268.878-1269.056z"/>
      <path fill="#0A9742" d="m954.505 18325.905-1268.878 1269.056 36.504 36.499 1268.878-1269.056z"/>
      <path fill="#0B72B4" d="m927.297 18328-1268.885 1262.352 36.503 36.307 1268.886-1262.353z"/>
      <path fill="#733888" d="m973.824 18351.1-1268.885 1262.352 36.503 36.307 1268.886-1262.353z"/>
    </g>
    <g opacity=".1">
      <path fill="#D32724" d="m-84.951 18979.7 1268.878 1269.055-36.504 36.5-1268.878-1269.056z"/>
      <path fill="#D32724" d="m-84.951 18979.7 1268.878 1269.055-36.504 36.5-1268.878-1269.056z"/>
      <path fill="#DA821F" d="m-133.27 19003.8 1268.878 1269.055-36.504 36.5-1268.878-1269.056z"/>
      <path fill="#DA821F" d="m-133.27 19003.8 1268.878 1269.055-36.504 36.5-1268.878-1269.056z"/>
      <path fill="#D32724" d="m-181.588 19027.9 1268.878 1269.055-36.504 36.5-1268.878-1269.056z"/>
      <path fill="#E1D709" d="m-181.588 19027.9 1268.878 1269.055-36.504 36.5-1268.878-1269.056z"/>
      <path fill="#DA821F" d="m-229.906 19052 1268.878 1269.055-36.504 36.5-1268.878-1269.056z"/>
      <path fill="#0A9742" d="m-229.906 19052 1268.878 1269.055-36.504 36.5-1268.878-1269.056z"/>
      <path fill="#0B72B4" d="m-202.703 19050.3 1268.885 1262.352-36.503 36.307-1268.886-1262.353z"/>
      <path fill="#733888" d="m-249.23 19073.4 1268.885 1262.352-36.503 36.307-1268.886-1262.353z"/>
      <path fill="#D32724" d="m999.584 20064.6 1268.878 1269.055-36.504 36.5L963.08 20101.098z"/>
      <path fill="#D32724" d="m999.584 20064.6 1268.878 1269.055-36.504 36.5L963.08 20101.098z"/>
      <path fill="#DA821F" d="m951.266 20088.7 1268.878 1269.055-36.504 36.5-1268.878-1269.056z"/>
      <path fill="#DA821F" d="m951.266 20088.7 1268.878 1269.055-36.504 36.5-1268.878-1269.056z"/>
      <path fill="#D32724" d="m902.947 20112.8 1268.878 1269.055-36.504 36.5-1268.878-1269.056z"/>
      <path fill="#E1D709" d="m902.947 20112.8 1268.878 1269.055-36.504 36.5-1268.878-1269.056z"/>
      <path fill="#DA821F" d="m854.629 20136.9 1268.878 1269.055-36.504 36.5-1268.878-1269.056z"/>
      <path fill="#0A9742" d="m854.629 20136.9 1268.878 1269.055-36.504 36.5-1268.878-1269.056z"/>
      <path fill="#0B72B4" d="m881.832 20129.5 1268.885 1262.352-36.503 36.307-1268.886-1262.353z"/>
      <path fill="#733888" d="m835.305 20152.6 1268.885 1262.352-36.503 36.307L798.8 20188.906z"/>
    </g>
    <g opacity=".1">
      <path fill="#D32724" d="M1859.085 20159.106 590.207 21428.161l36.504 36.5 1268.878-1269.056z"/>
      <path fill="#D32724" d="M1859.085 20159.106 590.207 21428.161l36.504 36.5 1268.878-1269.056z"/>
      <path fill="#DA821F" d="M1907.406 20183.206 638.527 21452.26l36.504 36.499 1268.879-1269.055z"/>
      <path fill="#DA821F" d="M1907.406 20183.206 638.527 21452.26l36.504 36.499 1268.879-1269.055z"/>
      <path fill="#D32724" d="M1955.726 20207.305 686.847 21476.361l36.505 36.499 1268.878-1269.056z"/>
      <path fill="#E1D709" d="M1955.726 20207.305 686.847 21476.361l36.505 36.499 1268.878-1269.056z"/>
      <path fill="#DA821F" d="M2004.046 20231.506 735.168 21500.56l36.504 36.5 1268.878-1269.056z"/>
      <path fill="#0A9742" d="M2004.046 20231.506 735.168 21500.56l36.504 36.5 1268.878-1269.056z"/>
      <path fill="#0B72B4" d="M1976.83 20223.5 707.945 21485.852l36.503 36.307 1268.886-1262.353z"/>
      <path fill="#733888" d="M2023.36 20246.6 754.475 21508.952l36.503 36.307 1268.886-1262.353z"/>
      <path fill="#D32724" d="m774.55 21244.006-1268.877 1269.056 36.504 36.499 1268.878-1269.056z"/>
      <path fill="#D32724" d="m774.55 21244.006-1268.877 1269.056 36.504 36.499 1268.878-1269.056z"/>
      <path fill="#DA821F" d="M822.87 21268.106-446.01 22537.16l36.504 36.5 1268.878-1269.056z"/>
      <path fill="#DA821F" d="M822.87 21268.106-446.01 22537.16l36.504 36.5 1268.878-1269.056z"/>
      <path fill="#D32724" d="M871.188 21292.206-397.69 22561.261l36.504 36.5 1268.878-1269.056z"/>
      <path fill="#E1D709" d="M871.188 21292.206-397.69 22561.261l36.504 36.5 1268.878-1269.056z"/>
      <path fill="#DA821F" d="m919.506 21316.406-1268.878 1269.055 36.504 36.5L956.01 21352.904z"/>
      <path fill="#0A9742" d="m919.506 21316.406-1268.878 1269.055 36.504 36.5L956.01 21352.904z"/>
      <path fill="#0B72B4" d="m892.297 21302.7-1268.885 1262.352 36.503 36.307 1268.886-1262.353z"/>
      <path fill="#733888" d="m938.824 21325.8-1268.885 1262.352 36.503 36.307 1268.886-1262.353z"/>
    </g>
    <g opacity=".1">
      <path fill="#D32724" d="m-430.951 21588.7 1268.878 1269.055-36.504 36.5-1268.878-1269.056z"/>
      <path fill="#D32724" d="m-430.951 21588.7 1268.878 1269.055-36.504 36.5-1268.878-1269.056z"/>
      <path fill="#DA821F" d="m-479.27 21612.8 1268.878 1269.055-36.504 36.5-1268.878-1269.056z"/>
      <path fill="#DA821F" d="m-479.27 21612.8 1268.878 1269.055-36.504 36.5-1268.878-1269.056z"/>
      <path fill="#D32724" d="M-527.588 21636.9 741.29 22905.955l-36.504 36.5-1268.878-1269.056z"/>
      <path fill="#E1D709" d="M-527.588 21636.9 741.29 22905.955l-36.504 36.5-1268.878-1269.056z"/>
      <path fill="#DA821F" d="m-575.906 21661 1268.878 1269.055-36.504 36.5-1268.878-1269.056z"/>
      <path fill="#0A9742" d="m-575.906 21661 1268.878 1269.055-36.504 36.5-1268.878-1269.056z"/>
      <path fill="#0B72B4" d="m-548.703 21645.5 1268.885 1262.352-36.503 36.307-1268.886-1262.353z"/>
      <path fill="#733888" d="m-595.23 21668.6 1268.885 1262.352-36.503 36.307-1268.886-1262.353z"/>
      <path fill="#D32724" d="m653.584 22673.6 1268.878 1269.055-36.504 36.5L617.08 22710.098z"/>
      <path fill="#D32724" d="m653.584 22673.6 1268.878 1269.055-36.504 36.5L617.08 22710.098z"/>
      <path fill="#DA821F" d="m605.266 22697.7 1268.878 1269.055-36.504 36.5-1268.878-1269.056z"/>
      <path fill="#DA821F" d="m605.266 22697.7 1268.878 1269.055-36.504 36.5-1268.878-1269.056z"/>
      <path fill="#D32724" d="m556.947 22721.8 1268.878 1269.055-36.504 36.5-1268.878-1269.056z"/>
      <path fill="#E1D709" d="m556.947 22721.8 1268.878 1269.055-36.504 36.5-1268.878-1269.056z"/>
      <path fill="#DA821F" d="m508.629 22745.9 1268.878 1269.055-36.504 36.5-1268.878-1269.056z"/>
      <path fill="#0A9742" d="m508.629 22745.9 1268.878 1269.055-36.504 36.5-1268.878-1269.056z"/>
      <path fill="#0B72B4" d="m535.832 22724.7 1268.885 1262.352-36.503 36.307-1268.886-1262.353z"/>
      <path fill="#733888" d="m489.305 22747.8 1268.885 1262.352-36.503 36.307L452.8 22784.106z"/>
    </g>
    <g opacity=".1">
      <path fill="#D32724" d="M1577.086 23466.707 308.208 24735.763l36.504 36.499 1268.878-1269.056z"/>
      <path fill="#D32724" d="M1577.086 23466.707 308.208 24735.763l36.504 36.499 1268.878-1269.056z"/>
      <path fill="#DA821F" d="M1625.406 23490.807 356.528 24759.862l36.504 36.5 1268.879-1269.056z"/>
      <path fill="#DA821F" d="M1625.406 23490.807 356.528 24759.862l36.504 36.5 1268.879-1269.056z"/>
      <path fill="#D32724" d="M1673.727 23514.907 404.849 24783.962l36.504 36.5 1268.878-1269.056z"/>
      <path fill="#E1D709" d="M1673.727 23514.907 404.849 24783.962l36.504 36.5 1268.878-1269.056z"/>
      <path fill="#DA821F" d="M1722.046 23539.007 453.168 24808.062l36.504 36.5 1268.878-1269.056z"/>
      <path fill="#0A9742" d="M1722.046 23539.007 453.168 24808.062l36.504 36.5 1268.878-1269.056z"/>
      <path fill="#0B72B4" d="M1694.83 23513.6 425.945 24775.952l36.503 36.307 1268.886-1262.353z"/>
      <path fill="#733888" d="M1741.36 23536.7 472.475 24799.052l36.503 36.307 1268.886-1262.353z"/>
      <path fill="#D32724" d="m492.552 24551.608-1268.878 1269.055 36.504 36.499 1268.878-1269.055z"/>
      <path fill="#D32724" d="m492.552 24551.608-1268.878 1269.055 36.504 36.499 1268.878-1269.055z"/>
      <path fill="#DA821F" d="m540.87 24575.708-1268.878 1269.055 36.504 36.5 1268.878-1269.056z"/>
      <path fill="#DA821F" d="m540.87 24575.708-1268.878 1269.055 36.504 36.5 1268.878-1269.056z"/>
      <path fill="#D32724" d="M589.189 24599.807-679.69 25868.863l36.504 36.499 1268.878-1269.056z"/>
      <path fill="#E1D709" d="M589.189 24599.807-679.69 25868.863l36.504 36.499 1268.878-1269.056z"/>
      <path fill="#DA821F" d="m637.507 24623.908-1268.878 1269.055 36.504 36.5L674.01 24660.406z"/>
      <path fill="#0A9742" d="m637.507 24623.908-1268.878 1269.055 36.504 36.5L674.01 24660.406z"/>
      <path fill="#0B72B4" d="m610.297 24592.8-1268.885 1262.352 36.503 36.307 1268.886-1262.353z"/>
      <path fill="#733888" d="m656.824 24615.9-1268.885 1262.352 36.503 36.307 1268.886-1262.353z"/>
    </g>
    <g opacity=".1">
      <path fill="#D32724" d="m-366.951 24646.1 1268.878 1269.055-36.504 36.5-1268.878-1269.056z"/>
      <path fill="#D32724" d="m-366.951 24646.1 1268.878 1269.055-36.504 36.5-1268.878-1269.056z"/>
      <path fill="#DA821F" d="m-415.27 24670.2 1268.878 1269.055-36.504 36.5-1268.878-1269.056z"/>
      <path fill="#DA821F" d="m-415.27 24670.2 1268.878 1269.055-36.504 36.5-1268.878-1269.056z"/>
      <path fill="#D32724" d="M-463.588 24694.3 805.29 25963.355l-36.504 36.5-1268.878-1269.056z"/>
      <path fill="#E1D709" d="M-463.588 24694.3 805.29 25963.355l-36.504 36.5-1268.878-1269.056z"/>
      <path fill="#DA821F" d="m-511.906 24718.5 1268.878 1269.055-36.504 36.5-1268.878-1269.056z"/>
      <path fill="#0A9742" d="m-511.906 24718.5 1268.878 1269.055-36.504 36.5-1268.878-1269.056z"/>
      <path fill="#0B72B4" d="m-484.703 24686.8 1268.885 1262.352-36.503 36.307-1268.886-1262.352z"/>
      <path fill="#733888" d="m-531.23 24709.9 1268.885 1262.352-36.503 36.307-1268.886-1262.353z"/>
      <path fill="#D32724" d="m717.584 25731 1268.878 1269.055-36.504 36.5L681.08 25767.498z"/>
      <path fill="#D32724" d="m717.584 25731 1268.878 1269.055-36.504 36.5L681.08 25767.498z"/>
      <path fill="#DA821F" d="m669.266 25755.1 1268.878 1269.055-36.504 36.5-1268.878-1269.056z"/>
      <path fill="#DA821F" d="m669.266 25755.1 1268.878 1269.055-36.504 36.5-1268.878-1269.056z"/>
      <path fill="#D32724" d="m620.947 25779.2 1268.878 1269.055-36.504 36.5-1268.878-1269.056z"/>
      <path fill="#E1D709" d="m620.947 25779.2 1268.878 1269.055-36.504 36.5-1268.878-1269.056z"/>
      <path fill="#DA821F" d="m572.629 25803.4 1268.878 1269.055-36.504 36.5-1268.878-1269.056z"/>
      <path fill="#0A9742" d="m572.629 25803.4 1268.878 1269.055-36.504 36.5-1268.878-1269.056z"/>
      <path fill="#0B72B4" d="m599.832 25766 1268.885 1262.352-36.503 36.307-1268.886-1262.353z"/>
      <path fill="#733888" d="m553.305 25789.1 1268.885 1262.352-36.503 36.307L516.8 25825.406z"/>
    </g>
    <g opacity=".1">
      <path fill="#D32724" d="M1612.088 26457.108 343.209 27726.163l36.505 36.499 1268.878-1269.055z"/>
      <path fill="#D32724" d="M1612.088 26457.108 343.209 27726.163l36.505 36.499 1268.878-1269.055z"/>
      <path fill="#DA821F" d="M1660.407 26481.208 391.53 27750.263l36.504 36.499 1268.878-1269.055z"/>
      <path fill="#DA821F" d="M1660.407 26481.208 391.53 27750.263l36.504 36.499 1268.878-1269.055z"/>
      <path fill="#D32724" d="M1708.728 26505.308 439.849 27774.363l36.504 36.5 1268.879-1269.056z"/>
      <path fill="#E1D709" d="M1708.728 26505.308 439.849 27774.363l36.504 36.5 1268.879-1269.056z"/>
      <path fill="#DA821F" d="M1757.047 26529.508 488.169 27798.563l36.504 36.5 1268.878-1269.056z"/>
      <path fill="#0A9742" d="M1757.047 26529.508 488.169 27798.563l36.504 36.5 1268.878-1269.056z"/>
      <path fill="#0B72B4" d="M1729.83 26488.3 460.945 27750.652l36.503 36.307 1268.886-1262.353z"/>
      <path fill="#733888" d="M1776.36 26511.4 507.475 27773.752l36.503 36.307 1268.886-1262.353z"/>
      <path fill="#D32724" d="m527.553 27542.009-1268.879 1269.055 36.505 36.5 1268.878-1269.056z"/>
      <path fill="#D32724" d="m527.553 27542.009-1268.879 1269.055 36.505 36.5 1268.878-1269.056z"/>
      <path fill="#DA821F" d="m575.87 27566.109-1268.878 1269.055 36.504 36.5 1268.878-1269.056z"/>
      <path fill="#DA821F" d="m575.87 27566.109-1268.878 1269.055 36.504 36.5 1268.878-1269.056z"/>
      <path fill="#D32724" d="M624.19 27590.208-644.69 28859.263l36.504 36.5 1268.879-1269.056z"/>
      <path fill="#E1D709" d="M624.19 27590.208-644.69 28859.263l36.504 36.5 1268.879-1269.056z"/>
      <path fill="#DA821F" d="m672.508 27614.409-1268.879 1269.055 36.505 36.499 1268.878-1269.055z"/>
      <path fill="#0A9742" d="m672.508 27614.409-1268.879 1269.055 36.505 36.499 1268.878-1269.055z"/>
      <path fill="#0B72B4" d="m645.297 27567.4-1268.885 1262.352 36.503 36.307 1268.886-1262.353z"/>
      <path fill="#733888" d="m691.824 27590.5-1268.885 1262.352 36.503 36.307 1268.886-1262.353z"/>
    </g>
    <g opacity=".1">
      <path fill="#D32724" d="m-331.951 27636.6 1268.878 1269.055-36.504 36.5-1268.878-1269.056z"/>
      <path fill="#D32724" d="m-331.951 27636.6 1268.878 1269.055-36.504 36.5-1268.878-1269.056z"/>
      <path fill="#DA821F" d="m-380.27 27660.7 1268.878 1269.055-36.504 36.5-1268.878-1269.056z"/>
      <path fill="#DA821F" d="m-380.27 27660.7 1268.878 1269.055-36.504 36.5-1268.878-1269.056z"/>
      <path fill="#D32724" d="M-428.588 27684.8 840.29 28953.855l-36.504 36.5-1268.878-1269.056z"/>
      <path fill="#E1D709" d="M-428.588 27684.8 840.29 28953.855l-36.504 36.5-1268.878-1269.056z"/>
      <path fill="#DA821F" d="m-476.906 27708.9 1268.878 1269.055-36.504 36.5-1268.878-1269.056z"/>
      <path fill="#0A9742" d="m-476.906 27708.9 1268.878 1269.055-36.504 36.5-1268.878-1269.056z"/>
      <path fill="#0B72B4" d="m-449.703 27661.5 1268.885 1262.352-36.503 36.307-1268.886-1262.353z"/>
      <path fill="#733888" d="m-496.23 27684.6 1268.885 1262.352-36.503 36.307-1268.886-1262.353z"/>
      <path fill="#D32724" d="m752.584 28721.5 1268.878 1269.055-36.504 36.5L716.08 28757.998z"/>
      <path fill="#D32724" d="m752.584 28721.5 1268.878 1269.055-36.504 36.5L716.08 28757.998z"/>
      <path fill="#DA821F" d="m704.266 28745.6 1268.878 1269.055-36.504 36.5-1268.878-1269.056z"/>
      <path fill="#DA821F" d="m704.266 28745.6 1268.878 1269.055-36.504 36.5-1268.878-1269.056z"/>
      <path fill="#D32724" d="m655.947 28769.7 1268.878 1269.055-36.504 36.5-1268.878-1269.056z"/>
      <path fill="#E1D709" d="m655.947 28769.7 1268.878 1269.055-36.504 36.5-1268.878-1269.056z"/>
      <path fill="#DA821F" d="m607.629 28793.8 1268.878 1269.055-36.504 36.5-1268.878-1269.056z"/>
      <path fill="#0A9742" d="m607.629 28793.8 1268.878 1269.055-36.504 36.5-1268.878-1269.056z"/>
      <path fill="#0B72B4" d="m634.832 28740.7 1268.885 1262.352-36.503 36.307-1268.886-1262.353z"/>
      <path fill="#733888" d="m588.305 28763.7 1268.885 1262.352-36.503 36.307L551.8 28800.006z"/>
    </g>
    <g opacity=".1">
      <path fill="#D32724" d="M1556.088 29439.709 287.21 30708.764l36.504 36.5 1268.878-1269.056z"/>
      <path fill="#D32724" d="M1556.088 29439.709 287.21 30708.764l36.504 36.5 1268.878-1269.056z"/>
      <path fill="#DA821F" d="M1604.408 29463.809 335.53 30732.864l36.504 36.499 1268.878-1269.055z"/>
      <path fill="#DA821F" d="M1604.408 29463.809 335.53 30732.864l36.504 36.499 1268.878-1269.055z"/>
      <path fill="#D32724" d="M1652.728 29487.909 383.85 30756.964l36.504 36.5 1268.878-1269.056z"/>
      <path fill="#E1D709" d="M1652.728 29487.909 383.85 30756.964l36.504 36.5 1268.878-1269.056z"/>
      <path fill="#DA821F" d="M1701.048 29512.009 432.17 30781.064l36.504 36.499 1268.878-1269.055z"/>
      <path fill="#0A9742" d="M1701.048 29512.009 432.17 30781.064l36.504 36.499 1268.878-1269.055z"/>
      <path fill="#0B72B4" d="M1673.83 29455.1 404.945 30717.452l36.503 36.307 1268.886-1262.353z"/>
      <path fill="#733888" d="M1720.36 29478.2 451.475 30740.552l36.503 36.307 1268.886-1262.353z"/>
      <path fill="#D32724" d="m471.553 30524.61-1268.878 1269.055 36.504 36.499 1268.878-1269.056z"/>
      <path fill="#D32724" d="m471.553 30524.61-1268.878 1269.055 36.504 36.499 1268.878-1269.056z"/>
      <path fill="#DA821F" d="m519.871 30548.71-1268.878 1269.055 36.504 36.5 1268.878-1269.056z"/>
      <path fill="#DA821F" d="m519.871 30548.71-1268.878 1269.055 36.504 36.5 1268.878-1269.056z"/>
      <path fill="#D32724" d="M568.188 30572.81-700.69 31841.864l36.504 36.499 1268.878-1269.056z"/>
      <path fill="#E1D709" d="M568.188 30572.81-700.69 31841.864l36.504 36.499 1268.878-1269.056z"/>
      <path fill="#DA821F" d="m616.506 30596.91-1268.878 1269.055 36.504 36.5L653.01 30633.408z"/>
      <path fill="#0A9742" d="m616.506 30596.91-1268.878 1269.055 36.504 36.5L653.01 30633.408z"/>
      <path fill="#0B72B4" d="m589.297 30534.3-1268.885 1262.352 36.503 36.307 1268.886-1262.353z"/>
      <path fill="#733888" d="m635.824 30557.4-1268.885 1262.352 36.503 36.307 1268.886-1262.353z"/>
    </g>
    <path fill="#8B8A94" d="M170.967 407.135v-7.734h77.988v146.953h-7.734V407.135h-7.735v139.219h-7.734V407.135h-7.734v139.219h-7.735V407.135h-7.734v139.219h-7.735V407.135h-23.847Zm0-15.469v-7.734h77.988v7.734h-77.988Zm0-15.469v-7.734h77.988v7.734h-77.988Zm205.82 103.34c0 9.31-3.223 16.328-9.668 21.055-6.374 4.655-14.609 6.982-24.707 6.982-13.249 0-23.346-2.148-30.293-6.445l6.231-4.727c4.655 2.292 12.675 3.438 24.062 3.438 8.021 0 14.466-1.576 19.336-4.727 4.87-3.222 7.305-8.414 7.305-15.576v-46.621c0-3.151-.537-5.836-1.612-8.056-1.002-2.292-2.327-4.083-3.974-5.372-1.576-1.289-3.724-2.255-6.446-2.9-2.649-.716-5.227-1.182-7.734-1.396-2.435-.215-5.443-.323-9.023-.323-14.18 0-21.27 3.151-21.27 9.453 0 3.653 1.826 6.303 5.479 7.95 3.724 1.647 8.45 2.47 14.179 2.47 8.881 0 17.045-2.005 24.493-6.015v7.734c-7.663 3.652-15.863 5.479-24.6 5.479-4.941 0-9.382-.538-13.32-1.612-3.939-1.074-7.269-2.972-9.991-5.693-2.649-2.721-3.974-6.159-3.974-10.313 0-5.729 2.685-10.026 8.056-12.89 5.443-2.865 12.426-4.297 20.948-4.297 4.225 0 8.056.251 11.494.752a41.641 41.641 0 0 1 9.883 2.471c3.222 1.145 5.908 2.685 8.056 4.619 2.149 1.862 3.867 4.332 5.157 7.412 1.289 3.008 1.933 6.517 1.933 10.527v46.621Zm15.469 0c0 9.382-2.292 17.438-6.875 24.17-4.512 6.66-10.456 11.566-17.832 14.717-7.376 3.079-15.755 4.619-25.137 4.619-18.19 0-32.298-4.082-42.324-12.246l6.123-4.727c8.522 6.159 20.589 9.239 36.201 9.239 12.246 0 22.308-3.08 30.186-9.239 7.949-6.23 11.923-15.074 11.923-26.533v-46.621c0-6.015-1.145-11.243-3.437-15.683-2.22-4.441-5.407-7.914-9.561-10.42-4.153-2.578-8.808-4.44-13.964-5.586-5.157-1.218-10.922-1.826-17.295-1.826-10.599 0-19.372 2.184-26.319 6.552-6.946 4.369-10.42 10.492-10.42 18.369 0 5.372 1.648 10.026 4.942 13.965 3.294 3.867 7.448 6.696 12.461 8.487 5.084 1.718 10.67 2.578 16.758 2.578 8.951 0 17.438-1.898 25.459-5.694v8.164c-8.379 3.223-16.902 4.834-25.567 4.834-11.601 0-21.484-2.864-29.648-8.593-8.093-5.801-12.139-13.715-12.139-23.741 0-10.097 4.225-18.046 12.676-23.847 8.45-5.873 19.049-8.809 31.797-8.809 7.304 0 14.036.824 20.195 2.471 6.159 1.575 11.637 3.974 16.436 7.197 4.798 3.223 8.557 7.52 11.279 12.891 2.721 5.371 4.082 11.601 4.082 18.691v46.621Zm15.469 0c0 9.31-1.719 17.761-5.157 25.352-3.437 7.519-8.128 13.714-14.072 18.584-5.944 4.798-12.855 8.522-20.732 11.172-7.878 2.578-16.328 3.867-25.352 3.867-11.029 0-21.269-1.576-30.723-4.727-9.453-3.151-17.366-7.591-23.74-13.32l6.016-4.834c5.729 4.87 12.783 8.63 21.162 11.279 8.45 2.578 17.546 3.867 27.285 3.867 7.949 0 15.397-1.11 22.344-3.33 6.946-2.291 13.034-5.55 18.262-9.775 5.299-4.225 9.453-9.596 12.461-16.113 3.007-6.589 4.511-13.929 4.511-22.022v-46.621c0-8.092-1.575-15.29-4.726-21.592-3.08-6.373-7.377-11.53-12.891-15.468-5.443-3.939-11.745-6.911-18.906-8.916-7.09-2.006-14.824-3.008-23.203-3.008-14.825 0-27.25 3.688-37.276 11.064-9.954 7.305-14.931 17.08-14.931 29.326 0 6.303 1.325 11.996 3.974 17.08 2.722 5.085 6.374 9.275 10.957 12.569 4.584 3.223 9.776 5.729 15.576 7.519 5.873 1.719 12.068 2.579 18.584 2.579 8.881 0 17.546-1.683 25.997-5.049v7.841c-8.809 3.08-17.546 4.62-26.211 4.62-10.313 0-19.802-2.006-28.467-6.016-8.594-4.01-15.433-9.632-20.518-16.865-5.084-7.233-7.627-15.326-7.627-24.278 0-9.524 2.686-17.975 8.057-25.351 5.443-7.448 12.676-13.106 21.699-16.973 9.095-3.867 19.157-5.801 30.186-5.801 9.381 0 18.082 1.218 26.103 3.653 8.093 2.435 15.218 5.98 21.377 10.635 6.231 4.583 11.1 10.527 14.61 17.832 3.58 7.233 5.371 15.433 5.371 24.599v46.621Zm15.468 0c0 11.315-2.148 21.699-6.445 31.153-4.225 9.381-9.99 17.223-17.295 23.525-7.305 6.23-15.863 11.064-25.674 14.502-9.811 3.509-20.267 5.264-31.367 5.264-13.392 0-25.889-2.113-37.49-6.338-11.53-4.154-21.198-9.991-29.004-17.51l6.23-4.619c7.09 6.588 15.863 11.709 26.319 15.361 10.527 3.581 21.842 5.371 33.945 5.371 10.098 0 19.551-1.468 28.359-4.404 8.809-3.008 16.543-7.233 23.204-12.676 6.66-5.514 11.888-12.532 15.683-21.055 3.867-8.522 5.801-18.046 5.801-28.574v-46.621c0-8.164-1.289-15.719-3.867-22.666-2.578-7.018-6.159-13.07-10.742-18.154-4.584-5.085-10.026-9.417-16.329-12.998-6.23-3.581-13.105-6.231-20.625-7.949-7.447-1.791-15.325-2.686-23.632-2.686-9.239 0-18.011 1.361-26.319 4.082-8.235 2.65-15.397 6.374-21.484 11.172-6.087 4.798-10.921 10.706-14.502 17.725-3.581 7.018-5.371 14.645-5.371 22.88 0 6.589 1.182 12.819 3.545 18.692 2.435 5.872 5.693 10.993 9.775 15.361 4.154 4.297 8.952 8.057 14.395 11.279 5.442 3.151 11.279 5.551 17.509 7.198a78.583 78.583 0 0 0 19.122 2.363c9.238 0 17.975-1.611 26.211-4.834v7.949c-8.594 2.793-17.474 4.19-26.641 4.19-9.382 0-18.405-1.468-27.07-4.405-8.594-3.007-16.185-7.125-22.774-12.353-6.588-5.3-11.888-11.888-15.898-19.766-3.939-7.877-5.908-16.435-5.908-25.674 0-9.309 1.969-17.939 5.908-25.888 4.01-8.021 9.417-14.753 16.22-20.196 6.804-5.514 14.789-9.811 23.956-12.89 9.238-3.08 19.013-4.619 29.326-4.619 11.53 0 22.272 1.611 32.226 4.834 10.026 3.222 18.799 7.841 26.319 13.857 7.591 6.016 13.535 13.643 17.832 22.881 4.368 9.167 6.552 19.372 6.552 30.615v46.621Zm133.741-111.074h8.056l-43.828 177.891h-8.057l43.829-177.891Zm-60.372 30.938-1.826 7.734h-57.793v-7.734h59.619Zm3.653-15.469-1.826 7.734h-61.446v-7.734h63.272Zm3.437-15.469-1.504 7.734h-65.205v-7.734h66.709Zm5.479 0h7.949l-43.828 177.891h-7.949l43.828-177.891Zm15.898 0h8.057l-43.828 177.891h-8.057l43.828-177.891Zm16.006 0h7.949l-43.828 177.891h-7.949l43.828-177.891Zm46.944 139.434c-7.448-14.753-11.172-31.582-11.172-50.489 0-18.906 3.724-35.735 11.172-50.488 7.447-14.753 17.688-26.139 30.722-34.16 13.034-8.021 27.715-12.031 44.043-12.031s31.009 4.01 44.043 12.031c13.034 8.021 23.275 19.407 30.723 34.16 7.448 14.753 11.172 31.582 11.172 50.488 0 18.907-3.724 35.736-11.172 50.489-7.448 14.752-17.689 26.139-30.723 34.16-13.034 8.021-27.715 12.031-44.043 12.031s-31.009-4.01-44.043-12.031c-13.034-8.021-23.275-19.408-30.722-34.16Zm103.554-87.442c7.162 8.809 10.742 21.127 10.742 36.953 0 15.827-3.58 28.181-10.742 37.061-7.09 8.808-16.686 13.213-28.789 13.213-12.103 0-21.735-4.405-28.896-13.213-7.09-8.88-10.635-21.234-10.635-37.061 0-15.826 3.545-28.144 10.635-36.953 7.161-8.88 16.793-13.32 28.896-13.32 12.103 0 21.699 4.44 28.789 13.32Zm10.957-10.957c10.17 11.888 15.254 27.858 15.254 47.91 0 20.052-5.084 36.022-15.254 47.911-10.097 11.888-23.346 17.832-39.746 17.832-16.4 0-29.684-5.944-39.853-17.832-10.098-11.889-15.147-27.859-15.147-47.911s5.049-36.022 15.147-47.91c10.169-11.888 23.453-17.832 39.853-17.832 16.4 0 29.649 5.944 39.746 17.832Zm21.592 5.264c6.087 12.318 9.131 26.533 9.131 42.646 0 16.114-3.044 30.365-9.131 42.754-6.016 12.318-14.359 21.807-25.029 28.467-10.671 6.66-22.774 9.99-36.309 9.99-13.535 0-25.638-3.33-36.308-9.99-10.671-6.66-19.05-16.149-25.137-28.467-6.016-12.389-9.024-26.64-9.024-42.754 0-16.113 3.008-30.328 9.024-42.646 6.087-12.389 14.466-21.914 25.137-28.574 10.67-6.661 22.773-9.991 36.308-9.991s25.638 3.33 36.309 9.991c10.67 6.66 19.013 16.185 25.029 28.574Zm-84.756 11.064c-5.586 7.305-8.379 17.832-8.379 31.582s2.793 24.278 8.379 31.582c5.658 7.305 13.464 10.957 23.418 10.957 9.955 0 17.725-3.652 23.311-10.957 5.657-7.304 8.486-17.832 8.486-31.582s-2.829-24.277-8.486-31.582c-5.586-7.304-13.356-10.957-23.311-10.957-9.954 0-17.76 3.653-23.418 10.957Zm-10.957-10.849c-8.594 10.312-12.89 24.456-12.89 42.431 0 17.976 4.296 32.155 12.89 42.539 8.666 10.313 20.124 15.469 34.375 15.469 14.251 0 25.674-5.156 34.268-15.469 8.665-10.384 12.998-24.563 12.998-42.539 0-17.975-4.333-32.119-12.998-42.431-8.594-10.384-20.017-15.576-34.268-15.576-14.251 0-25.709 5.192-34.375 15.576Zm-10.957-10.957c-11.601 13.392-17.402 31.188-17.402 53.388 0 22.201 5.801 39.997 17.402 53.389 11.673 13.392 26.784 20.088 45.332 20.088 18.548 0 33.623-6.696 45.225-20.088 11.673-13.392 17.51-31.188 17.51-53.389 0-22.2-5.837-39.996-17.51-53.388-11.602-13.392-26.677-20.088-45.225-20.088-18.548 0-33.659 6.696-45.332 20.088Zm-26.963 17.08c-3.939 11.1-5.908 23.203-5.908 36.308 0 13.106 1.969 25.244 5.908 36.416 3.939 11.101 9.346 20.482 16.221 28.145 6.947 7.663 15.218 13.642 24.814 17.939 9.668 4.297 20.088 6.446 31.26 6.446s21.556-2.149 31.152-6.446c9.668-4.297 17.94-10.276 24.815-17.939 6.947-7.663 12.389-17.044 16.328-28.145 3.939-11.172 5.908-23.31 5.908-36.416 0-13.105-1.969-25.208-5.908-36.308-3.939-11.172-9.381-20.589-16.328-28.252-6.875-7.663-15.147-13.643-24.815-17.94-9.596-4.297-19.98-6.445-31.152-6.445s-21.592 2.148-31.26 6.445c-9.596 4.297-17.867 10.277-24.814 17.94-6.875 7.663-12.282 17.08-16.221 28.252Zm173.809-21.699v-30.938h7.734v30.938h-7.734Zm0 23.203v-7.735c3.008 0 5.514-.322 7.519-.967 2.077-.644 3.617-1.36 4.619-2.148 1.003-.788 1.755-2.005 2.256-3.652.573-1.647.896-2.972.967-3.975.072-1.074.108-2.65.108-4.726v-30.938h7.734v30.938c0 1.575-.036 2.828-.107 3.759 0 .931-.144 2.328-.43 4.19-.287 1.79-.716 3.294-1.289 4.511-.573 1.146-1.433 2.471-2.578 3.975a12.52 12.52 0 0 1-4.082 3.652c-1.576.86-3.617 1.612-6.123 2.256-2.507.573-5.372.86-8.594.86Zm0 15.468v-7.734c3.366 0 6.409-.179 9.131-.537 2.793-.43 5.192-.931 7.197-1.504s3.796-1.432 5.371-2.578c1.576-1.146 2.865-2.184 3.867-3.115 1.003-1.003 1.862-2.328 2.578-3.975.716-1.719 1.254-3.151 1.612-4.297.358-1.146.608-2.757.752-4.834.214-2.077.322-3.688.322-4.834.072-1.217.107-2.972.107-5.263v-30.938h7.735v30.938c0 2.291-.036 4.117-.108 5.478 0 1.289-.143 3.151-.429 5.586-.215 2.435-.538 4.404-.967 5.908-.43 1.504-1.11 3.33-2.041 5.479-.86 2.148-1.934 3.903-3.223 5.263-1.217 1.361-2.829 2.829-4.834 4.405-1.933 1.504-4.154 2.685-6.66 3.545-2.507.859-5.514 1.575-9.023 2.148-3.438.573-7.234.859-11.387.859Zm127.724 34.698h-12.246c-15.039 0-26.604-3.044-34.697-9.131-8.092-6.159-12.139-14.61-12.139-25.352 0-10.026 4.763-18.369 14.288-25.029 9.524-6.732 22.88-10.098 40.068-10.098 11.458 0 22.129 1.576 32.012 4.727 9.954 3.151 18.225 7.591 24.814 13.32l-6.016 4.834c-5.872-4.798-13.248-8.522-22.128-11.172-8.881-2.649-18.441-3.974-28.682-3.974-15.111 0-26.677 2.578-34.697 7.734-7.95 5.156-11.924 11.709-11.924 19.658 0 8.594 3.258 15.218 9.775 19.873 6.589 4.584 16.364 6.875 29.326 6.875h11.817c15.254 0 26.927 3.08 35.019 9.239 8.164 6.087 12.246 14.502 12.246 25.244 0 10.026-4.762 18.405-14.287 25.136-9.524 6.661-22.881 9.991-40.068 9.991-11.458 0-22.165-1.576-32.119-4.727-9.883-3.151-18.119-7.591-24.707-13.32l6.015-4.834c5.873 4.798 13.249 8.522 22.129 11.172 8.88 2.649 18.441 3.974 28.682 3.974 15.111 0 26.641-2.578 34.59-7.734 8.021-5.156 12.031-11.709 12.031-19.658 0-8.594-3.294-15.183-9.883-19.766-6.517-4.655-16.256-6.982-29.219-6.982Zm0 15.468h-12.246c-19.909 0-35.27-4.511-46.084-13.535-10.813-9.095-16.22-21.233-16.22-36.416 0-6.946 1.539-13.463 4.619-19.551 3.079-6.087 7.484-11.422 13.213-16.005 5.8-4.655 13.177-8.308 22.129-10.957 8.951-2.722 18.906-4.082 29.863-4.082 13.821 0 26.748 2.112 38.779 6.337 12.031 4.154 22.057 9.991 30.078 17.51l-6.23 4.619c-7.305-6.588-16.436-11.673-27.393-15.254-10.957-3.652-22.702-5.478-35.234-5.478-19.336 0-34.518 4.082-45.547 12.246-11.029 8.164-16.543 18.369-16.543 30.615 0 12.963 4.727 23.239 14.18 30.83 9.453 7.591 22.916 11.387 40.39 11.387h11.817c21.198 0 31.797 6.338 31.797 19.014 0 5.729-3.259 10.455-9.776 14.179-6.445 3.653-16.149 5.479-29.111 5.479-9.095 0-17.546-1.038-25.352-3.115-7.806-2.149-14.251-5.192-19.336-9.131l6.123-4.727c8.952 6.159 21.807 9.239 38.565 9.239 10.742 0 18.62-1.11 23.633-3.331 5.013-2.22 7.519-5.084 7.519-8.593 0-4.082-1.754-6.983-5.263-8.701-3.51-1.719-9.633-2.579-18.37-2.579Zm0-30.937h-12.246c-20.911 0-31.367-6.338-31.367-19.014 0-5.729 3.223-10.42 9.668-14.072 6.517-3.724 16.257-5.586 29.219-5.586 9.095 0 17.545 1.074 25.351 3.223 7.806 2.077 14.252 5.084 19.336 9.023l-6.123 4.727c-8.952-6.159-21.806-9.239-38.564-9.239-10.742 0-18.62 1.11-23.633 3.331-5.013 2.22-7.519 5.084-7.519 8.593 0 4.082 1.754 6.983 5.263 8.701 3.509 1.719 9.632 2.579 18.369 2.579h12.246c19.909 0 35.271 4.547 46.084 13.642 10.814 9.024 16.221 21.126 16.221 36.309 0 6.946-1.54 13.463-4.619 19.551-3.079 6.087-7.52 11.458-13.32 16.113-5.73 4.583-13.07 8.235-22.022 10.957-8.952 2.65-18.906 3.974-29.863 3.974-13.822 0-26.748-2.076-38.779-6.23-12.032-4.225-22.058-10.098-30.079-17.617l6.231-4.619c7.305 6.588 16.435 11.709 27.393 15.361 10.957 3.581 22.701 5.371 35.234 5.371 19.336 0 34.518-4.082 45.547-12.246 11.028-8.164 16.543-18.369 16.543-30.615 0-12.963-4.727-23.239-14.18-30.83-9.453-7.591-22.917-11.387-40.391-11.387Z"/>
    <path fill="#000" d="M167.967 405.135v-7.734h77.988v146.953h-7.734V405.135h-7.735v139.219h-7.734V405.135h-7.734v139.219h-7.735V405.135h-7.734v139.219h-7.735V405.135h-23.847Zm0-15.469v-7.734h77.988v7.734h-77.988Zm0-15.469v-7.734h77.988v7.734h-77.988Zm205.82 103.34c0 9.31-3.223 16.328-9.668 21.055-6.374 4.655-14.609 6.982-24.707 6.982-13.249 0-23.346-2.148-30.293-6.445l6.231-4.727c4.655 2.292 12.675 3.438 24.062 3.438 8.021 0 14.466-1.576 19.336-4.727 4.87-3.222 7.305-8.414 7.305-15.576v-46.621c0-3.151-.537-5.836-1.612-8.056-1.002-2.292-2.327-4.083-3.974-5.372-1.576-1.289-3.724-2.255-6.446-2.9-2.649-.716-5.227-1.182-7.734-1.396-2.435-.215-5.443-.323-9.023-.323-14.18 0-21.27 3.151-21.27 9.453 0 3.653 1.826 6.303 5.479 7.95 3.724 1.647 8.45 2.47 14.179 2.47 8.881 0 17.045-2.005 24.493-6.015v7.734c-7.663 3.652-15.863 5.479-24.6 5.479-4.941 0-9.382-.538-13.32-1.612-3.939-1.074-7.269-2.972-9.991-5.693-2.649-2.721-3.974-6.159-3.974-10.313 0-5.729 2.685-10.026 8.056-12.89 5.443-2.865 12.426-4.297 20.948-4.297 4.225 0 8.056.251 11.494.752a41.641 41.641 0 0 1 9.883 2.471c3.222 1.145 5.908 2.685 8.056 4.619 2.149 1.862 3.867 4.332 5.157 7.412 1.289 3.008 1.933 6.517 1.933 10.527v46.621Zm15.469 0c0 9.382-2.292 17.438-6.875 24.17-4.512 6.66-10.456 11.566-17.832 14.717-7.376 3.079-15.755 4.619-25.137 4.619-18.19 0-32.298-4.082-42.324-12.246l6.123-4.727c8.522 6.159 20.589 9.239 36.201 9.239 12.246 0 22.308-3.08 30.186-9.239 7.949-6.23 11.923-15.074 11.923-26.533v-46.621c0-6.015-1.145-11.243-3.437-15.683-2.22-4.441-5.407-7.914-9.561-10.42-4.153-2.578-8.808-4.44-13.964-5.586-5.157-1.218-10.922-1.826-17.295-1.826-10.599 0-19.372 2.184-26.319 6.552-6.946 4.369-10.42 10.492-10.42 18.369 0 5.372 1.648 10.026 4.942 13.965 3.294 3.867 7.448 6.696 12.461 8.487 5.084 1.718 10.67 2.578 16.758 2.578 8.951 0 17.438-1.898 25.459-5.694v8.164c-8.379 3.223-16.902 4.834-25.567 4.834-11.601 0-21.484-2.864-29.648-8.593-8.093-5.801-12.139-13.715-12.139-23.741 0-10.097 4.225-18.046 12.676-23.847 8.45-5.873 19.049-8.809 31.797-8.809 7.304 0 14.036.824 20.195 2.471 6.159 1.575 11.637 3.974 16.436 7.197 4.798 3.223 8.557 7.52 11.279 12.891 2.721 5.371 4.082 11.601 4.082 18.691v46.621Zm15.469 0c0 9.31-1.719 17.761-5.157 25.352-3.437 7.519-8.128 13.714-14.072 18.584-5.944 4.798-12.855 8.522-20.732 11.172-7.878 2.578-16.328 3.867-25.352 3.867-11.029 0-21.269-1.576-30.723-4.727-9.453-3.151-17.366-7.591-23.74-13.32l6.016-4.834c5.729 4.87 12.783 8.63 21.162 11.279 8.45 2.578 17.546 3.867 27.285 3.867 7.949 0 15.397-1.11 22.344-3.33 6.946-2.291 13.034-5.55 18.262-9.775 5.299-4.225 9.453-9.596 12.461-16.113 3.007-6.589 4.511-13.929 4.511-22.022v-46.621c0-8.092-1.575-15.29-4.726-21.592-3.08-6.373-7.377-11.53-12.891-15.468-5.443-3.939-11.745-6.911-18.906-8.916-7.09-2.006-14.824-3.008-23.203-3.008-14.825 0-27.25 3.688-37.276 11.064-9.954 7.305-14.931 17.08-14.931 29.326 0 6.303 1.325 11.996 3.974 17.08 2.722 5.085 6.374 9.275 10.957 12.569 4.584 3.223 9.776 5.729 15.576 7.519 5.873 1.719 12.068 2.579 18.584 2.579 8.881 0 17.546-1.683 25.997-5.049v7.841c-8.809 3.08-17.546 4.62-26.211 4.62-10.313 0-19.802-2.006-28.467-6.016-8.594-4.01-15.433-9.632-20.518-16.865-5.084-7.233-7.627-15.326-7.627-24.278 0-9.524 2.686-17.975 8.057-25.351 5.443-7.448 12.676-13.106 21.699-16.973 9.095-3.867 19.157-5.801 30.186-5.801 9.381 0 18.082 1.218 26.103 3.653 8.093 2.435 15.218 5.98 21.377 10.635 6.231 4.583 11.1 10.527 14.61 17.832 3.58 7.233 5.371 15.433 5.371 24.599v46.621Zm15.468 0c0 11.315-2.148 21.699-6.445 31.153-4.225 9.381-9.99 17.223-17.295 23.525-7.305 6.23-15.863 11.064-25.674 14.502-9.811 3.509-20.267 5.264-31.367 5.264-13.392 0-25.889-2.113-37.49-6.338-11.53-4.154-21.198-9.991-29.004-17.51l6.23-4.619c7.09 6.588 15.863 11.709 26.319 15.361 10.527 3.581 21.842 5.371 33.945 5.371 10.098 0 19.551-1.468 28.359-4.404 8.809-3.008 16.543-7.233 23.204-12.676 6.66-5.514 11.888-12.532 15.683-21.055 3.867-8.522 5.801-18.046 5.801-28.574v-46.621c0-8.164-1.289-15.719-3.867-22.666-2.578-7.018-6.159-13.07-10.742-18.154-4.584-5.085-10.026-9.417-16.329-12.998-6.23-3.581-13.105-6.231-20.625-7.949-7.447-1.791-15.325-2.686-23.632-2.686-9.239 0-18.011 1.361-26.319 4.082-8.235 2.65-15.397 6.374-21.484 11.172-6.087 4.798-10.921 10.706-14.502 17.725-3.581 7.018-5.371 14.645-5.371 22.88 0 6.589 1.182 12.819 3.545 18.692 2.435 5.872 5.693 10.993 9.775 15.361 4.154 4.297 8.952 8.057 14.395 11.279 5.442 3.151 11.279 5.551 17.509 7.198a78.583 78.583 0 0 0 19.122 2.363c9.238 0 17.975-1.611 26.211-4.834v7.949c-8.594 2.793-17.474 4.19-26.641 4.19-9.382 0-18.405-1.468-27.07-4.405-8.594-3.007-16.185-7.125-22.774-12.353-6.588-5.3-11.888-11.888-15.898-19.766-3.939-7.877-5.908-16.435-5.908-25.674 0-9.309 1.969-17.939 5.908-25.888 4.01-8.021 9.417-14.753 16.22-20.196 6.804-5.514 14.789-9.811 23.956-12.89 9.238-3.08 19.013-4.619 29.326-4.619 11.53 0 22.272 1.611 32.226 4.834 10.026 3.222 18.799 7.841 26.319 13.857 7.591 6.016 13.535 13.643 17.832 22.881 4.368 9.167 6.552 19.372 6.552 30.615v46.621Zm133.741-111.074h8.056l-43.828 177.891h-8.057l43.829-177.891Zm-60.372 30.938-1.826 7.734h-57.793v-7.734h59.619Zm3.653-15.469-1.826 7.734h-61.446v-7.734h63.272Zm3.437-15.469-1.504 7.734h-65.205v-7.734h66.709Zm5.479 0h7.949l-43.828 177.891h-7.949l43.828-177.891Zm15.898 0h8.057l-43.828 177.891h-8.057l43.828-177.891Zm16.006 0h7.949l-43.828 177.891h-7.949l43.828-177.891Zm46.944 139.434c-7.448-14.753-11.172-31.582-11.172-50.489 0-18.906 3.724-35.735 11.172-50.488 7.447-14.753 17.688-26.139 30.722-34.16 13.034-8.021 27.715-12.031 44.043-12.031s31.009 4.01 44.043 12.031c13.034 8.021 23.275 19.407 30.723 34.16 7.448 14.753 11.172 31.582 11.172 50.488 0 18.907-3.724 35.736-11.172 50.489-7.448 14.752-17.689 26.139-30.723 34.16-13.034 8.021-27.715 12.031-44.043 12.031s-31.009-4.01-44.043-12.031c-13.034-8.021-23.275-19.408-30.722-34.16Zm103.554-87.442c7.162 8.809 10.742 21.127 10.742 36.953 0 15.827-3.58 28.181-10.742 37.061-7.09 8.808-16.686 13.213-28.789 13.213-12.103 0-21.735-4.405-28.896-13.213-7.09-8.88-10.635-21.234-10.635-37.061 0-15.826 3.545-28.144 10.635-36.953 7.161-8.88 16.793-13.32 28.896-13.32 12.103 0 21.699 4.44 28.789 13.32Zm10.957-10.957c10.17 11.888 15.254 27.858 15.254 47.91 0 20.052-5.084 36.022-15.254 47.911-10.097 11.888-23.346 17.832-39.746 17.832-16.4 0-29.684-5.944-39.853-17.832-10.098-11.889-15.147-27.859-15.147-47.911s5.049-36.022 15.147-47.91c10.169-11.888 23.453-17.832 39.853-17.832 16.4 0 29.649 5.944 39.746 17.832Zm21.592 5.264c6.087 12.318 9.131 26.533 9.131 42.646 0 16.114-3.044 30.365-9.131 42.754-6.016 12.318-14.359 21.807-25.029 28.467-10.671 6.66-22.774 9.99-36.309 9.99-13.535 0-25.638-3.33-36.308-9.99-10.671-6.66-19.05-16.149-25.137-28.467-6.016-12.389-9.024-26.64-9.024-42.754 0-16.113 3.008-30.328 9.024-42.646 6.087-12.389 14.466-21.914 25.137-28.574 10.67-6.661 22.773-9.991 36.308-9.991s25.638 3.33 36.309 9.991c10.67 6.66 19.013 16.185 25.029 28.574Zm-84.756 11.064c-5.586 7.305-8.379 17.832-8.379 31.582s2.793 24.278 8.379 31.582c5.658 7.305 13.464 10.957 23.418 10.957 9.955 0 17.725-3.652 23.311-10.957 5.657-7.304 8.486-17.832 8.486-31.582s-2.829-24.277-8.486-31.582c-5.586-7.304-13.356-10.957-23.311-10.957-9.954 0-17.76 3.653-23.418 10.957Zm-10.957-10.849c-8.594 10.312-12.89 24.456-12.89 42.431 0 17.976 4.296 32.155 12.89 42.539 8.666 10.313 20.124 15.469 34.375 15.469 14.251 0 25.674-5.156 34.268-15.469 8.665-10.384 12.998-24.563 12.998-42.539 0-17.975-4.333-32.119-12.998-42.431-8.594-10.384-20.017-15.576-34.268-15.576-14.251 0-25.709 5.192-34.375 15.576Zm-10.957-10.957c-11.601 13.392-17.402 31.188-17.402 53.388 0 22.201 5.801 39.997 17.402 53.389 11.673 13.392 26.784 20.088 45.332 20.088 18.548 0 33.623-6.696 45.225-20.088 11.673-13.392 17.51-31.188 17.51-53.389 0-22.2-5.837-39.996-17.51-53.388-11.602-13.392-26.677-20.088-45.225-20.088-18.548 0-33.659 6.696-45.332 20.088Zm-26.963 17.08c-3.939 11.1-5.908 23.203-5.908 36.308 0 13.106 1.969 25.244 5.908 36.416 3.939 11.101 9.346 20.482 16.221 28.145 6.947 7.663 15.218 13.642 24.814 17.939 9.668 4.297 20.088 6.446 31.26 6.446s21.556-2.149 31.152-6.446c9.668-4.297 17.94-10.276 24.815-17.939 6.947-7.663 12.389-17.044 16.328-28.145 3.939-11.172 5.908-23.31 5.908-36.416 0-13.105-1.969-25.208-5.908-36.308-3.939-11.172-9.381-20.589-16.328-28.252-6.875-7.663-15.147-13.643-24.815-17.94-9.596-4.297-19.98-6.445-31.152-6.445s-21.592 2.148-31.26 6.445c-9.596 4.297-17.867 10.277-24.814 17.94-6.875 7.663-12.282 17.08-16.221 28.252Zm173.809-21.699v-30.938h7.734v30.938h-7.734Zm0 23.203v-7.735c3.008 0 5.514-.322 7.519-.967 2.077-.644 3.617-1.36 4.619-2.148 1.003-.788 1.755-2.005 2.256-3.652.573-1.647.896-2.972.967-3.975.072-1.074.108-2.65.108-4.726v-30.938h7.734v30.938c0 1.575-.036 2.828-.107 3.759 0 .931-.144 2.328-.43 4.19-.287 1.79-.716 3.294-1.289 4.511-.573 1.146-1.433 2.471-2.578 3.975a12.52 12.52 0 0 1-4.082 3.652c-1.576.86-3.617 1.612-6.123 2.256-2.507.573-5.372.86-8.594.86Zm0 15.468v-7.734c3.366 0 6.409-.179 9.131-.537 2.793-.43 5.192-.931 7.197-1.504s3.796-1.432 5.371-2.578c1.576-1.146 2.865-2.184 3.867-3.115 1.003-1.003 1.862-2.328 2.578-3.975.716-1.719 1.254-3.151 1.612-4.297.358-1.146.608-2.757.752-4.834.214-2.077.322-3.688.322-4.834.072-1.217.107-2.972.107-5.263v-30.938h7.735v30.938c0 2.291-.036 4.117-.108 5.478 0 1.289-.143 3.151-.429 5.586-.215 2.435-.538 4.404-.967 5.908-.43 1.504-1.11 3.33-2.041 5.479-.86 2.148-1.934 3.903-3.223 5.263-1.217 1.361-2.829 2.829-4.834 4.405-1.933 1.504-4.154 2.685-6.66 3.545-2.507.859-5.514 1.575-9.023 2.148-3.438.573-7.234.859-11.387.859Zm127.724 34.698h-12.246c-15.039 0-26.604-3.044-34.697-9.131-8.092-6.159-12.139-14.61-12.139-25.352 0-10.026 4.763-18.369 14.288-25.029 9.524-6.732 22.88-10.098 40.068-10.098 11.458 0 22.129 1.576 32.012 4.727 9.954 3.151 18.225 7.591 24.814 13.32l-6.016 4.834c-5.872-4.798-13.248-8.522-22.128-11.172-8.881-2.649-18.441-3.974-28.682-3.974-15.111 0-26.677 2.578-34.697 7.734-7.95 5.156-11.924 11.709-11.924 19.658 0 8.594 3.258 15.218 9.775 19.873 6.589 4.584 16.364 6.875 29.326 6.875h11.817c15.254 0 26.927 3.08 35.019 9.239 8.164 6.087 12.246 14.502 12.246 25.244 0 10.026-4.762 18.405-14.287 25.136-9.524 6.661-22.881 9.991-40.068 9.991-11.458 0-22.165-1.576-32.119-4.727-9.883-3.151-18.119-7.591-24.707-13.32l6.015-4.834c5.873 4.798 13.249 8.522 22.129 11.172 8.88 2.649 18.441 3.974 28.682 3.974 15.111 0 26.641-2.578 34.59-7.734 8.021-5.156 12.031-11.709 12.031-19.658 0-8.594-3.294-15.183-9.883-19.766-6.517-4.655-16.256-6.982-29.219-6.982Zm0 15.468h-12.246c-19.909 0-35.27-4.511-46.084-13.535-10.813-9.095-16.22-21.233-16.22-36.416 0-6.946 1.539-13.463 4.619-19.551 3.079-6.087 7.484-11.422 13.213-16.005 5.8-4.655 13.177-8.308 22.129-10.957 8.951-2.722 18.906-4.082 29.863-4.082 13.821 0 26.748 2.112 38.779 6.337 12.031 4.154 22.057 9.991 30.078 17.51l-6.23 4.619c-7.305-6.588-16.436-11.673-27.393-15.254-10.957-3.652-22.702-5.478-35.234-5.478-19.336 0-34.518 4.082-45.547 12.246-11.029 8.164-16.543 18.369-16.543 30.615 0 12.963 4.727 23.239 14.18 30.83 9.453 7.591 22.916 11.387 40.39 11.387h11.817c21.198 0 31.797 6.338 31.797 19.014 0 5.729-3.259 10.455-9.776 14.179-6.445 3.653-16.149 5.479-29.111 5.479-9.095 0-17.546-1.038-25.352-3.115-7.806-2.149-14.251-5.192-19.336-9.131l6.123-4.727c8.952 6.159 21.807 9.239 38.565 9.239 10.742 0 18.62-1.11 23.633-3.331 5.013-2.22 7.519-5.084 7.519-8.593 0-4.082-1.754-6.983-5.263-8.701-3.51-1.719-9.633-2.579-18.37-2.579Zm0-30.937h-12.246c-20.911 0-31.367-6.338-31.367-19.014 0-5.729 3.223-10.42 9.668-14.072 6.517-3.724 16.257-5.586 29.219-5.586 9.095 0 17.545 1.074 25.351 3.223 7.806 2.077 14.252 5.084 19.336 9.023l-6.123 4.727c-8.952-6.159-21.806-9.239-38.564-9.239-10.742 0-18.62 1.11-23.633 3.331-5.013 2.22-7.519 5.084-7.519 8.593 0 4.082 1.754 6.983 5.263 8.701 3.509 1.719 9.632 2.579 18.369 2.579h12.246c19.909 0 35.271 4.547 46.084 13.642 10.814 9.024 16.221 21.126 16.221 36.309 0 6.946-1.54 13.463-4.619 19.551-3.079 6.087-7.52 11.458-13.32 16.113-5.73 4.583-13.07 8.235-22.022 10.957-8.952 2.65-18.906 3.974-29.863 3.974-13.822 0-26.748-2.076-38.779-6.23-12.032-4.225-22.058-10.098-30.079-17.617l6.231-4.619c7.305 6.588 16.435 11.709 27.393 15.361 10.957 3.581 22.701 5.371 35.234 5.371 19.336 0 34.518-4.082 45.547-12.246 11.028-8.164 16.543-18.369 16.543-30.615 0-12.963-4.727-23.239-14.18-30.83-9.453-7.591-22.917-11.387-40.391-11.387Z"/>
    <path fill="#D32724" d="M-114 951.289 1588.09 382.57l16.36 48.96-1702.09 568.72z"/>
    <path fill="#D32724" d="M-114 951.289 1588.09 382.57l16.36 48.96-1702.09 568.72z"/>
    <path fill="#DA821F" d="m-114 1005.29 1702.09-568.719 16.36 48.96-1702.09 568.72z"/>
    <path fill="#DA821F" d="m-114 1005.29 1702.09-568.719 16.36 48.96-1702.09 568.72z"/>
    <path fill="#D32724" d="m-113 1059.29 1702.09-568.719 16.36 48.96-1702.09 568.72z"/>
    <path fill="#E1D709" d="m-113 1059.29 1702.09-568.719 16.36 48.96-1702.09 568.72z"/>
    <path fill="#DA821F" d="m-113 1113.29 1702.09-568.719 16.36 48.96-1702.09 568.72z"/>
    <path fill="#0A9742" d="m-113 1113.29 1702.09-568.719 16.36 48.96-1702.09 568.72z"/>
    <path fill="#0B72B4" d="m-13 1127.301 1702.09-565.715 16.358 48.702L3.358 1176.004z"/>
    <path fill="#733888" d="m-13 1179.031 1702.09-565.715 16.358 48.702L3.358 1227.733z"/>
    <path stroke="#000" stroke-width="3" d="m-159.102 954.236 1699.245-567.768 96.944 290.138-1699.245 567.769z"/>
    <path fill="#959494" d="m1511.216 5760.579-.397 35.998 14.999.166.397-35.998z"/>
    <ellipse fill="#959494" rx="30" ry="36.5" transform="matrix(0 1 1 0 1521.3 5740.57)"/>
    <ellipse fill="#C4C4C4" rx="29.5" ry="36.5" transform="matrix(0 1 1 0 1523.3 5738.07)"/>
    <path fill="#959494" d="m1420.216 5764.58-.398 35.997 14.999.166.398-35.998z"/>
    <ellipse fill="#959494" rx="30" ry="36.5" transform="matrix(0 1 1 0 1430.3 5744.57)"/>
    <path fill="#C4C4C4" d="m1422.086 5773.739-.274 24.837 14.999.166.274-24.837z"/>
    <path stroke="#C4C4C4" stroke-width=".8" d="M1436.8 5774.07c-5.83-1.33-8.59-1-14.5 0"/>
    <ellipse fill="#C4C4C4" rx="29.5" ry="36.5" transform="matrix(0 1 1 0 1432.3 5742.07)"/>
    <path fill="#C4C4C4" d="M1425.8 5773.57v2h8v-2z"/>
    <path fill="#959494" d="m1332.216 5769.58-.398 35.998 14.999.165.398-35.998z"/>
    <ellipse fill="#959494" rx="30" ry="36.5" transform="matrix(0 1 1 0 1342.3 5749.57)"/>
    <path fill="#C4C4C4" d="m1334.085 5778.74-.274 24.838 14.999.165.274-24.837z"/>
    <path stroke="#C4C4C4" stroke-width=".8" d="M1348.8 5779.07c-5.83-1.33-8.59-1-14.5 0"/>
    <ellipse fill="#C4C4C4" rx="29.5" ry="36.5" transform="matrix(0 1 1 0 1344.3 5747.07)"/>
    <path fill="#C4C4C4" d="M1337.8 5778.57v2h8v-2z"/>
    <path fill="#873B20" d="m1269.884 5954.29 624.763 18.183-3.235 113.184-624.762-18.182zM1270.56 5919.34l624.927-24.622-4.377-113.145-624.927 24.622z"/>
    <ellipse cx="1267.78" cy="5817.27" fill="#873B20" rx="10.5" ry="25.764" transform="rotate(90 1267.78 5817.27)"/>
    <ellipse fill="#873B20" rx="10.488" ry="40.09" transform="matrix(.35368 .93537 -.9332 .35937 1230.77 5826.96)"/>
    <path stroke="#873B20" d="M1212.29 5824.27c-2.8 2.56-14.27 5.01-23.29 4.5m19.82 214.5c-3.4-2.03-9.16-3.78-17.34-4"/>
    <ellipse fill="#873B20" rx="10.486" ry="40.097" transform="matrix(.3805 -.92478 -.9223 -.38647 1230.77 6042.96)"/>
    <ellipse cx="1258.86" cy="6051.27" fill="#873B20" rx="10.5" ry="25.764" transform="rotate(90 1258.86 6051.27)"/>
    <path fill="#873B20" d="m1212.743 5828.097 2.53 211.609-23.927.291-2.53-211.609z"/>
    <path fill="#873B20" d="m1206.34 6039.24-1.468 2.608-4.308-2.47 1.468-2.608zM1208.32 5829.65l-.82-2.883-4.763 1.38.821 2.883zM1910.87 5825.77v218h-698.587v-218z"/>
    <path fill="#959494" d="m1335.614 6088.574-.267-22.342 14.607-.15.267 22.342z"/>
    <ellipse cx="1345.3" cy="6107.09" fill="#959494" rx="27.789" ry="36.5" transform="rotate(-90 1345.3 6107.09)"/>
    <path fill="#C4C4C4" d="m1337.094 6080.094-.148-12.389 15-.153.147 12.389z"/>
    <path stroke="#C4C4C4" stroke-width=".8" d="M1351.8 6079.76c-5.83 1.24-8.59.93-14.5 0"/>
    <path stroke="#C4C4C4" stroke-width="1.5" d="M1351.8 6065.95c-5.83-1.32-9.09-1.11-15-.12"/>
    <ellipse cx="1347.3" cy="6109.41" fill="#C4C4C4" rx="27.326" ry="36.5" transform="rotate(-90 1347.3 6109.41)"/>
    <path fill="#C4C4C4" d="M1340.8 6080.23v-1.853h8v1.853zM1336.8 6067.74v-1.853h15v1.853z"/>
    <path fill="#C4C4C4" d="M1341.8 6065.89v-.926h8v.926z"/>
    <path fill="#959494" d="m1424.614 6091.184-.266-22.341 14.607-.15.267 22.341z"/>
    <ellipse cx="1434.3" cy="6109.7" fill="#959494" rx="27.789" ry="36.5" transform="rotate(-90 1434.3 6109.7)"/>
    <path fill="#C4C4C4" d="m1426.094 6082.704-.148-12.39 15-.153.147 12.39z"/>
    <path stroke="#C4C4C4" stroke-width=".8" d="M1440.8 6082.37c-5.83 1.24-8.59.92-14.5 0"/>
    <path stroke="#C4C4C4" stroke-width="1.5" d="M1440.8 6068.55c-5.83-1.32-9.09-1.1-15-.12"/>
    <ellipse cx="1436.3" cy="6112.01" fill="#C4C4C4" rx="27.326" ry="36.5" transform="rotate(-90 1436.3 6112.01)"/>
    <path fill="#C4C4C4" d="M1429.8 6082.83v-1.853h8v1.853zM1425.8 6070.35v-1.853h15v1.853zM1430.8 6068.49v-.926h8v.926z"/>
    <ellipse cx="1526.3" cy="6111.7" fill="#959494" rx="27.789" ry="36.5" transform="rotate(-90 1526.3 6111.7)"/>
    <ellipse cx="1528.3" cy="6114.01" fill="#C4C4C4" rx="27.326" ry="36.5" transform="rotate(-90 1528.3 6114.01)"/>
    <path fill="#BA512D" d="m1269.76 5944.99 630.498 18.162-3.26 113.184-630.498-18.162zM1271.61 5915.34l630.661-24.627-4.418-113.145-630.661 24.627z"/>
    <ellipse cx="1268.8" cy="5813.27" fill="#BA512D" rx="10.5" ry="26" transform="rotate(90 1268.8 5813.27)"/>
    <ellipse fill="#BA512D" rx="10.5" ry="40.41" transform="rotate(69.114 -3611.515 3805.467)"/>
    <path stroke="#BA512D" d="M1212.8 5820.27c-2.82 2.56-14.4 5.01-23.5 4.5m20 214.5c-3.43-2.03-9.24-3.78-17.5-4"/>
    <ellipse fill="#BA512D" rx="10.5" ry="40.41" transform="matrix(.38348 -.92355 -.92355 -.38347 1231.45 6038.96)"/>
    <ellipse cx="1259.8" cy="6047.27" fill="#BA512D" rx="10.5" ry="26" transform="rotate(90 1259.8 6047.27)"/>
    <path fill="#BA512D" d="m1213.25 5824.12 2.548 211.61-24.146.29-2.548-211.61z"/>
    <path fill="#BA512D" d="m1206.823 6035.22-1.482 2.609-4.347-2.47 1.482-2.609zM1208.789 5825.672l-.828-2.884-4.806 1.38.828 2.884zM1917.8 5821.77v218h-705v-218z"/>
    <ellipse fill="#959494" rx="21.76" ry="24.48" transform="matrix(0 1 1 0 1530.6 5837.25)"/>
    <ellipse fill="#C4C4C4" rx="21.76" ry="24.48" transform="matrix(0 1 1 0 1531.32 5835.33)"/>
    <ellipse fill="#959494" rx="21.76" ry="24.48" transform="matrix(0 1 1 0 1439.6 5843.25)"/>
    <ellipse fill="#C4C4C4" rx="21.76" ry="24.48" transform="matrix(0 1 1 0 1440.32 5841.33)"/>
    <path fill="#959494" d="m1435.5 5836.8-1.345 3.624 11.155 3.272 1.345-3.624z"/>
    <ellipse fill="#959494" rx="5.222" ry="5.875" transform="matrix(0 1 1 0 1439.72 5842.07)"/>
    <path fill="#AEADAD" stroke="#AEADAD" stroke-width=".3" d="M1441.16 5843.3c3.18 0 5.72-2.28 5.72-5.07 0-2.78-2.54-5.07-5.72-5.07-3.18 0-5.73 2.29-5.73 5.07 0 2.79 2.55 5.07 5.73 5.07Z"/>
    <ellipse fill="#959494" rx="21.76" ry="24.48" transform="matrix(0 1 1 0 1350.6 5848.25)"/>
    <ellipse fill="#C4C4C4" rx="21.76" ry="24.48" transform="matrix(0 1 1 0 1351.32 5846.33)"/>
    <path fill="#959494" d="m1346.5 5841.8-1.345 3.624 11.155 3.272 1.345-3.624z"/>
    <ellipse fill="#959494" rx="5.222" ry="5.875" transform="matrix(0 1 1 0 1350.72 5847.07)"/>
    <path fill="#AEADAD" stroke="#AEADAD" stroke-width=".3" d="M1352.16 5848.3c3.18 0 5.72-2.28 5.72-5.07 0-2.78-2.54-5.07-5.72-5.07-3.18 0-5.73 2.29-5.73 5.07 0 2.79 2.55 5.07 5.73 5.07Z"/>
    <ellipse fill="#959494" rx="21.76" ry="24.48" transform="matrix(0 1 1 0 1534.6 6020.25)"/>
    <ellipse fill="#C4C4C4" rx="21.76" ry="24.48" transform="matrix(0 1 1 0 1535.32 6018.33)"/>
    <ellipse fill="#959494" rx="21.76" ry="24.48" transform="matrix(0 1 1 0 1444.6 6018.25)"/>
    <ellipse fill="#C4C4C4" rx="21.76" ry="24.48" transform="matrix(0 1 1 0 1445.32 6016.33)"/>
    <path fill="#959494" d="m1440.5 6011.8-1.345 3.624 11.155 3.272 1.345-3.624z"/>
    <ellipse fill="#959494" rx="5.222" ry="5.875" transform="matrix(0 1 1 0 1444.72 6017.07)"/>
    <path fill="#AEADAD" stroke="#AEADAD" stroke-width=".3" d="M1446.16 6018.3c3.18 0 5.72-2.28 5.72-5.07 0-2.78-2.54-5.07-5.72-5.07-3.18 0-5.73 2.29-5.73 5.07 0 2.79 2.55 5.07 5.73 5.07Z"/>
    <ellipse fill="#959494" rx="21.76" ry="24.48" transform="matrix(0 1 1 0 1355.6 6014.25)"/>
    <ellipse fill="#C4C4C4" rx="21.76" ry="24.48" transform="matrix(0 1 1 0 1356.32 6012.33)"/>
    <path fill="#959494" d="m1351.5 6007.8-1.345 3.624 11.155 3.272 1.345-3.624z"/>
    <ellipse fill="#959494" rx="5.222" ry="5.875" transform="matrix(0 1 1 0 1355.72 6013.07)"/>
    <path fill="#AEADAD" stroke="#AEADAD" stroke-width=".3" d="M1357.16 6014.3c3.18 0 5.72-2.28 5.72-5.07 0-2.78-2.54-5.07-5.72-5.07-3.18 0-5.73 2.29-5.73 5.07 0 2.79 2.55 5.07 5.73 5.07Z"/>
    <path fill="#FFF2DB" d="m1192.239 5825.222 1.557 211.834-17.86.135-1.557-211.833z"/>
    <path fill="#864925" d="M-686.535 5826.4h1864.41v210.462h-1864.41z"/>
    <path fill="#864925" d="m1177.36 6036.9-1857.272 30.02v-60.05l1857.272 30.03ZM1178 5826.4l-1857.752-25.83v51.67L1178 5826.4Z"/>
    <path fill="url(#b)" d="M1027.8 5824.57h215v9h-215z" transform="rotate(90 1027.8 5824.57)"/>
    <path fill="url(#c)" d="M891.801 5822.57h219v9h-219z" transform="rotate(90 891.801 5822.57)"/>
    <path fill="url(#d)" d="M760.801 5820.57h223v9h-223z" transform="rotate(90 760.801 5820.57)"/>
    <path fill="url(#e)" d="M636.801 5818.57h227v9h-227z" transform="rotate(90 636.801 5818.57)"/>
    <path fill="url(#f)" d="M521.801 5817.57h230v9h-230z" transform="rotate(90 521.801 5817.57)"/>
    <path fill="url(#g)" d="M410.801 5815.57h234v9h-234z" transform="rotate(90 410.801 5815.57)"/>
    <path fill="url(#h)" d="M306.801 5814.57h236v9h-236z" transform="rotate(90 306.801 5814.57)"/>
    <path fill="url(#i)" d="M208.801 5812.57h240v9h-240z" transform="rotate(90 208.801 5812.57)"/>
    <path fill="url(#j)" d="M116.801 5811.57h242v9h-242z" transform="rotate(90 116.801 5811.57)"/>
    <path fill="url(#k)" d="M29.801 5810.57h245v9h-245z" transform="rotate(90 29.8 5810.57)"/>
    <circle cx="152.301" cy="5936.07" r="12.5" fill="#FFFFFE" transform="rotate(90 152.301 5936.07)"/>
    <circle cx="570.801" cy="5937.57" r="14" fill="#FFFFFE" transform="rotate(90 570.801 5937.57)"/>
    <circle cx="352.301" cy="6005.07" r="12.5" fill="#FFFFFE" transform="rotate(90 352.301 6005.07)"/>
    <circle cx="352.301" cy="5865.07" r="12.5" fill="#FFFFFE" transform="rotate(90 352.301 5865.07)"/>
    <path fill="#393737" d="m1350.8 6010.77.002-2-157.221-.13-.002 2z" opacity=".5"/>
    <path fill="#393737" d="m1350.861 6011.248-.11-1.997-157.351 8.665.11 1.997zM1714.332 6021.393l.352-2.98-521.421-61.539-.352 2.98zM1797.399 6026.589l.245-1.985-604.921-74.64-.245 1.985zM1620.734 6019.495l.186-1.992-427.782-39.895-.186 1.992zM1531.974 6015.305l.239-2.99-338.83-26.994-.238 2.99z" opacity=".5"/>
    <path fill="#393737" d="m1621.31 5833.57.364 2.978-428.596 52.359-.364-2.978z" opacity=".6"/>
    <path fill="#393737" d="m1802.03 5826.54.468 2.963-608.796 96.076-.468-2.964zM1533.4 5838.85l.223 1.987-340.74 38.28-.223-1.987zM1709.92 5829.73l.312 1.976-517.052 81.624-.312-1.975zM1349.72 5849.3l.089 2.999-157.338 4.664-.089-2.999z" opacity=".5"/>
    <path fill="#393737" d="m1349.85 5848.72-.07 3-157.697-3.635.069-2.999z" opacity=".5"/>
    <path fill="#DE8D65" d="m1349.88 5849.03-.165 2.995-157.501-8.676.165-2.995zM1350.862 6008.248l-.11-1.997-157.352 8.665.11 1.997z"/>
    <path fill="#DE8D65" d="m1349.8 5849.64.002 3-157.406.13-.003-3zM1350.8 6007.77l.002-2-157.221-.13-.002 2z"/>
    <path fill="#DE8D65" d="m1440.62 5844.67.147 2.996-91.2 4.472-.147-2.996zM1440.623 6014.143l.147-2.997-78.422-3.845-.147 2.997zM1533.61 5838.77l.2 1.99-341.149 34.442-.2-1.99zM1531.782 6015.087l.27-2.988-338.522-30.611-.27 2.988zM1621.55 5833.5l.337 2.981-429.05 48.497-.337-2.98zM1620.504 6019.595l.205-1.99-427.367-44.118-.205 1.99zM1711.19 5829.46l.299 1.978-518.544 78.32-.299-1.977zM1714.113 6021.314l.373-2.977-520.956-65.36-.373 2.977zM1802.4 5826.89l.445 2.967-609.522 91.355-.445-2.967zM1797.014 6027.589l.264-1.983-604.152-80.622-.265 1.983z"/>
    <path fill="#393737" d="m1177.92 5844.74-.04 3-1874.989-24.545.04-3zM1177.81 5854.11l-.04 3-1874.849-24.543.04-3zM1177.87 5885.91l-.026 3-1874.989-16.363.026-3zM1177.8 5922.57v3h-1875v-3zM1177.69 5957.71l.026 3-1873.839 16.32-.026-3zM1177.93 5985.82l.042 3-1874.027 26.168-.042-3zM1177.77 5876.91l-.017 2-1874.9-16.362.018-2zM1177.8 5911.57v2h-1875v-2zM1177.69 5949.7l.017 2-1874.828 16.329-.018-2zM1177.79 5977.83l.028 2-1873.877 26.166-.028-2zM1177.72 6008.58l.035 2-1873.765 32.706-.035-2zM1177.78 6018.58l.035 2-1873.825 32.707-.035-2z" opacity=".5"/>
  </g>
  <defs>
    <linearGradient id="b" x1="1135.3" x2="1135.3" y1="5824.57" y2="5833.57" gradientUnits="userSpaceOnUse">
      <stop stop-color="#EBE9E9"/>
      <stop offset=".631" stop-color="#908F8F"/>
    </linearGradient>
    <linearGradient id="c" x1="1001.3" x2="1001.3" y1="5822.57" y2="5831.57" gradientUnits="userSpaceOnUse">
      <stop stop-color="#EBE9E9"/>
      <stop offset=".631" stop-color="#908F8F"/>
    </linearGradient>
    <linearGradient id="d" x1="872.301" x2="872.301" y1="5820.57" y2="5829.57" gradientUnits="userSpaceOnUse">
      <stop stop-color="#EBE9E9"/>
      <stop offset=".631" stop-color="#908F8F"/>
    </linearGradient>
    <linearGradient id="e" x1="750.301" x2="750.301" y1="5818.57" y2="5827.57" gradientUnits="userSpaceOnUse">
      <stop stop-color="#EBE9E9"/>
      <stop offset=".631" stop-color="#908F8F"/>
    </linearGradient>
    <linearGradient id="f" x1="636.801" x2="636.801" y1="5817.57" y2="5826.57" gradientUnits="userSpaceOnUse">
      <stop stop-color="#EBE9E9"/>
      <stop offset=".631" stop-color="#908F8F"/>
    </linearGradient>
    <linearGradient id="g" x1="527.801" x2="527.801" y1="5815.57" y2="5824.57" gradientUnits="userSpaceOnUse">
      <stop stop-color="#EBE9E9"/>
      <stop offset=".631" stop-color="#908F8F"/>
    </linearGradient>
    <linearGradient id="h" x1="424.801" x2="424.801" y1="5814.57" y2="5823.57" gradientUnits="userSpaceOnUse">
      <stop stop-color="#EBE9E9"/>
      <stop offset=".631" stop-color="#908F8F"/>
    </linearGradient>
    <linearGradient id="i" x1="328.801" x2="328.801" y1="5812.57" y2="5821.57" gradientUnits="userSpaceOnUse">
      <stop stop-color="#EBE9E9"/>
      <stop offset=".631" stop-color="#908F8F"/>
    </linearGradient>
    <linearGradient id="j" x1="237.801" x2="237.801" y1="5811.57" y2="5820.57" gradientUnits="userSpaceOnUse">
      <stop stop-color="#EBE9E9"/>
      <stop offset=".631" stop-color="#908F8F"/>
    </linearGradient>
    <linearGradient id="k" x1="152.301" x2="152.301" y1="5810.57" y2="5819.57" gradientUnits="userSpaceOnUse">
      <stop stop-color="#EBE9E9"/>
      <stop offset=".631" stop-color="#908F8F"/>
    </linearGradient>
    <clipPath id="a">
      <path fill="#fff" d="M0 0h1512v31674H0z"/>
    </clipPath>
  </defs>
</svg>
