<svg xmlns="http://www.w3.org/2000/svg" xmlns:xlink="http://www.w3.org/1999/xlink" width="1512" height="9059" fill="none" viewBox="0 0 1512 9059">
  <g clip-path="url(#a)">
    <path fill="#FFF8F3" d="M0 0h1512v9059H0z"/>
    <g opacity=".2">
      <path fill="#D15C83" d="M2055.058 3165.835 783.79 1899.174l-42.305 42.459 1271.268 1266.661z"/>
      <path fill="#DED087" d="M2027.028 3222.255 755.76 1955.594l-42.307 42.46 1271.268 1266.662z"/>
      <path fill="#0EB0D6" d="M1998.999 3278.675 727.73 2012.013l-42.307 42.461 1271.268 1266.662z"/>
      <path fill="#DA821F" d="M1970.968 3335.094 699.7 2068.434l-42.307 42.46 1271.268 1266.661z"/>
      <path fill="#655447" d="M1943.38 3390.63 672.114 2123.97l-42.307 42.46L1901.07 3433.09l42.31-42.46Z"/>
      <path fill="#D15C83" d="M827.045 1942.687-444.223 676.026l-42.306 42.459L784.74 1985.146z"/>
      <path fill="#DED087" d="M799.013 1999.107-472.256 732.445l-42.306 42.461L756.706 2041.567z"/>
      <path fill="#0EB0D6" d="M770.981 2055.527-500.287 788.865l-42.307 42.461L728.674 2097.988z"/>
      <path fill="#DA821F" d="M742.95 2111.947-528.318 845.285l-42.307 42.461L700.643 2154.408z"/>
      <path fill="#655447" d="M715.363 2167.48-555.904 900.813l-42.307 42.461L673.056 2209.94l42.307-42.46Z"/>
      <circle r="75.25" stroke="#534F4F" stroke-width="10" transform="scale(-1 1) rotate(-44.9 1844.56 1399.116)"/>
      <path fill="#534F4F" d="m508.918 1658.009-7.084-7.059-55.763 55.959 7.083 7.059zM452.8 1714.329l-7.083-7.06-55.764 55.96 7.084 7.059z"/>
      <path fill="#534F4F" d="m449.922 1713.668-.018-10-79 .138.018 10z"/>
      <path fill="#534F4F" d="m456.073 1709.82-10 .017.138 79 10-.017z"/>
      <circle r="75.25" stroke="#000" stroke-width="10" transform="scale(-1 1) rotate(-44.9 1841.18 1407.227)"/>
      <path fill="#000" d="m515.629 1658-7.084-7.06-55.764 55.96 7.084 7.058zM459.512 1714.308l-7.084-7.058-55.763 55.959 7.083 7.058z"/>
      <path fill="#000" d="m456.632 1713.658-.018-10-79 .138.018 10z"/>
      <circle r="75.25" stroke="#534F4F" stroke-width="10" transform="scale(-1 1) rotate(-44.9 2356.17 2586.83)"/>
      <path fill="#534F4F" d="m1198.08 2365.549-7.084-7.06-55.764 55.96 7.083 7.058zM1141.959 2421.868l-7.083-7.059-55.764 55.96 7.083 7.058z"/>
      <path fill="#534F4F" d="m1139.079 2421.21-.018-10-79 .137.018 10z"/>
      <path fill="#534F4F" d="m1145.23 2417.36-10 .017.138 79 10-.017z"/>
      <circle r="75.25" stroke="#000" stroke-width="10" transform="scale(-1 1) rotate(-44.9 2352.79 2594.94)"/>
      <path fill="#000" d="m1204.789 2365.528-7.083-7.059-55.764 55.959 7.083 7.059zM1148.67 2421.848l-7.084-7.058-55.764 55.958 7.083 7.06z"/>
      <path fill="#000" d="m1145.789 2421.2-.017-10-79 .137.017 10z"/>
      <path fill="#000" d="m1151.94 2417.34-10 .017.138 79 10-.017z"/>
      <circle r="75.25" stroke="#000" stroke-width="10" transform="scale(-1 1) rotate(-44.9 2352.79 2594.94)"/>
      <path fill="#000" d="m1204.789 2365.528-7.083-7.059-55.764 55.959 7.083 7.059zM1148.67 2421.848l-7.084-7.058-55.764 55.958 7.083 7.06z"/>
      <path fill="#000" d="m1145.789 2421.2-.017-10-79 .137.017 10z"/>
      <path fill="#000" d="m1151.94 2417.34-10 .017.138 79 10-.017zM462.784 1709.81l-10 .017.138 79 10-.017z"/>
      <path fill="url(#b)" d="M0 0h148v147H0z" transform="scale(-1 1) rotate(-26.42 4021.68 2753.275)"/>
      <circle r="75.25" stroke="#534F4F" stroke-width="10" transform="scale(-1 1) rotate(-44.9 2629.436 3214.92)"/>
      <path fill="#534F4F" d="m1561.72 2741.628-7.084-7.059-55.764 55.96 7.084 7.058zM1505.609 2797.948l-7.083-7.06-55.764 55.96 7.083 7.058z"/>
      <path fill="#534F4F" d="m1502.729 2797.288-.018-10-79 .138.018 10z"/>
      <path fill="#534F4F" d="m1508.88 2793.44-10 .017.138 79 10-.017z"/>
      <circle r="75.25" stroke="#000" stroke-width="10" transform="scale(-1 1) rotate(-44.9 2626.056 3223.03)"/>
      <path fill="#000" d="m1568.43 2741.618-7.084-7.058-55.764 55.958 7.084 7.06zM1512.32 2797.928l-7.084-7.059-55.764 55.959 7.083 7.059z"/>
      <path fill="#000" d="m1509.439 2797.278-.018-10-79 .138.018 10z"/>
      <path fill="#000" d="m1515.59 2793.43-10 .017.138 79 10-.017z"/>
      <path fill="url(#c)" d="M0 0h148v147H0z" transform="scale(-1 1) rotate(-26.42 2916.54 953.924)"/>
    </g>
    <g opacity=".1">
      <path fill="#D15C83" d="M-587.673 4716.27 683.595 3449.609l42.306 42.46-1271.268 1266.66z"/>
      <path fill="#DED087" d="M-559.641 4772.69 711.627 3506.029l42.307 42.46-1271.268 1266.662z"/>
      <path fill="#0EB0D6" d="M-531.609 4829.11 739.659 3562.449l42.307 42.46-1271.268 1266.662z"/>
      <path fill="#DA821F" d="M-503.578 4885.53 767.69 3618.869l42.307 42.46-1271.268 1266.662z"/>
      <path fill="#655447" d="M-475.991 4941.05 795.276 3674.39l42.307 42.46-1271.267 1266.66-42.307-42.46Z"/>
      <path fill="#D15C83" d="m640.346 3493.11 1271.268-1266.661 42.306 42.46-1271.268 1266.66z"/>
      <path fill="#DED087" d="m668.378 3549.53 1271.268-1266.661 42.307 42.46L710.685 3591.992z"/>
      <path fill="#0EB0D6" d="m696.409 3605.95 1271.268-1266.661 42.307 42.46L738.716 3648.412z"/>
      <path fill="#DA821F" d="m724.441 3662.37 1271.268-1266.661 42.307 42.46L766.748 3704.832z"/>
      <path fill="#655447" d="M752.028 3717.9 2023.29 2451.24l42.31 42.46L794.335 3760.36l-42.307-42.46Z"/>
      <circle cx="1017.78" cy="3260.51" r="75.25" stroke="#534F4F" stroke-width="10" transform="rotate(-44.9 1017.78 3260.51)"/>
      <path fill="#534F4F" d="m958.473 3208.44 7.083-7.059 55.764 55.96-7.083 7.058zM1014.59 3264.75l7.083-7.059 55.764 55.96-7.083 7.058z"/>
      <path fill="#534F4F" d="m1017.47 3264.1.017-10 79 .138-.017 10z"/>
      <path fill="#534F4F" d="m1011.32 3260.25 10 .017-.138 79-10-.017z"/>
      <circle cx="1011.07" cy="3260.5" r="75.25" stroke="#000" stroke-width="10" transform="rotate(-44.9 1011.07 3260.5)"/>
      <path fill="#000" d="m951.762 3208.42 7.083-7.059 55.764 55.96-7.083 7.058zM1007.88 3264.73l7.083-7.059 55.764 55.96-7.083 7.058z"/>
      <path fill="#000" d="m1010.76 3264.08.017-10 79 .138-.017 10z"/>
      <circle cx="328.618" cy="3968.05" r="75.25" stroke="#534F4F" stroke-width="10" transform="rotate(-44.9 328.618 3968.05)"/>
      <path fill="#534F4F" d="m269.312 3915.98 7.083-7.059 55.764 55.96-7.083 7.058zM325.429 3972.29l7.083-7.059 55.764 55.96-7.083 7.058z"/>
      <path fill="#534F4F" d="m328.309 3971.64.017-10 79 .138-.017 10z"/>
      <path fill="#534F4F" d="m322.157 3967.79 10 .017-.138 79-10-.017z"/>
      <circle cx="321.91" cy="3968.03" r="75.25" stroke="#000" stroke-width="10" transform="rotate(-44.9 321.91 3968.03)"/>
      <path fill="#000" d="m262.604 3915.96 7.083-7.059 55.764 55.96-7.083 7.058zM318.721 3972.27l7.083-7.059 55.764 55.96-7.083 7.058z"/>
      <path fill="#000" d="m321.601 3971.62.017-10 79 .138-.017 10z"/>
      <path fill="#000" d="m315.449 3967.77 10 .017-.138 79-10-.017z"/>
      <circle cx="321.91" cy="3968.03" r="75.25" stroke="#000" stroke-width="10" transform="rotate(-44.9 321.91 3968.03)"/>
      <path fill="#000" d="m262.604 3915.96 7.083-7.059 55.764 55.96-7.083 7.058zM318.721 3972.27l7.083-7.059 55.764 55.96-7.083 7.058z"/>
      <path fill="#000" d="m321.601 3971.62.017-10 79 .138-.017 10z"/>
      <path fill="#000" d="m315.449 3967.77 10 .017-.138 79-10-.017zM1004.61 3260.23l10 .017-.138 79-10-.017z"/>
      <path fill="url(#d)" d="M662.365 3627.43h148v147h-148z" transform="rotate(-26.42 662.365 3627.43)"/>
      <circle cx="-35.025" cy="4344.13" r="75.25" stroke="#534F4F" stroke-width="10" transform="rotate(-44.9 -35.025 4344.13)"/>
      <path fill="#534F4F" d="m-38.215 4348.37 7.083-7.059 55.764 55.96-7.083 7.058z"/>
      <path fill="#534F4F" d="m-35.335 4347.72.017-10 79 .138-.017 10z"/>
      <circle cx="-41.736" cy="4344.12" r="75.25" stroke="#000" stroke-width="10" transform="rotate(-44.9 -41.736 4344.12)"/>
      <path fill="#000" d="m-44.925 4348.35 7.083-7.059 55.764 55.96-7.083 7.058z"/>
      <path fill="#000" d="m-42.045 4347.7.017-10 79 .138-.017 10z"/>
      <path fill="url(#e)" d="M1347.56 2947.76h148v147h-148z" transform="rotate(-26.42 1347.56 2947.76)"/>
    </g>
    <g opacity=".1">
      <path fill="#D15C83" d="M2077.599 6200.26 806.33 4933.6l-42.306 42.459L2035.293 6242.72z"/>
      <path fill="#DED087" d="M2049.57 6256.68 778.3 4990.02l-42.307 42.46 1271.268 1266.662z"/>
      <path fill="#0EB0D6" d="M2021.54 6313.1 750.27 5046.44l-42.307 42.46 1271.268 1266.662z"/>
      <path fill="#DA821F" d="M1993.51 6369.52 722.242 5102.86l-42.307 42.46 1271.268 1266.662z"/>
      <path fill="#655447" d="M1965.92 6425.05 694.652 5158.39l-42.307 42.46L1923.61 6467.51l42.31-42.46Z"/>
      <path fill="#D15C83" d="M849.584 4977.103-421.684 3710.442l-42.306 42.459L807.278 5019.562z"/>
      <path fill="#DED087" d="M821.551 5033.523-449.717 3766.86l-42.307 42.461L779.244 5075.984z"/>
      <path fill="#0EB0D6" d="M793.52 5089.942-477.748 3823.281l-42.307 42.46L751.213 5132.404z"/>
      <path fill="#DA821F" d="M765.489 5146.363-505.78 3879.702l-42.307 42.46L723.182 5188.824z"/>
      <path fill="#655447" d="M737.901 5201.9-533.366 3935.23l-42.307 42.47L695.594 5244.36l42.307-42.46Z"/>
      <circle r="75.25" stroke="#534F4F" stroke-width="10" transform="scale(-1 1) rotate(-44.9 5505.217 2943.599)"/>
      <path fill="#534F4F" d="m531.456 4692.437-7.083-7.059-55.764 55.96 7.084 7.058zM475.34 4748.747l-7.084-7.058-55.764 55.958 7.083 7.06z"/>
      <path fill="#534F4F" d="m472.457 4748.097-.017-10-79 .138.018 10z"/>
      <path fill="#534F4F" d="m478.611 4744.25-10 .017.138 79 10-.017z"/>
      <circle r="75.25" stroke="#000" stroke-width="10" transform="scale(-1 1) rotate(-44.9 5501.838 2951.71)"/>
      <path fill="#000" d="m538.167 4692.417-7.084-7.059-55.763 55.959 7.083 7.059zM482.05 4748.727l-7.083-7.059-55.764 55.96 7.083 7.058z"/>
      <path fill="#000" d="m479.17 4748.077-.018-10-79 .138.018 10z"/>
      <circle r="75.25" stroke="#534F4F" stroke-width="10" transform="scale(-1 1) rotate(-44.9 6016.826 4131.315)"/>
      <path fill="#534F4F" d="m1220.62 5399.967-7.084-7.059-55.764 55.96 7.084 7.058zM1164.5 5456.287l-7.084-7.059-55.763 55.959 7.083 7.059z"/>
      <path fill="#534F4F" d="m1161.62 5455.627-.018-10-79 .138.018 10z"/>
      <path fill="#534F4F" d="m1167.77 5451.78-10 .017.138 79 10-.017z"/>
      <circle r="75.25" stroke="#000" stroke-width="10" transform="scale(-1 1) rotate(-44.9 6013.447 4139.425)"/>
      <path fill="#000" d="m1227.32 5399.956-7.083-7.058-55.764 55.959 7.083 7.058zM1171.21 5456.266l-7.084-7.059-55.764 55.96 7.084 7.058z"/>
      <path fill="#000" d="m1168.33 5455.617-.018-10-79 .138.018 10z"/>
      <path fill="#000" d="m1174.48 5451.77-10 .017.138 79 10-.017z"/>
      <circle r="75.25" stroke="#000" stroke-width="10" transform="scale(-1 1) rotate(-44.9 6013.447 4139.425)"/>
      <path fill="#000" d="m1227.32 5399.956-7.083-7.058-55.764 55.959 7.083 7.058zM1171.21 5456.266l-7.084-7.059-55.764 55.96 7.084 7.058z"/>
      <path fill="#000" d="m1168.33 5455.617-.018-10-79 .138.018 10z"/>
      <path fill="#000" d="m1174.48 5451.77-10 .017.138 79 10-.017zM485.322 4744.23l-10 .017.138 79 10-.017z"/>
      <path fill="url(#f)" d="M0 0h148v147H0z" transform="scale(-1 1) rotate(-26.42 10473.991 4318.493)"/>
      <circle r="75.25" stroke="#534F4F" stroke-width="10" transform="scale(-1 1) rotate(-44.9 6290.097 4759.393)"/>
      <path fill="#534F4F" d="m1528.14 5832.366-7.084-7.059-55.764 55.96 7.083 7.058z"/>
      <path fill="#534F4F" d="m1525.26 5831.706-.018-10-79 .138.017 10z"/>
      <circle r="75.25" stroke="#000" stroke-width="10" transform="scale(-1 1) rotate(-44.9 6286.713 4767.515)"/>
      <path fill="#000" d="m1534.85 5832.346-7.084-7.058-55.764 55.958 7.084 7.06z"/>
      <path fill="#000" d="m1531.97 5831.696-.018-10-79 .138.018 10z"/>
      <path fill="url(#g)" d="M0 0h148v147H0z" transform="scale(-1 1) rotate(-26.42 9368.852 2519.144)"/>
      <path fill="#16FFBD" d="M3316 2641c0 828.43-671.57 1500-1500 1500-828.427 0-1500-671.57-1500-1500s671.573-1500 1500-1500c828.43 0 1500 671.57 1500 1500Z" opacity=".1"/>
    </g>
    <g opacity=".1">
      <path fill="#D15C83" d="M-563.673 7704.27 707.595 6437.609l42.306 42.46-1271.268 1266.66z"/>
      <path fill="#DED087" d="M-535.641 7760.69 735.627 6494.029l42.307 42.46-1271.268 1266.662z"/>
      <path fill="#0EB0D6" d="M-507.609 7817.11 763.659 6550.449l42.307 42.46-1271.268 1266.662z"/>
      <path fill="#DA821F" d="M-479.578 7873.53 791.69 6606.869l42.307 42.46-1271.268 1266.662z"/>
      <path fill="#655447" d="M-451.991 7929.05 819.276 6662.39l42.307 42.46-1271.267 1266.66-42.307-42.46Z"/>
      <path fill="#D15C83" d="m664.346 6481.11 1271.268-1266.661 42.306 42.46-1271.268 1266.66z"/>
      <path fill="#DED087" d="m692.378 6537.53 1271.268-1266.661 42.307 42.46L734.685 6579.992z"/>
      <path fill="#0EB0D6" d="m720.409 6593.95 1271.268-1266.661 42.307 42.46L762.716 6636.412z"/>
      <path fill="#DA821F" d="m748.441 6650.37 1271.268-1266.661 42.307 42.46L790.748 6692.832z"/>
      <path fill="#655447" d="M776.028 6705.9 2047.29 5439.24l42.31 42.46L818.335 6748.36l-42.307-42.46Z"/>
      <circle cx="1041.78" cy="6248.51" r="75.25" stroke="#534F4F" stroke-width="10" transform="rotate(-44.9 1041.78 6248.51)"/>
      <path fill="#534F4F" d="m982.473 6196.44 7.083-7.059 55.764 55.96-7.083 7.058zM1038.59 6252.75l7.083-7.059 55.764 55.96-7.083 7.058z"/>
      <path fill="#534F4F" d="m1041.47 6252.1.017-10 79 .138-.017 10z"/>
      <path fill="#534F4F" d="m1035.32 6248.25 10 .017-.138 79-10-.017z"/>
      <circle cx="1035.07" cy="6248.5" r="75.25" stroke="#000" stroke-width="10" transform="rotate(-44.9 1035.07 6248.5)"/>
      <path fill="#000" d="m975.762 6196.42 7.083-7.059 55.764 55.96-7.083 7.058zM1031.88 6252.73l7.083-7.059 55.764 55.96-7.083 7.058z"/>
      <path fill="#000" d="m1034.76 6252.08.017-10 79 .138-.017 10z"/>
      <circle cx="352.618" cy="6956.05" r="75.25" stroke="#534F4F" stroke-width="10" transform="rotate(-44.9 352.618 6956.05)"/>
      <path fill="#534F4F" d="m293.312 6903.98 7.083-7.059 55.764 55.96-7.083 7.058zM349.429 6960.29l7.083-7.059 55.764 55.96-7.083 7.058z"/>
      <path fill="#534F4F" d="m352.309 6959.64.017-10 79 .138-.017 10z"/>
      <path fill="#534F4F" d="m346.157 6955.79 10 .017-.138 79-10-.017z"/>
      <circle cx="345.91" cy="6956.03" r="75.25" stroke="#000" stroke-width="10" transform="rotate(-44.9 345.91 6956.03)"/>
      <path fill="#000" d="m286.604 6903.96 7.083-7.059 55.764 55.96-7.083 7.058zM342.721 6960.27l7.083-7.059 55.764 55.96-7.083 7.058z"/>
      <path fill="#000" d="m345.601 6959.62.017-10 79 .138-.017 10z"/>
      <path fill="#000" d="m339.449 6955.77 10 .017-.138 79-10-.017z"/>
      <circle cx="345.91" cy="6956.03" r="75.25" stroke="#000" stroke-width="10" transform="rotate(-44.9 345.91 6956.03)"/>
      <path fill="#000" d="m286.604 6903.96 7.083-7.059 55.764 55.96-7.083 7.058zM342.721 6960.27l7.083-7.059 55.764 55.96-7.083 7.058z"/>
      <path fill="#000" d="m345.601 6959.62.017-10 79 .138-.017 10z"/>
      <path fill="#000" d="m339.449 6955.77 10 .017-.138 79-10-.017zM1028.61 6248.23l10 .017-.138 79-10-.017z"/>
      <path fill="url(#h)" d="M686.365 6615.43h148v147h-148z" transform="rotate(-26.42 686.365 6615.43)"/>
      <circle cx="-11.025" cy="7332.13" r="75.25" stroke="#534F4F" stroke-width="10" transform="rotate(-44.9 -11.025 7332.13)"/>
      <path fill="#534F4F" d="m-14.215 7336.37 7.083-7.059 55.764 55.96-7.083 7.058z"/>
      <path fill="#534F4F" d="m-11.335 7335.72.017-10 79 .138-.017 10z"/>
      <circle cx="-17.736" cy="7332.12" r="75.25" stroke="#000" stroke-width="10" transform="rotate(-44.9 -17.736 7332.12)"/>
      <path fill="#000" d="m-20.925 7336.35 7.083-7.059 55.764 55.96-7.083 7.058z"/>
      <path fill="#000" d="m-18.045 7335.7.017-10 79 .138-.017 10z"/>
      <path fill="url(#i)" d="M1371.56 5935.76h148v147h-148z" transform="rotate(-26.42 1371.56 5935.76)"/>
    </g>
    <path fill="#D15C83" d="m-163 1159.72 1702.09-568.719 18.995 56.849-1702.09 568.719z"/>
    <path fill="#DED087" d="m-163 1222.72 1702.09-568.719 18.996 56.85-1702.09 568.72z"/>
    <path fill="#0EB0D6" d="m-163 1285.72 1702.09-568.719 18.996 56.85-1702.09 568.72z"/>
    <path fill="#DA821F" d="m-163 1348.72 1702.09-568.719 18.996 56.85-1702.09 568.72z"/>
    <path fill="#655447" d="M-163 1410.72 1539.09 842l19 56.851-1702.095 568.719-18.995-56.85Z"/>
    <path stroke="#000" stroke-width="3" d="m-169.517 1146.41 1699.245-567.768 95.359 285.394-1699.245 567.768z"/>
    <path fill="#8B8A94" d="m-86 1446.72 1702.09-568.719 5.515 16.503-1702.09 568.72z"/>
    <circle cx="882.549" cy="991.549" r="75.25" stroke="#534F4F" stroke-width="10" transform="rotate(-18.48 882.549 991.549)"/>
    <path fill="#534F4F" d="m852.608 918.523 9.484-3.17 25.041 74.927-9.484 3.17zM877.807 993.924l9.484-3.17 25.041 74.927-9.484 3.17z"/>
    <path fill="#534F4F" d="m880.677 994.622 4.465-8.948 70.688 35.275-4.465 8.947z"/>
    <path fill="#534F4F" d="m876.881 988.435 8.948 4.465-35.275 70.688-8.947-4.465z"/>
    <circle cx="876.549" cy="988.549" r="75.25" stroke="#000" stroke-width="10" transform="rotate(-18.48 876.549 988.549)"/>
    <path fill="#000" d="m846.608 915.523 9.484-3.17 25.041 74.927-9.484 3.17zM871.807 990.924l9.484-3.17 25.041 74.927-9.484 3.17z"/>
    <path fill="#000" d="m874.677 991.622 4.465-8.948 70.688 35.275-4.465 8.947z"/>
    <path fill="#000" d="m870.881 985.435 8.948 4.465-35.275 70.688-8.947-4.465z"/>
    <circle cx="876.549" cy="988.549" r="75.25" stroke="#000" stroke-width="10" transform="rotate(-18.48 876.549 988.549)"/>
    <path fill="#000" d="m846.608 915.523 9.484-3.17 25.041 74.927-9.484 3.17zM871.807 990.924l9.484-3.17 25.041 74.927-9.484 3.17z"/>
    <path fill="#000" d="m874.677 991.622 4.465-8.948 70.688 35.275-4.465 8.947z"/>
    <path fill="#000" d="m870.881 985.435 8.948 4.465-35.275 70.688-8.947-4.465z"/>
    <path fill="url(#j)" d="M77 997h174v174H77z"/>
    <circle cx="1271.55" cy="733.549" r="75.25" stroke="#534F4F" stroke-width="10" transform="rotate(-18.48 1271.55 733.549)"/>
    <path fill="#534F4F" d="m1241.61 660.523 9.484-3.17 25.041 74.927-9.484 3.17zM1266.81 735.924l9.484-3.17 25.041 74.927-9.484 3.17z"/>
    <path fill="#534F4F" d="m1269.68 736.622 4.465-8.948 70.688 35.275-4.465 8.947z"/>
    <path fill="#534F4F" d="m1265.88 730.435 8.948 4.465-35.275 70.688-8.947-4.465z"/>
    <circle cx="1265.55" cy="730.549" r="75.25" stroke="#000" stroke-width="10" transform="rotate(-18.48 1265.55 730.549)"/>
    <path fill="#000" d="m1235.61 657.523 9.484-3.17 25.041 74.927-9.484 3.17zM1260.81 732.924l9.484-3.17 25.041 74.927-9.484 3.17z"/>
    <path fill="#000" d="m1263.68 733.622 4.465-8.948 70.688 35.275-4.465 8.947z"/>
    <path fill="#000" d="m1259.88 727.435 8.948 4.465-35.275 70.688-8.947-4.465z"/>
    <circle cx="1265.55" cy="730.549" r="75.25" stroke="#000" stroke-width="10" transform="rotate(-18.48 1265.55 730.549)"/>
    <path fill="#000" d="m1235.61 657.523 9.484-3.17 25.041 74.927-9.484 3.17zM1260.81 732.924l9.484-3.17 25.041 74.927-9.484 3.17z"/>
    <path fill="#000" d="m1263.68 733.622 4.465-8.948 70.688 35.275-4.465 8.947z"/>
    <path fill="#000" d="m1259.88 727.435 8.948 4.465-35.275 70.688-8.947-4.465z"/>
    <path fill="#FD5D5D" d="M965 5107c0 828.43-671.573 1500-1500 1500-828.43 0-1500-671.57-1500-1500s671.57-1500 1500-1500c828.427 0 1500 671.57 1500 1500Z" opacity=".1"/>
    <path fill="#16FFBD" d="M3320 7559c0 828.43-671.57 1500-1500 1500-828.427 0-1500-671.57-1500-1500s671.573-1500 1500-1500c828.43 0 1500 671.57 1500 1500ZM3446 2943c0 828.43-671.57 1500-1500 1500S446 3771.43 446 2943s671.57-1500 1500-1500 1500 671.57 1500 1500Z" opacity=".1"/>
    <path fill="#FD5D5D" d="M1233 9846c0 828.4-671.573 1500-1500 1500-828.43 0-1500-671.6-1500-1500 0-828.43 671.57-1500 1500-1500 828.427 0 1500 671.57 1500 1500Z" opacity=".1"/>
    <path fill="url(#k)" d="M1227.6 3567.6h174.08v7.2H1227.6z" transform="rotate(90 1227.6 3567.6)"/>
    <ellipse cx="1493.19" cy="3556.08" fill="#CE8F53" rx="37.76" ry="36.84" transform="rotate(90 1493.19 3556.08)"/>
    <path fill="#CE8F53" d="m2106.68 3677.24-11.16 34.22-604.843-157.885 11.16-34.219z"/>
    <path stroke="#CE8F53" stroke-width="10" d="M1424.88 3737.2c72.41 0 126.24 28.99 162.74 99.2M1461.72 3544.56c-9.66 17.6-18.96 29.44-34.69 32M1428.45 3737.81l1.44-164.13"/>
    <path fill="#CE8F53" d="m2040.01 3696-35.447 108.661-576.88-150.63 35.447-108.66z"/>
    <path fill="#CE8F53" d="m1779.16 3743.09-23.201 71.124-327.455-85.502 23.202-71.124z"/>
    <path fill="#CE8F53" d="M1463.51 3577.2v160h-31.475v-160zM1524.84 3720.55l89.302 65.52-24.782 27.036-89.302-65.52z"/>
    <path fill="#CE8F53" d="m1427.94 3583.16 47.805-44.996 22.813 19.4-47.805 44.997z"/>
    <ellipse cx="1494.08" cy="3550.96" fill="#FEB978" rx="37.76" ry="37.32" transform="rotate(90 1494.08 3550.96)"/>
    <path fill="#FEB978" d="m2115.56 3672.12-11.304 34.22-612.722-157.887 11.304-34.22z"/>
    <path stroke="#FEB978" stroke-width="10" d="M1424.88 3732.08c73.35 0 127.88 28.99 164.86 99.2M1462.2 3539.44c-9.78 17.6-19.2 29.44-35.15 32M1428.5 3732.69l1.45-164.13"/>
    <path fill="#FEB978" d="m2048.02 3690.88-35.908 108.66-584.392-150.631 35.908-108.66z"/>
    <path fill="#FEB978" d="m1783.77 3737.97-23.503 71.123-331.72-85.503 23.504-71.123z"/>
    <path fill="#FEB978" d="M1464.01 3572.08v160h-31.885v-160zM1526.14 3715.43l90.465 65.52-25.105 27.036-90.465-65.52z"/>
    <path fill="#FEB978" d="m1427.98 3578.04 48.428-44.996 23.11 19.401-48.428 44.996z"/>
    <path fill="#864925" d="M-677.07 3569.8h2103.25v168.982H-677.07z"/>
    <path fill="#864925" d="m1425.6 3738.8-2095.2 24.11v-48.22l2095.2 24.11ZM1426.32 3569.8l-2095.74-20.75v41.49l2095.74-20.74Z"/>
    <path fill="#FFF2DB" d="M1398.24 3569.52v169.6h-15.12v-169.6z"/>
    <ellipse cx="1003.68" cy="3650.8" fill="#FFF5D9" rx="13.44" ry="15.12" transform="rotate(90 1003.68 3650.8)"/>
    <ellipse cx="730.08" cy="3650.8" fill="#FFF5D9" rx="13.44" ry="15.12" transform="rotate(90 730.08 3650.8)"/>
    <ellipse cx="495.36" cy="3651.44" fill="#FFF5D9" rx="13.44" ry="15.12" transform="rotate(90 495.36 3651.44)"/>
    <ellipse cx="274.32" cy="3651.44" fill="#FFF5D9" rx="13.44" ry="15.12" transform="rotate(90 274.32 3651.44)"/>
    <ellipse cx=".72" cy="3703.6" fill="#FFF5D9" rx="14.4" ry="15.12" transform="rotate(90 .72 3703.6)"/>
    <ellipse cx="-.36" cy="3600.24" fill="#FFF5D9" rx="13.44" ry="16.2" transform="rotate(90 -.36 3600.24)"/>
    <path fill="url(#l)" d="M1229.76 3567.6h173.44v9.36h-173.44z" transform="rotate(90 1229.76 3567.6)"/>
    <path fill="url(#m)" d="M1075.68 3566.32h176.64v9.36h-176.64z" transform="rotate(90 1075.68 3566.32)"/>
    <path fill="url(#n)" d="M934.56 3565.04h179.2v9.36h-179.2z" transform="rotate(90 934.56 3565.04)"/>
    <path fill="url(#o)" d="M792 3563.76h182.4v9.36H792z" transform="rotate(90 792 3563.76)"/>
    <path fill="url(#p)" d="M673.2 3562.48h184.96v9.36H673.2z" transform="rotate(90 673.2 3562.48)"/>
    <path fill="url(#q)" d="M552.24 3561.2h187.52v9.36H552.24z" transform="rotate(90 552.24 3561.2)"/>
    <path fill="url(#r)" d="M442.08 3560.56h189.44v9.36H442.08z" transform="rotate(90 442.08 3560.56)"/>
    <path fill="url(#s)" d="M324 3558.64h192.64v9.36H324z" transform="rotate(90 324 3558.64)"/>
    <path fill="url(#t)" d="M230.4 3558h194.56v9.36H230.4z" transform="rotate(90 230.4 3558)"/>
    <path fill="url(#u)" d="M134.64 3556.72h196.48v9.36H134.64z" transform="rotate(90 134.64 3556.72)"/>
    <path fill="url(#v)" d="M43.92 3556.08h198.4v9.36H43.92z" transform="rotate(90 43.92 3556.08)"/>
    <path stroke="#545252" stroke-width="5" d="M1575 3582.96c-108.36 5.44-131.76 11.2-148.68.96m563.76 105.6c-528.84 13.44-538.56 15.36-563.76 3.52m460.8-22.72c-424.44 9.6-435.6 11.84-460.8 0m668.16 53.44c-633.6 10.88-642.96 17.28-668.16 5.44m349.92-97.28c-320.76 6.72-324.72 11.84-349.92 0m250.2-24c-217.44 7.04-225 11.2-250.2-.64" opacity=".6"/>
    <path fill="#393737" d="M1383.12 3634.16v3.2h-2077.2v-3.2zM1383.12 3672.56v3.2H-693.36v-3.2zM1383.13 3695.55l.025 3.2-2072.943 12.88-.025-3.2zM1383.11 3612.45l.025-3.2-2072.778-12.851-.026 3.2zM1383.013 3731.386l.032 3.2-2063.623 15.956-.031-3.2zM1382.93 3588.09l.031-3.2-2066.598-15.996-.031 3.2z" opacity=".6"/>
    <path fill="url(#w)" d="M1273.6 6739.6h174.08v7.2H1273.6z" transform="rotate(90 1273.6 6739.6)"/>
    <ellipse cx="1539.19" cy="6728.08" fill="#CE8F53" rx="37.76" ry="36.84" transform="rotate(90 1539.19 6728.08)"/>
    <path stroke="#CE8F53" stroke-width="10" d="M1470.88 6909.2c72.41 0 126.24 28.99 162.74 99.2M1507.72 6716.56c-9.66 17.6-18.96 29.44-34.69 32M1474.45 6909.81l1.44-164.13"/>
    <path fill="#CE8F53" d="m2086.01 6868-35.447 108.661-576.88-150.63 35.447-108.66z"/>
    <path fill="#CE8F53" d="m1825.16 6915.09-23.201 71.124-327.455-85.502 23.202-71.124z"/>
    <path fill="#CE8F53" d="M1509.51 6749.2v160h-31.475v-160z"/>
    <path fill="#CE8F53" d="m1473.94 6755.16 47.805-44.996 22.813 19.4-47.805 44.997z"/>
    <ellipse cx="1540.08" cy="6722.96" fill="#FEB978" rx="37.76" ry="37.32" transform="rotate(90 1540.08 6722.96)"/>
    <path stroke="#FEB978" stroke-width="10" d="M1470.88 6904.08c73.35 0 127.88 28.99 164.86 99.2M1508.2 6711.44c-9.78 17.6-19.2 29.44-35.15 32M1474.5 6904.69l1.45-164.13"/>
    <path fill="#FEB978" d="m2094.02 6862.88-35.908 108.66-584.392-150.631 35.908-108.66z"/>
    <path fill="#FEB978" d="m1829.77 6909.97-23.503 71.123-331.72-85.503 23.504-71.123z"/>
    <path fill="#FEB978" d="M1510.01 6744.08v160h-31.885v-160z"/>
    <path fill="#FEB978" d="m1473.98 6750.04 48.428-44.996 23.11 19.401-48.428 44.996z"/>
    <path fill="#864925" d="M-631.07 6741.8h2103.25v168.982H-631.07z"/>
    <path fill="#864925" d="m1471.6 6910.8-2095.2 24.11v-48.22l2095.2 24.11ZM1472.32 6741.8l-2095.74-20.75v41.49l2095.74-20.74Z"/>
    <path fill="#FFF2DB" d="M1444.24 6741.52v169.6h-15.12v-169.6z"/>
    <ellipse cx="1049.68" cy="6822.8" fill="#FFF5D9" rx="13.44" ry="15.12" transform="rotate(90 1049.68 6822.8)"/>
    <ellipse cx="776.08" cy="6822.8" fill="#FFF5D9" rx="13.44" ry="15.12" transform="rotate(90 776.08 6822.8)"/>
    <ellipse cx="541.36" cy="6823.44" fill="#FFF5D9" rx="13.44" ry="15.12" transform="rotate(90 541.36 6823.44)"/>
    <ellipse cx="320.32" cy="6823.44" fill="#FFF5D9" rx="13.44" ry="15.12" transform="rotate(90 320.32 6823.44)"/>
    <ellipse cx="46.72" cy="6875.6" fill="#FFF5D9" rx="14.4" ry="15.12" transform="rotate(90 46.72 6875.6)"/>
    <ellipse cx="45.64" cy="6772.24" fill="#FFF5D9" rx="13.44" ry="16.2" transform="rotate(90 45.64 6772.24)"/>
    <path fill="url(#x)" d="M1275.76 6739.6h173.44v9.36h-173.44z" transform="rotate(90 1275.76 6739.6)"/>
    <path fill="url(#y)" d="M1121.68 6738.32h176.64v9.36h-176.64z" transform="rotate(90 1121.68 6738.32)"/>
    <path fill="url(#z)" d="M980.56 6737.04h179.2v9.36h-179.2z" transform="rotate(90 980.56 6737.04)"/>
    <path fill="url(#A)" d="M838 6735.76h182.4v9.36H838z" transform="rotate(90 838 6735.76)"/>
    <path fill="url(#B)" d="M719.2 6734.48h184.96v9.36H719.2z" transform="rotate(90 719.2 6734.48)"/>
    <path fill="url(#C)" d="M598.24 6733.2h187.52v9.36H598.24z" transform="rotate(90 598.24 6733.2)"/>
    <path fill="url(#D)" d="M488.08 6732.56h189.44v9.36H488.08z" transform="rotate(90 488.08 6732.56)"/>
    <path fill="url(#E)" d="M370 6730.64h192.64v9.36H370z" transform="rotate(90 370 6730.64)"/>
    <path fill="url(#F)" d="M276.4 6730h194.56v9.36H276.4z" transform="rotate(90 276.4 6730)"/>
    <path fill="url(#G)" d="M180.64 6728.72h196.48v9.36H180.64z" transform="rotate(90 180.64 6728.72)"/>
    <path fill="url(#H)" d="M89.92 6728.08h198.4v9.36H89.92z" transform="rotate(90 89.92 6728.08)"/>
    <path fill="url(#I)" d="M7.84 6727.44h199.68v9.36H7.84z" transform="rotate(90 7.84 6727.44)"/>
    <path stroke="#545252" stroke-width="5" d="M1621 6754.96c-108.36 5.44-131.76 11.2-148.68.96m563.76 105.6c-528.84 13.44-538.56 15.36-563.76 3.52m460.8-22.72c-424.44 9.6-435.6 11.84-460.8 0m668.16 53.44c-633.6 10.88-642.96 17.28-668.16 5.44m349.92-97.28c-320.76 6.72-324.72 11.84-349.92 0m250.2-24c-217.44 7.04-225 11.2-250.2-.64" opacity=".6"/>
    <path fill="#393737" d="M1429.12 6806.16v3.2h-2077.2v-3.2zM1429.12 6844.56v3.2H-647.36v-3.2zM1429.13 6867.55l.026 3.2-2072.943 12.88-.025-3.2zM1429.11 6784.45l.025-3.2-2072.778-12.851-.026 3.2zM1429.003 6903.396l.031 3.2-2063.623 15.956-.03-3.2zM1428.93 6760.09l.031-3.2-2066.598-15.996-.031 3.2z" opacity=".6"/>
  </g>
  <defs>
    <linearGradient id="k" x1="1314.64" x2="1314.64" y1="3567.6" y2="3574.8" gradientUnits="userSpaceOnUse">
      <stop stop-color="#F5F2F2"/>
      <stop offset="1" stop-color="#C4C4C4"/>
    </linearGradient>
    <linearGradient id="l" x1="1316.48" x2="1316.48" y1="3567.6" y2="3576.96" gradientUnits="userSpaceOnUse">
      <stop stop-color="#D2D1D1"/>
      <stop offset="1" stop-color="#7E7C7C"/>
    </linearGradient>
    <linearGradient id="m" x1="1164" x2="1164" y1="3566.32" y2="3575.68" gradientUnits="userSpaceOnUse">
      <stop stop-color="#D2D1D1"/>
      <stop offset="1" stop-color="#7E7C7C"/>
    </linearGradient>
    <linearGradient id="n" x1="1024.16" x2="1024.16" y1="3565.04" y2="3574.4" gradientUnits="userSpaceOnUse">
      <stop stop-color="#D2D1D1"/>
      <stop offset="1" stop-color="#7E7C7C"/>
    </linearGradient>
    <linearGradient id="o" x1="883.2" x2="883.2" y1="3563.76" y2="3573.12" gradientUnits="userSpaceOnUse">
      <stop stop-color="#D2D1D1"/>
      <stop offset="1" stop-color="#7E7C7C"/>
    </linearGradient>
    <linearGradient id="p" x1="765.68" x2="765.68" y1="3562.48" y2="3571.84" gradientUnits="userSpaceOnUse">
      <stop stop-color="#D2D1D1"/>
      <stop offset="1" stop-color="#7E7C7C"/>
    </linearGradient>
    <linearGradient id="q" x1="646" x2="646" y1="3561.2" y2="3570.56" gradientUnits="userSpaceOnUse">
      <stop stop-color="#D2D1D1"/>
      <stop offset="1" stop-color="#7E7C7C"/>
    </linearGradient>
    <linearGradient id="r" x1="536.8" x2="536.8" y1="3560.56" y2="3569.92" gradientUnits="userSpaceOnUse">
      <stop stop-color="#D2D1D1"/>
      <stop offset="1" stop-color="#7E7C7C"/>
    </linearGradient>
    <linearGradient id="s" x1="420.32" x2="420.32" y1="3558.64" y2="3568" gradientUnits="userSpaceOnUse">
      <stop stop-color="#D2D1D1"/>
      <stop offset="1" stop-color="#7E7C7C"/>
    </linearGradient>
    <linearGradient id="t" x1="327.68" x2="327.68" y1="3558" y2="3567.36" gradientUnits="userSpaceOnUse">
      <stop stop-color="#D2D1D1"/>
      <stop offset="1" stop-color="#7E7C7C"/>
    </linearGradient>
    <linearGradient id="u" x1="232.88" x2="232.88" y1="3556.72" y2="3566.08" gradientUnits="userSpaceOnUse">
      <stop stop-color="#D2D1D1"/>
      <stop offset="1" stop-color="#7E7C7C"/>
    </linearGradient>
    <linearGradient id="v" x1="143.12" x2="143.12" y1="3556.08" y2="3565.44" gradientUnits="userSpaceOnUse">
      <stop stop-color="#D2D1D1"/>
      <stop offset="1" stop-color="#7E7C7C"/>
    </linearGradient>
    <linearGradient id="w" x1="1360.64" x2="1360.64" y1="6739.6" y2="6746.8" gradientUnits="userSpaceOnUse">
      <stop stop-color="#F5F2F2"/>
      <stop offset="1" stop-color="#C4C4C4"/>
    </linearGradient>
    <linearGradient id="x" x1="1362.48" x2="1362.48" y1="6739.6" y2="6748.96" gradientUnits="userSpaceOnUse">
      <stop stop-color="#D2D1D1"/>
      <stop offset="1" stop-color="#7E7C7C"/>
    </linearGradient>
    <linearGradient id="y" x1="1210" x2="1210" y1="6738.32" y2="6747.68" gradientUnits="userSpaceOnUse">
      <stop stop-color="#D2D1D1"/>
      <stop offset="1" stop-color="#7E7C7C"/>
    </linearGradient>
    <linearGradient id="z" x1="1070.16" x2="1070.16" y1="6737.04" y2="6746.4" gradientUnits="userSpaceOnUse">
      <stop stop-color="#D2D1D1"/>
      <stop offset="1" stop-color="#7E7C7C"/>
    </linearGradient>
    <linearGradient id="A" x1="929.2" x2="929.2" y1="6735.76" y2="6745.12" gradientUnits="userSpaceOnUse">
      <stop stop-color="#D2D1D1"/>
      <stop offset="1" stop-color="#7E7C7C"/>
    </linearGradient>
    <linearGradient id="B" x1="811.68" x2="811.68" y1="6734.48" y2="6743.84" gradientUnits="userSpaceOnUse">
      <stop stop-color="#D2D1D1"/>
      <stop offset="1" stop-color="#7E7C7C"/>
    </linearGradient>
    <linearGradient id="C" x1="692" x2="692" y1="6733.2" y2="6742.56" gradientUnits="userSpaceOnUse">
      <stop stop-color="#D2D1D1"/>
      <stop offset="1" stop-color="#7E7C7C"/>
    </linearGradient>
    <linearGradient id="D" x1="582.8" x2="582.8" y1="6732.56" y2="6741.92" gradientUnits="userSpaceOnUse">
      <stop stop-color="#D2D1D1"/>
      <stop offset="1" stop-color="#7E7C7C"/>
    </linearGradient>
    <linearGradient id="E" x1="466.32" x2="466.32" y1="6730.64" y2="6740" gradientUnits="userSpaceOnUse">
      <stop stop-color="#D2D1D1"/>
      <stop offset="1" stop-color="#7E7C7C"/>
    </linearGradient>
    <linearGradient id="F" x1="373.68" x2="373.68" y1="6730" y2="6739.36" gradientUnits="userSpaceOnUse">
      <stop stop-color="#D2D1D1"/>
      <stop offset="1" stop-color="#7E7C7C"/>
    </linearGradient>
    <linearGradient id="G" x1="278.88" x2="278.88" y1="6728.72" y2="6738.08" gradientUnits="userSpaceOnUse">
      <stop stop-color="#D2D1D1"/>
      <stop offset="1" stop-color="#7E7C7C"/>
    </linearGradient>
    <linearGradient id="H" x1="189.12" x2="189.12" y1="6728.08" y2="6737.44" gradientUnits="userSpaceOnUse">
      <stop stop-color="#D2D1D1"/>
      <stop offset="1" stop-color="#7E7C7C"/>
    </linearGradient>
    <linearGradient id="I" x1="107.68" x2="107.68" y1="6727.44" y2="6736.8" gradientUnits="userSpaceOnUse">
      <stop stop-color="#D2D1D1"/>
      <stop offset="1" stop-color="#7E7C7C"/>
    </linearGradient>
    <pattern id="b" width="1" height="1" patternContentUnits="objectBoundingBox">
      <use xlink:href="#J" transform="matrix(.0013 0 0 .0013 0 -.003)"/>
    </pattern>
    <pattern id="c" width="1" height="1" patternContentUnits="objectBoundingBox">
      <use xlink:href="#J" transform="matrix(.0013 0 0 .0013 0 -.003)"/>
    </pattern>
    <pattern id="d" width="1" height="1" patternContentUnits="objectBoundingBox">
      <use xlink:href="#J" transform="matrix(.0013 0 0 .0013 0 -.003)"/>
    </pattern>
    <pattern id="e" width="1" height="1" patternContentUnits="objectBoundingBox">
      <use xlink:href="#J" transform="matrix(.0013 0 0 .0013 0 -.003)"/>
    </pattern>
    <pattern id="f" width="1" height="1" patternContentUnits="objectBoundingBox">
      <use xlink:href="#J" transform="matrix(.0013 0 0 .0013 0 -.003)"/>
    </pattern>
    <pattern id="g" width="1" height="1" patternContentUnits="objectBoundingBox">
      <use xlink:href="#J" transform="matrix(.0013 0 0 .0013 0 -.003)"/>
    </pattern>
    <pattern id="h" width="1" height="1" patternContentUnits="objectBoundingBox">
      <use xlink:href="#J" transform="matrix(.0013 0 0 .0013 0 -.003)"/>
    </pattern>
    <pattern id="i" width="1" height="1" patternContentUnits="objectBoundingBox">
      <use xlink:href="#J" transform="matrix(.0013 0 0 .0013 0 -.003)"/>
    </pattern>
    <pattern id="j" width="1" height="1" patternContentUnits="objectBoundingBox">
      <use xlink:href="#J" transform="scale(.0013)"/>
    </pattern>
    <clipPath id="a">
      <path fill="#fff" d="M0 0h1512v9059H0z"/>
    </clipPath>
  </defs>
</svg>
